<svg width="41" height="47" viewBox="0 0 41 47" fill="none" xmlns="http://www.w3.org/2000/svg">
<rect x="15.1591" y="0.25" width="10.6818" height="23.0554" fill="#F2DC74" stroke="#562A0A" stroke-width="0.5"/>
<rect x="15.1591" y="3.90517" width="10.6818" height="23.0554" fill="#A75F2C" stroke="#562A0A" stroke-width="0.5"/>
<rect x="25.9268" y="1.89912" width="10.6818" height="21.6278" fill="#F2DC74" stroke="#562A0A" stroke-width="0.5"/>
<rect x="25.9268" y="5.33275" width="10.6818" height="21.6278" fill="#A75F2C" stroke="#562A0A" stroke-width="0.5"/>
<rect x="4.39142" y="3.13596" width="10.6818" height="20.114" fill="#F2DC74" stroke="#562A0A" stroke-width="0.5"/>
<rect x="4.39142" y="5.60965" width="10.6818" height="21.3509" fill="#A75F2C" stroke="#562A0A" stroke-width="0.5"/>
<rect x="4.39142" y="6.84649" width="32.2172" height="6.92105" fill="#B7672F" stroke="#562A0A" stroke-width="0.5"/>
<rect x="4.39142" y="17.9781" width="32.2172" height="6.92105" fill="#B7672F" stroke="#562A0A" stroke-width="0.5"/>
<rect x="4.39142" y="10.9693" width="32.2172" height="6.92105" fill="#B7672F" stroke="#562A0A" stroke-width="0.5"/>
<rect x="15.1591" y="20.0395" width="10.6818" height="23.0554" rx="0.75" fill="#F2DC74" stroke="#562A0A" stroke-width="0.5"/>
<path d="M15.1591 23.6946H25.8409V44C25.8409 45.5188 24.6097 46.75 23.0909 46.75H19.9091C17.2857 46.75 15.1591 44.6233 15.1591 42V23.6946Z" fill="#D07A3D" stroke="#562A0A" stroke-width="0.5"/>
<path d="M25.9268 22.4386C25.9268 22.0244 26.2626 21.6886 26.6768 21.6886H35.8586C36.2728 21.6886 36.6086 22.0244 36.6086 22.4386V43.3164H25.9268V22.4386Z" fill="#F2DC74" stroke="#562A0A" stroke-width="0.5"/>
<path d="M25.9268 25.8722C25.9268 25.458 26.2626 25.1222 26.6768 25.1222H35.8586C36.2728 25.1222 36.6086 25.458 36.6086 25.8722V44C36.6086 45.5188 35.3774 46.75 33.8586 46.75H29.6768C27.6057 46.75 25.9268 45.071 25.9268 43V25.8722Z" fill="#D07A3D" stroke="#562A0A" stroke-width="0.5"/>
<path d="M36.6944 1.89912H40.75V23.0672C40.75 25.3612 38.956 27.2362 36.6944 27.3657V1.89912Z" fill="#F2DC74" stroke="#562A0A" stroke-width="0.5"/>
<path d="M36.6944 9.04327H40.75V26.3655C40.75 28.6595 38.956 30.5344 36.6944 30.6639V9.04327Z" fill="#D07A3D" stroke="#562A0A" stroke-width="0.5"/>
<path d="M36.6944 10.9693H40.75V32.1374C40.75 34.4314 38.956 36.3064 36.6944 36.4358V10.9693Z" fill="#F2DC74" stroke="#562A0A" stroke-width="0.5"/>
<path d="M36.6944 16.8766H40.75V34.1988C40.75 36.4928 38.956 38.3678 36.6944 38.4972V16.8766Z" fill="#D07A3D" stroke="#562A0A" stroke-width="0.5"/>
<path d="M36.6944 17.9781H40.75V39.1462C40.75 41.4402 38.956 43.3151 36.6944 43.4446V17.9781Z" fill="#F2DC74" stroke="#562A0A" stroke-width="0.5"/>
<path d="M36.6944 25.1222H40.75V43.8111C40.75 45.4342 39.4342 46.75 37.8111 46.75C37.1944 46.75 36.6944 46.25 36.6944 45.6333V25.1222Z" fill="#D07A3D" stroke="#562A0A" stroke-width="0.5"/>
<path d="M0.25 1.89912H4.30556V27.3728H4C1.92893 27.3728 0.25 25.6939 0.25 23.6228V1.89912Z" fill="#F2DC74" stroke="#562A0A" stroke-width="0.5"/>
<path d="M0.25 9.04327H4.30556V30.671H4C1.92893 30.671 0.25 28.9921 0.25 26.921V9.04327Z" fill="#D07A3D" stroke="#562A0A" stroke-width="0.5"/>
<path d="M0.25 10.9693H4.30556V36.443H4C1.92893 36.443 0.25 34.764 0.25 32.693V10.9693Z" fill="#F2DC74" stroke="#562A0A" stroke-width="0.5"/>
<path d="M0.25 16.8766H4.30556V38.5044H4C1.92893 38.5044 0.25 36.8254 0.25 34.7544V16.8766Z" fill="#D07A3D" stroke="#562A0A" stroke-width="0.5"/>
<path d="M0.25 17.9781H4.30556V41.7494C4.30556 42.6896 3.54337 43.4517 2.60317 43.4517C1.30355 43.4517 0.25 42.3982 0.25 41.0986V17.9781Z" fill="#F2DC74" stroke="#562A0A" stroke-width="0.5"/>
<path d="M0.25 25.1222H4.30556V45.0476C4.30556 45.9878 3.54337 46.75 2.60317 46.75C1.30355 46.75 0.25 45.6964 0.25 44.3968V25.1222Z" fill="#D07A3D" stroke="#562A0A" stroke-width="0.5"/>
<path d="M4.39142 23.6754C4.39142 23.2612 4.7272 22.9254 5.14142 22.9254H14.3232C14.7375 22.9254 15.0732 23.2612 15.0732 23.6754V41.2895C15.0732 42.256 14.2897 43.0395 13.3232 43.0395H6.14142C5.17492 43.0395 4.39142 42.256 4.39142 41.2895V23.6754Z" fill="#F2DC74" stroke="#562A0A" stroke-width="0.5"/>
<path d="M4.39142 26.1491C4.39142 25.7349 4.7272 25.3991 5.14142 25.3991H14.3232C14.7375 25.3991 15.0732 25.7349 15.0732 26.1491V45C15.0732 45.9665 14.2897 46.75 13.3232 46.75H6.14142C5.17492 46.75 4.39142 45.9665 4.39142 45V26.1491Z" fill="#D07A3D" stroke="#562A0A" stroke-width="0.5"/>
</svg>
