<svg width="64" height="64" viewBox="0 0 64 64" fill="none" xmlns="http://www.w3.org/2000/svg">
<path d="M39.1213 1H24.8789V31.7405H39.1213V1Z" fill="#F2DC74" stroke="#562A0A" stroke-width="0.5"/>
<path d="M39.1213 5.87378H24.8789V36.6142H39.1213V5.87378Z" fill="#A75F2C" stroke="#562A0A" stroke-width="0.5"/>
<path d="M53.4777 3.19897H39.2354V32.036H53.4777V3.19897Z" fill="#F2DC74" stroke="#562A0A" stroke-width="0.5"/>
<path d="M53.4777 7.7771H39.2354V36.6141H53.4777V7.7771Z" fill="#A75F2C" stroke="#562A0A" stroke-width="0.5"/>
<path d="M24.7643 4.8479H10.522V31.6665H24.7643V4.8479Z" fill="#F2DC74" stroke="#562A0A" stroke-width="0.5"/>
<path d="M24.7643 8.14624H10.522V36.614H24.7643V8.14624Z" fill="#A75F2C" stroke="#562A0A" stroke-width="0.5"/>
<path d="M53.4781 9.79517H10.522V19.0232H53.4781V9.79517Z" fill="#B7672F" stroke="#562A0A" stroke-width="0.5"/>
<path d="M53.4781 24.6372H10.522V33.8653H53.4781V24.6372Z" fill="#B7672F" stroke="#562A0A" stroke-width="0.5"/>
<path d="M53.4781 15.2922H10.522V24.5203H53.4781V15.2922Z" fill="#B7672F" stroke="#562A0A" stroke-width="0.5"/>
<path d="M38.1213 27.386H25.8789C25.3266 27.386 24.8789 27.8337 24.8789 28.386V57.1264C24.8789 57.6787 25.3266 58.1264 25.8789 58.1264H38.1213C38.6736 58.1264 39.1213 57.6787 39.1213 57.1264V28.386C39.1213 27.8337 38.6736 27.386 38.1213 27.386Z" fill="#F2DC74" stroke="#562A0A" stroke-width="0.5"/>
<path d="M24.8789 32.2593H39.1213V59.3331C39.1213 61.3581 37.4797 62.9997 35.4546 62.9997H31.2122C27.7144 62.9997 24.8789 60.1641 24.8789 56.6664V32.2593Z" fill="#D07A3D" stroke="#562A0A" stroke-width="0.5"/>
<path d="M39.2354 30.585C39.2354 30.0327 39.6831 29.585 40.2353 29.585H52.4777C53.03 29.585 53.4777 30.0327 53.4777 30.585V58.422H39.2354V30.585Z" fill="#F2DC74" stroke="#562A0A" stroke-width="0.5"/>
<path d="M39.2354 35.1631C39.2354 34.6108 39.6831 34.1631 40.2353 34.1631H52.4777C53.03 34.1631 53.4777 34.6108 53.4777 35.1631V59.3334C53.4777 61.3585 51.8361 63.0001 49.8111 63.0001H44.2353C41.4739 63.0001 39.2354 60.7614 39.2354 58.0001V35.1631Z" fill="#D07A3D" stroke="#562A0A" stroke-width="0.5"/>
<path d="M53.5923 3.19897H58.9997V31.423C58.9997 34.4817 56.6077 36.9817 53.5923 37.1543V3.19897Z" fill="#F2DC74" stroke="#562A0A" stroke-width="0.5"/>
<path d="M53.5923 12.7244H58.9997V35.8206C58.9997 38.8793 56.6077 41.3791 53.5923 41.5518V12.7244Z" fill="#D07A3D" stroke="#562A0A" stroke-width="0.5"/>
<path d="M53.5923 15.2922H58.9997V43.5163C58.9997 46.575 56.6077 49.075 53.5923 49.2475V15.2922Z" fill="#F2DC74" stroke="#562A0A" stroke-width="0.5"/>
<path d="M53.5923 23.1689H58.9997V46.2652C58.9997 49.3238 56.6077 51.8238 53.5923 51.9963V23.1689Z" fill="#D07A3D" stroke="#562A0A" stroke-width="0.5"/>
<path d="M53.5923 24.6372H58.9997V52.8613C58.9997 55.9199 56.6077 58.4198 53.5923 58.5925V24.6372Z" fill="#F2DC74" stroke="#562A0A" stroke-width="0.5"/>
<path d="M53.5923 34.1631H58.9997V59.0816C58.9997 61.2457 57.2453 63.0001 55.0812 63.0001C54.2589 63.0001 53.5923 62.3334 53.5923 61.5112V34.1631Z" fill="#D07A3D" stroke="#562A0A" stroke-width="0.5"/>
<path d="M5 3.19897H10.4074V37.1638H9.99999C7.23857 37.1638 5 34.9253 5 32.1638V3.19897Z" fill="#F2DC74" stroke="#562A0A" stroke-width="0.5"/>
<path d="M5 12.7244H10.4074V41.5613H9.99999C7.23857 41.5613 5 39.3227 5 36.5613V12.7244Z" fill="#D07A3D" stroke="#562A0A" stroke-width="0.5"/>
<path d="M5 15.2922H10.4074V49.2571H9.99999C7.23857 49.2571 5 47.0184 5 44.2571V15.2922Z" fill="#F2DC74" stroke="#562A0A" stroke-width="0.5"/>
<path d="M5 23.1689H10.4074V52.0059H9.99999C7.23857 52.0059 5 49.7673 5 47.006V23.1689Z" fill="#D07A3D" stroke="#562A0A" stroke-width="0.5"/>
<path d="M5 24.6372H10.4074V56.3322C10.4074 57.5858 9.39115 58.6019 8.13755 58.6019C6.40473 58.6019 5 57.1973 5 55.4645V24.6372Z" fill="#F2DC74" stroke="#562A0A" stroke-width="0.5"/>
<path d="M5 34.1631H10.4074V60.7302C10.4074 61.9838 9.39115 63.0001 8.13755 63.0001C6.40473 63.0001 5 61.5953 5 59.8625V34.1631Z" fill="#D07A3D" stroke="#562A0A" stroke-width="0.5"/>
<path d="M10.522 32.2336C10.522 31.6814 10.9697 31.2336 11.522 31.2336H23.7643C24.3167 31.2336 24.7643 31.6814 24.7643 32.2336V55.7191C24.7643 57.0077 23.7196 58.0524 22.431 58.0524H12.8553C11.5666 58.0524 10.522 57.0077 10.522 55.7191V32.2336Z" fill="#F2DC74" stroke="#562A0A" stroke-width="0.5"/>
<path d="M10.522 35.5322C10.522 34.98 10.9697 34.5322 11.522 34.5322H23.7643C24.3167 34.5322 24.7643 34.98 24.7643 35.5322V60.6667C24.7643 61.9554 23.7196 63 22.431 63H12.8553C11.5666 63 10.522 61.9554 10.522 60.6667V35.5322Z" fill="#D07A3D" stroke="#562A0A" stroke-width="0.5"/>
</svg>
