<svg width="64" height="64" viewBox="0 0 64 64" fill="none" xmlns="http://www.w3.org/2000/svg">
<path d="M41.4373 17.3258C41.3248 19.5989 40.4479 21.3617 42.721 21.4742C44.994 21.5867 46.9279 19.8353 47.0405 17.5622C47.153 15.2892 45.4015 13.3553 43.1285 13.2427C40.8554 13.1302 41.5498 15.0528 41.4373 17.3258Z" fill="#DEF1EF"/>
<path d="M41.687 17.3382C41.6617 17.8503 41.5983 18.3373 41.5411 18.7761C41.5335 18.8346 41.526 18.8923 41.5187 18.949C41.4557 19.4395 41.4105 19.8522 41.434 20.1931C41.4571 20.5295 41.5449 20.758 41.7148 20.9141C41.889 21.0743 42.1922 21.1977 42.7333 21.2245C44.8685 21.3302 46.6851 19.685 46.7908 17.5499C46.8965 15.4147 45.2513 13.5981 43.1161 13.4924C42.5772 13.4657 42.2643 13.5629 42.0749 13.7107C41.8882 13.8563 41.7765 14.0861 41.7193 14.4306C41.6616 14.7784 41.6654 15.2045 41.6793 15.7062C41.681 15.7666 41.6828 15.8279 41.6846 15.8902C41.6977 16.3367 41.7122 16.8289 41.687 17.3382Z" stroke="black" stroke-width="0.5"/>
<path d="M37.2643 33.7542L37.8786 31.9319C38.1047 31.2609 38.832 30.9004 39.5029 31.1266C40.1739 31.3527 40.5344 32.08 40.3083 32.7509L39.694 34.5732C39.4678 35.2441 38.7406 35.6047 38.0696 35.3785C37.3987 35.1524 37.0381 34.4251 37.2643 33.7542Z" fill="#474747" stroke="black" stroke-width="0.5"/>
<path d="M42.1066 32.0042C41.5073 31.8021 40.8577 32.1242 40.6557 32.7235L39.9878 34.7049C39.7671 35.3596 40.1189 36.0693 40.7736 36.29C41.1713 36.424 41.6207 36.3598 41.9143 36.0599C42.6874 35.2705 42.8879 34.4122 42.8709 33.0304C42.8651 32.5608 42.5516 32.1542 42.1066 32.0042Z" fill="#474747" stroke="black" stroke-width="0.5"/>
<path d="M55.371 34.1238C54.6635 33.2778 52.9457 33.934 52.1753 34.3678L53.772 36.3352C54.1448 36.3068 55.0256 36.3359 55.5662 36.6804C56.1068 37.0248 56.5127 36.4474 56.6481 36.1156C56.5172 35.8042 56.0785 34.9698 55.371 34.1238Z" fill="#DEF1EF" stroke="black" stroke-width="0.5" stroke-linecap="round" stroke-linejoin="round"/>
<path d="M50.8063 38.7318C51.8209 39.0738 53.016 38.4176 53.4346 37.1758C53.8532 35.9341 53.2993 34.6882 52.2847 34.3462C51.2701 34.0042 50.075 34.6605 49.6564 35.9022C49.2378 37.144 49.7917 38.3898 50.8063 38.7318Z" fill="#DEF1EF" stroke="black" stroke-width="0.5"/>
<path d="M51.5765 38.8814C51.1258 38.5623 50.5017 38.669 50.1826 39.1198L50.1149 39.2153C49.8431 39.5993 49.8757 40.1208 50.1932 40.4679L51.4927 41.8891C51.8758 42.3081 52.5305 42.3244 52.934 41.9251L53.3138 41.5493C53.7558 41.1119 53.6957 40.3815 53.1882 40.0223L51.5765 38.8814Z" fill="#DEF1EF" stroke="black" stroke-width="0.5"/>
<path d="M39.3422 33.6091C38.6919 35.5381 36.6011 36.5747 34.6721 35.9245C32.7432 35.2742 31.7066 33.1834 32.3568 31.2544C33.0071 29.3254 35.0979 28.2888 37.0269 28.9391C38.9558 29.5893 39.9924 31.6802 39.3422 33.6091Z" fill="#DEF1EF"/>
<path d="M34.7523 35.6876C36.5504 36.2937 38.4995 35.3274 39.1056 33.5293C39.7117 31.7312 38.7455 29.7822 36.9473 29.176C35.1492 28.5699 33.2002 29.5362 32.594 31.3343C31.9879 33.1324 32.9542 35.0815 34.7523 35.6876Z" stroke="black" stroke-width="0.5"/>
<path d="M44.8249 31.8522C43.652 31.8168 42.8687 32.8783 42.5872 34.0174C42.5292 34.2521 42.4485 34.4806 42.3409 34.7098C41.8548 35.7455 41.829 37.0353 42.7437 37.7226C44.2785 38.8758 45.6491 39.6373 47.5584 40.4942C48.25 40.8046 49.067 40.6868 49.6089 40.1567C51.7676 38.0451 52.0829 36.4109 51.7013 34.0437C51.5773 33.2742 50.9696 32.6782 50.206 32.5216C48.2839 32.1275 46.771 31.9108 44.8249 31.8522Z" fill="#DEF1EF"/>
<path d="M44.8175 32.102C43.8268 32.0721 43.1024 32.9751 42.83 34.0773C42.768 34.3281 42.6818 34.5721 42.5673 34.8159C42.1003 35.8109 42.1223 36.9428 42.8939 37.5226C44.4104 38.6621 45.7639 39.4146 47.6609 40.266C48.2657 40.5375 48.9711 40.4309 49.4342 39.9779C50.4952 38.94 51.0844 38.0378 51.3691 37.1217C51.6539 36.2054 51.6424 35.2485 51.4546 34.0834C51.3482 33.4234 50.8247 32.9035 50.1559 32.7664C48.2438 32.3744 46.7456 32.1601 44.8175 32.102Z" stroke="black" stroke-width="0.5"/>
<path d="M34.7682 36.4224H28.9991C28.0255 36.4224 27.2363 37.2116 27.2363 38.1851C27.2363 39.1587 28.0255 39.9479 28.9991 39.9479H34.7682C35.7417 39.9479 36.5309 39.1587 36.5309 38.1851C36.5309 37.2116 35.7417 36.4224 34.7682 36.4224Z" fill="#474747" stroke="black" stroke-width="0.5"/>
<path d="M23.9873 31.5547C23.9873 30.1939 24.5268 28.8699 25.565 27.9902C29.4212 24.7223 32.3101 24.3358 37.2065 28.3703C38.0134 29.035 38.5615 29.9724 38.7115 31.007C38.8643 32.0601 38.8973 32.9216 38.8528 33.752C38.748 35.7062 37.215 37.293 35.2924 37.6588C32.5349 38.1834 30.2817 38.2381 27.6621 37.7932C25.4595 37.4192 23.9873 35.3924 23.9873 33.1582V31.5547Z" fill="#DEF1EF"/>
<path d="M24.2373 31.5547C24.2373 30.2579 24.7514 29.0073 25.7266 28.1809C27.6407 26.5589 29.2695 25.6926 30.9958 25.6919C32.7248 25.6911 34.6146 26.5585 37.0476 28.5632C37.8088 29.1904 38.3234 30.0728 38.4641 31.0429C38.6147 32.0807 38.6467 32.9257 38.6031 33.7386C38.5052 35.5658 37.0678 37.0666 35.2457 37.4132C32.5142 37.9329 30.2912 37.9861 27.704 37.5468C25.6398 37.1962 24.2373 35.2899 24.2373 33.1582V31.5547Z" stroke="black" stroke-width="0.5"/>
<path d="M31.6151 29.1628C39.1159 29.1628 45.1965 23.0822 45.1965 15.5814C45.1965 8.0806 39.1159 2 31.6151 2C24.1143 2 18.0337 8.0806 18.0337 15.5814C18.0337 23.0822 24.1143 29.1628 31.6151 29.1628Z" fill="#DEF1EF"/>
<path d="M44.9465 15.5814C44.9465 22.9441 38.9779 28.9128 31.6151 28.9128C24.2524 28.9128 18.2837 22.9441 18.2837 15.5814C18.2837 8.21867 24.2524 2.25 31.6151 2.25C38.9779 2.25 44.9465 8.21867 44.9465 15.5814Z" stroke="black" stroke-width="0.5"/>
<path d="M37.9407 11.6743H30.1267C27.558 11.6743 25.4756 13.7567 25.4756 16.3255V16.3255C25.4756 18.8943 27.558 20.9766 30.1267 20.9766H37.9407C40.5095 20.9766 42.5919 18.8943 42.5919 16.3255C42.5919 13.7567 40.5095 11.6743 37.9407 11.6743Z" fill="#162558"/>
<path d="M30.1267 11.9243H37.9407C40.3714 11.9243 42.3419 13.8948 42.3419 16.3255V16.3255C42.3419 18.7562 40.3714 20.7266 37.9407 20.7266H30.1267C27.6961 20.7266 25.7256 18.7562 25.7256 16.3255V16.3255C25.7256 13.8948 27.6961 11.9243 30.1267 11.9243Z" stroke="#0C1638" stroke-width="0.5"/>
<path d="M26.6546 42.414C26.4927 42.1463 26.6546 40.0229 27.016 40.0229H31.9966C31.9966 40.0229 36.7777 39.8665 36.9772 40.0229C37.1767 40.1793 37.5005 41.8335 37.3386 42.414C37.1767 42.9945 35.3148 44.3588 34.9293 45.124C34.4474 46.0804 33.2334 46.279 31.9966 46.279C30.7598 46.279 29.5458 46.0804 29.0639 45.124C28.6785 44.3588 26.8165 42.6817 26.6546 42.414Z" fill="#DEF1EF"/>
<path d="M26.6546 42.414C26.4927 42.1463 26.6546 40.0229 27.016 40.0229H31.9966C31.9966 40.0229 36.7777 39.8665 36.9772 40.0229C37.1767 40.1793 37.5005 41.8335 37.3386 42.414C37.1767 42.9945 35.3148 44.3588 34.9293 45.124C34.4474 46.0804 33.2334 46.279 31.9966 46.279C30.7598 46.279 29.5458 46.0804 29.0639 45.124C28.6785 44.3588 26.8165 42.6817 26.6546 42.414Z" stroke="black" stroke-width="0.5" stroke-linecap="round" stroke-linejoin="round"/>
<path d="M25.124 44.1949C25.8831 41.6566 28.9308 43.2279 29.2826 45.7735C29.3038 45.9267 29.2888 46.0823 29.2532 46.2329C29.0591 47.055 28.2354 47.564 27.4133 47.3699L26.4813 47.1499C25.4063 46.8961 24.7406 45.8189 24.9944 44.7438L25.124 44.1949Z" fill="#474747"/>
<path d="M25.124 44.1949C25.8831 41.6566 28.9308 43.2279 29.2826 45.7735C29.3038 45.9267 29.2888 46.0823 29.2532 46.2329C29.0591 47.055 28.2354 47.564 27.4133 47.3699L26.4813 47.1499C25.4063 46.8961 24.7406 45.8189 24.9944 44.7438L25.124 44.1949Z" stroke="black" stroke-width="0.5"/>
<path d="M24.1979 48.1166C24.3433 47.5011 24.96 47.12 25.5755 47.2653L27.6106 47.7458C28.283 47.9045 28.6994 48.5783 28.5406 49.2507C28.4442 49.6592 28.1521 50.0067 27.7423 50.0974C26.6636 50.3363 25.829 50.0528 24.665 49.3079C24.2695 49.0548 24.09 48.5736 24.1979 48.1166Z" fill="#474747"/>
<path d="M24.1979 48.1166C24.3433 47.5011 24.96 47.12 25.5755 47.2653L27.6106 47.7458C28.283 47.9045 28.6994 48.5783 28.5406 49.2507C28.4442 49.6592 28.1521 50.0067 27.7423 50.0974C26.6636 50.3363 25.829 50.0528 24.665 49.3079C24.2695 49.0548 24.09 48.5736 24.1979 48.1166Z" stroke="black" stroke-width="0.5"/>
<path d="M22.2598 52.0053C22.7026 51.2938 23.615 51.358 24.3581 51.7455C25.3528 52.2642 26.4298 52.4901 27.7128 52.3566C28.2185 52.304 28.7345 52.4335 28.8201 52.9346C29.0496 54.2772 28.6525 57.199 28.2548 59.8038C28.1404 60.5532 27.6115 61.1842 26.875 61.3639C23.9414 62.0801 22.3876 61.4838 20.5799 59.9085C19.9923 59.3965 19.8116 58.5676 20.0534 57.8266C20.7607 55.6585 21.4109 53.3694 22.2598 52.0053Z" fill="#DEF1EF"/>
<path d="M22.4723 52.1373C22.6443 51.8608 22.9033 51.7328 23.2127 51.7127C23.5312 51.692 23.8993 51.788 24.2427 51.9671C25.2814 52.5087 26.4077 52.7437 27.7389 52.6052C27.9676 52.5814 28.1752 52.6021 28.3243 52.6671C28.4612 52.7267 28.5472 52.8205 28.5739 52.9766C28.6823 53.6109 28.6445 54.6461 28.524 55.8713C28.4044 57.0881 28.2066 58.4641 28.0079 59.766C27.9073 60.4253 27.4445 60.9675 26.816 61.121C25.374 61.473 24.2967 61.4961 23.3687 61.2535C22.4402 61.0109 21.634 60.4953 20.7443 59.72C20.2415 59.2818 20.0767 58.5617 20.2912 57.904C20.4074 57.5481 20.5214 57.1907 20.6347 56.8355C20.8688 56.102 21.0997 55.3782 21.3395 54.6974C21.6954 53.6869 22.0629 52.7951 22.4723 52.1373Z" stroke="black" stroke-width="0.5"/>
<path d="M25.0247 54.38C26.5751 54.7461 28.1288 53.786 28.4948 52.2355C28.8609 50.6851 27.9008 49.1314 26.3503 48.7654C24.7999 48.3993 23.2462 49.3594 22.8801 50.9099C22.5141 52.4603 23.4742 54.014 25.0247 54.38Z" fill="#DEF1EF"/>
<path d="M28.2514 52.178C27.917 53.5941 26.498 54.471 25.082 54.1367C23.6659 53.8023 22.789 52.3834 23.1233 50.9673C23.4576 49.5512 24.8766 48.6743 26.2927 49.0086C27.7088 49.3429 28.5857 50.7619 28.2514 52.178Z" stroke="black" stroke-width="0.5"/>
<path d="M25.8316 61.8323C26.8393 61.8131 27.672 60.9498 27.2686 60.0261C27.0244 59.4668 26.6724 58.9611 26.2327 58.5379C25.793 58.1147 25.2742 57.7822 24.7061 57.5594C24.1379 57.3366 23.5314 57.228 22.9212 57.2396C22.311 57.2512 21.7091 57.3829 21.1498 57.6272C20.5905 57.8714 20.0848 58.2234 19.6616 58.6631C19.2383 59.1028 18.9059 59.6216 18.6831 60.1897C18.3152 61.1281 19.1802 61.959 20.1879 61.9398L23.0097 61.8861L25.8316 61.8323Z" fill="#DEF1EF"/>
<path d="M27.0394 60.1263C27.1987 60.4909 27.1177 60.8372 26.8887 61.1065C26.6542 61.3823 26.2633 61.5741 25.8267 61.5824L23.0049 61.6362L20.1831 61.69C19.7464 61.6983 19.3485 61.5215 19.1037 61.2549C18.8646 60.9945 18.7705 60.6515 18.9157 60.2811C19.1265 59.7435 19.4411 59.2526 19.8416 58.8366C20.2421 58.4206 20.7206 58.0875 21.2498 57.8564C21.779 57.6253 22.3485 57.5006 22.9259 57.4896C23.5032 57.4786 24.0771 57.5815 24.6147 57.7922C25.1523 58.003 25.6432 58.3176 26.0592 58.7181C26.4752 59.1186 26.8083 59.5971 27.0394 60.1263Z" stroke="black" stroke-width="0.5"/>
<path d="M21.6083 16.5818C21.7208 18.8548 22.5977 20.6176 20.3246 20.7301C18.0516 20.8427 16.1177 19.0912 16.0051 16.8181C15.8926 14.5451 17.6441 12.6112 19.9171 12.4986C22.1902 12.3861 21.4957 14.3087 21.6083 16.5818Z" fill="#DEF1EF"/>
<path d="M21.3586 16.5941C21.3839 17.1063 21.4473 17.5932 21.5044 18.032C21.5121 18.0905 21.5196 18.1482 21.5269 18.2049C21.5899 18.6954 21.6351 19.1081 21.6116 19.449C21.5885 19.7854 21.5007 20.0139 21.3308 20.1701C21.1566 20.3302 20.8534 20.4537 20.3123 20.4804C18.1771 20.5861 16.3605 18.9409 16.2548 16.8058C16.1491 14.6706 17.7943 12.854 19.9295 12.7483C20.4684 12.7217 20.7812 12.8188 20.9707 12.9666C21.1574 13.1123 21.2691 13.3421 21.3263 13.6865C21.384 14.0344 21.3802 14.4604 21.3663 14.9621C21.3646 15.0225 21.3628 15.0838 21.361 15.1461C21.3479 15.5926 21.3334 16.0848 21.3586 16.5941Z" stroke="black" stroke-width="0.5"/>
<path d="M37.8266 44.3639C37.4328 41.7439 34.194 42.8699 33.487 45.3405C33.4444 45.4892 33.4373 45.6454 33.4513 45.7995C33.5276 46.6407 34.2713 47.2608 35.1126 47.1845L36.0663 47.098C37.1663 46.9983 37.9772 46.0257 37.8775 44.9256L37.8266 44.3639Z" fill="#474747"/>
<path d="M37.8266 44.3639C37.4328 41.7439 34.194 42.8699 33.487 45.3405C33.4444 45.4892 33.4373 45.6454 33.4513 45.7995C33.5276 46.6407 34.2713 47.2608 35.1126 47.1845L36.0663 47.098C37.1663 46.9983 37.9772 46.0257 37.8775 44.9256L37.8266 44.3639Z" stroke="black" stroke-width="0.5"/>
<path d="M38.191 48.377C38.1339 47.7472 37.577 47.2829 36.9472 47.34L34.8647 47.5289C34.1766 47.5913 33.6694 48.1996 33.7318 48.8877C33.7697 49.3057 34.0099 49.6909 34.4028 49.8385C35.4371 50.227 36.3033 50.064 37.5607 49.4906C37.9879 49.2957 38.2334 48.8447 38.191 48.377Z" fill="#474747"/>
<path d="M38.191 48.377C38.1339 47.7472 37.577 47.2829 36.9472 47.34L34.8647 47.5289C34.1766 47.5913 33.6694 48.1996 33.7318 48.8877C33.7697 49.3057 34.0099 49.6909 34.4028 49.8385C35.4371 50.227 36.3033 50.064 37.5607 49.4906C37.9879 49.2957 38.2334 48.8447 38.191 48.377Z" stroke="black" stroke-width="0.5"/>
<path d="M39.5613 52.5001C39.2232 51.7332 38.3109 51.6682 37.5206 51.9471C36.4627 52.3203 35.3646 52.3922 34.1132 52.0792C33.62 51.9559 33.0909 52.0113 32.9355 52.4953C32.5191 53.7922 32.5004 56.7408 32.5269 59.3756C32.5345 60.1337 32.9692 60.8329 33.673 61.1147C36.4764 62.2372 38.0987 61.8659 40.1104 60.5612C40.7644 60.137 41.0601 59.3419 40.9252 58.5742C40.5305 56.3281 40.2095 53.9702 39.5613 52.5001Z" fill="#DEF1EF"/>
<path d="M39.3325 52.6009C39.2012 52.3029 38.9629 52.1397 38.6593 52.0761C38.3469 52.0107 37.969 52.054 37.6038 52.1828C36.4991 52.5726 35.3509 52.6465 34.0526 52.3217C33.8295 52.2659 33.621 52.2572 33.4643 52.3005C33.3204 52.3402 33.222 52.421 33.1735 52.5718C32.9768 53.1844 32.8683 54.2147 32.8149 55.4446C32.7617 56.6661 32.7636 58.0563 32.7769 59.3731C32.7836 60.04 33.1652 60.6421 33.7659 60.8826C35.1438 61.4343 36.2071 61.6091 37.1601 61.4998C38.1135 61.3904 38.9843 60.9936 39.9744 60.3514C40.534 59.9885 40.7987 59.2988 40.6789 58.6175C40.6141 58.2487 40.5516 57.8788 40.4895 57.5112C40.3612 56.752 40.2346 56.0029 40.0931 55.2951C39.8832 54.2445 39.6451 53.3098 39.3325 52.6009Z" stroke="black" stroke-width="0.5"/>
<path d="M36.4895 54.4613C34.903 54.6052 33.5002 53.4356 33.3563 51.849C33.2124 50.2625 34.382 48.8597 35.9686 48.7158C37.5551 48.5719 38.9579 49.7415 39.1018 51.3281C39.2457 52.9146 38.0761 54.3174 36.4895 54.4613Z" fill="#DEF1EF"/>
<path d="M33.6057 51.8265C33.7371 53.2755 35.0183 54.3437 36.4674 54.2123C37.9164 54.0809 38.9846 52.7997 38.8532 51.3506C38.7218 49.9016 37.4406 48.8334 35.9915 48.9648C34.5425 49.0962 33.4743 50.3774 33.6057 51.8265Z" stroke="black" stroke-width="0.5"/>
<path d="M37.2355 62.0265C36.2277 62.0127 35.3904 61.1539 35.7888 60.2281C36.03 59.6675 36.3793 59.1599 36.8167 58.7343C37.2542 58.3087 37.7711 57.9734 38.3381 57.7476C38.9051 57.5218 39.511 57.4099 40.1212 57.4182C40.7314 57.4266 41.3341 57.5551 41.8947 57.7963C42.4552 58.0376 42.9628 58.3869 43.3884 58.8243C43.814 59.2617 44.1493 59.7786 44.3751 60.3456C44.748 61.282 43.8875 62.1175 42.8797 62.1037L40.0576 62.0651L37.2355 62.0265Z" fill="#DEF1EF"/>
<path d="M36.0183 60.3268C35.8611 60.6923 35.9439 61.0381 36.1743 61.3062C36.4103 61.5807 36.8022 61.7704 37.2389 61.7764L40.0609 61.815L42.883 61.8537C43.3197 61.8596 43.7166 61.6808 43.96 61.4128C44.1977 61.1511 44.2899 60.8076 44.1427 60.438C43.9291 59.9015 43.6118 59.4124 43.2091 58.9985C42.8064 58.5846 42.3262 58.2541 41.7957 58.0258C41.2653 57.7976 40.6951 57.676 40.1177 57.6681C39.5403 57.6602 38.967 57.7661 38.4305 57.9798C37.894 58.1934 37.4049 58.5107 36.991 58.9134C36.5771 59.3161 36.2466 59.7964 36.0183 60.3268Z" stroke="black" stroke-width="0.5"/>
<path d="M38.3131 18.7441C39.4434 18.7441 40.3596 17.8279 40.3596 16.6976C40.3596 15.5674 39.4434 14.6511 38.3131 14.6511C37.1829 14.6511 36.2666 15.5674 36.2666 16.6976C36.2666 17.8279 37.1829 18.7441 38.3131 18.7441Z" fill="#37FAFD" fill-opacity="0.52"/>
<path d="M30.4991 18.7441C31.6294 18.7441 32.5457 17.8279 32.5457 16.6976C32.5457 15.5674 31.6294 14.6511 30.4991 14.6511C29.3689 14.6511 28.4526 15.5674 28.4526 16.6976C28.4526 17.8279 29.3689 18.7441 30.4991 18.7441Z" fill="#37FAFD" fill-opacity="0.52"/>
<path d="M35.3366 19.4884L34.4063 18.5581L33.4761 19.4884" stroke="#37FAFD" stroke-width="0.5" stroke-linecap="round" stroke-linejoin="round"/>
<path d="M39.2433 13.907L35.8945 16.1395" stroke="#37FAFD" stroke-width="0.5" stroke-linecap="round" stroke-linejoin="round"/>
<path d="M29.5688 14.2791L32.9177 16.5116" stroke="#37FAFD" stroke-width="0.5" stroke-linecap="round" stroke-linejoin="round"/>
<path d="M38.3131 18.7441C39.4434 18.7441 40.3596 17.8279 40.3596 16.6976C40.3596 15.5674 39.4434 14.6511 38.3131 14.6511C37.1829 14.6511 36.2666 15.5674 36.2666 16.6976C36.2666 17.8279 37.1829 18.7441 38.3131 18.7441Z" fill="#37FAFD"/>
<path d="M30.4991 18.7441C31.6294 18.7441 32.5457 17.8279 32.5457 16.6976C32.5457 15.5674 31.6294 14.6511 30.4991 14.6511C29.3689 14.6511 28.4526 15.5674 28.4526 16.6976C28.4526 17.8279 29.3689 18.7441 30.4991 18.7441Z" fill="#37FAFD"/>
<path d="M35.3361 19.4884L34.4058 18.5581L33.4756 19.4884" stroke="#37FAFD" stroke-width="0.5" stroke-linecap="round" stroke-linejoin="round"/>
<path d="M39.2433 13.907L35.8945 16.1395" stroke="#37FAFD" stroke-width="0.5" stroke-linecap="round" stroke-linejoin="round"/>
<path d="M29.5688 14.2791L32.9177 16.5116" stroke="#37FAFD" stroke-width="0.5" stroke-linecap="round" stroke-linejoin="round"/>
<path d="M36.6385 24.3257C36.1384 24.3257 32.9572 24.3257 31.4292 24.3257" stroke="#0C1638" stroke-width="0.5" stroke-linecap="round" stroke-linejoin="round"/>
<path d="M36.2664 25.0698C35.7663 25.0698 32.5852 25.0698 31.0571 25.0698" stroke="#0C1638" stroke-width="0.5" stroke-linecap="round" stroke-linejoin="round"/>
<path d="M34.778 25.814C34.4923 25.814 32.6745 25.814 31.8013 25.814" stroke="#0C1638" stroke-width="0.5" stroke-linecap="round" stroke-linejoin="round"/>
<path d="M45.2589 41.2306C44.4486 41.9786 42.8294 41.107 42.1211 40.5777L43.9575 38.8319C44.3236 38.9081 45.2009 38.9924 45.7813 38.7203C46.3617 38.4483 46.69 39.0731 46.7816 39.4195C46.6117 39.7116 46.0693 40.4826 45.2589 41.2306Z" fill="#DEF1EF"/>
<path d="M45.2589 41.2306C44.4486 41.9786 42.8294 41.107 42.1211 40.5777L43.9575 38.8319C44.3236 38.9081 45.2009 38.9924 45.7813 38.7203C46.3617 38.4483 46.69 39.0731 46.7816 39.4195C46.6117 39.7116 46.0693 40.4826 45.2589 41.2306Z" stroke="black" stroke-width="0.5" stroke-linecap="round" stroke-linejoin="round"/>
<path d="M44.304 38.7403C44.5925 37.3539 43.8429 36.0254 42.6298 35.773C41.4168 35.5205 40.1995 36.4398 39.911 37.8262C39.6225 39.2125 40.3721 40.5411 41.5852 40.7935C42.7982 41.0459 44.0155 40.1266 44.304 38.7403Z" fill="#DEF1EF"/>
<path d="M42.5788 36.0179C43.627 36.236 44.3261 37.4066 44.0591 38.6895C43.7922 39.9724 42.6842 40.767 41.636 40.5489C40.5877 40.3307 39.8887 39.1602 40.1557 37.8772C40.4226 36.5943 41.5306 35.7997 42.5788 36.0179Z" stroke="black" stroke-width="0.5"/>
<path d="M43.3192 36.2781C42.769 36.3254 42.2846 35.9177 42.2373 35.3674L42.2273 35.2508C42.187 34.7821 42.4788 34.3487 42.9283 34.2098L44.7681 33.6411C45.3106 33.4734 45.8836 33.7905 46.0297 34.339L46.1673 34.8553C46.3274 35.4561 45.9061 36.0559 45.2866 36.1091L43.3192 36.2781Z" fill="#DEF1EF"/>
<path d="M43.3192 36.2781C42.769 36.3254 42.2846 35.9177 42.2373 35.3674L42.2273 35.2508C42.187 34.7821 42.4788 34.3487 42.9283 34.2098L44.7681 33.6411C45.3106 33.4734 45.8836 33.7905 46.0297 34.339L46.1673 34.8553C46.3274 35.4561 45.9061 36.0559 45.2866 36.1091L43.3192 36.2781Z" stroke="black" stroke-width="0.5"/>
<path d="M30.0987 34.6386C30.5134 32.6457 29.234 30.6939 27.2411 30.2792C25.2482 29.8645 23.2964 31.1439 22.8817 33.1369C22.467 35.1298 23.7464 37.0815 25.7394 37.4962C27.7323 37.9109 29.684 36.6315 30.0987 34.6386Z" fill="#DEF1EF"/>
<path d="M29.8537 34.5877C30.2403 32.7299 29.0476 30.9105 27.1899 30.524C25.3321 30.1374 23.5128 31.33 23.1262 33.1878C22.7396 35.0455 23.9323 36.8649 25.79 37.2515C27.6477 37.638 29.4671 36.4454 29.8537 34.5877Z" stroke="black" stroke-width="0.5"/>
<path d="M28.379 33.4623L27.9872 35.345C27.843 36.0382 28.288 36.717 28.9812 36.8613C29.6744 37.0055 30.3533 36.5605 30.4975 35.8673L30.8893 33.9846C31.0335 33.2914 30.5885 32.6126 29.8953 32.4683C29.2021 32.3241 28.5232 32.7691 28.379 33.4623Z" fill="#474747" stroke="black" stroke-width="0.5"/>
<path d="M31.6713 37.4211C31.0522 37.2923 30.6547 36.6859 30.7835 36.0668L31.2095 34.0196C31.3503 33.3432 32.0127 32.909 32.6891 33.0497C33.1 33.1352 33.4552 33.4179 33.5568 33.8251C33.8244 34.8971 33.5633 35.739 32.8497 36.9224C32.6072 37.3245 32.131 37.5168 31.6713 37.4211Z" fill="#474747" stroke="black" stroke-width="0.5"/>
<path d="M33.9395 38.9273C32.9098 38.3646 32.7709 37.0527 33.1042 35.9276C33.1729 35.6959 33.2188 35.4579 33.2419 35.2057C33.3464 34.0664 33.9766 32.9407 35.1132 32.8104C37.0206 32.5919 38.588 32.6283 40.6685 32.8547C41.4221 32.9368 42.0673 33.4516 42.2667 34.1829C43.0609 37.0964 42.5064 38.6656 40.9799 40.5147C40.4837 41.1158 39.658 41.3226 38.9201 41.0715C37.0627 40.4393 35.648 39.861 33.9395 38.9273Z" fill="#DEF1EF"/>
<path d="M34.0594 38.7078C33.1898 38.2325 33.0216 37.0871 33.344 35.9986C33.4174 35.7508 33.4664 35.4967 33.491 35.2285C33.5914 34.134 34.1828 33.1686 35.1418 33.0587C37.0263 32.8428 38.5745 32.8782 40.6415 33.1032C41.3007 33.1749 41.8552 33.6236 42.0256 34.2486C42.416 35.6806 42.4679 36.7569 42.2502 37.6911C42.0324 38.6257 41.5385 39.4454 40.7872 40.3555C40.3617 40.871 39.6471 41.0547 39.0008 40.8347C37.153 40.2058 35.7522 39.6329 34.0594 38.7078Z" stroke="black" stroke-width="0.5"/>
</svg>
