<svg width="64" height="64" viewBox="0 0 64 64" fill="none" xmlns="http://www.w3.org/2000/svg">
<path d="M41.4373 17.3258C41.3248 19.5989 40.4479 21.3617 42.721 21.4742C44.994 21.5867 46.9279 19.8353 47.0405 17.5622C47.153 15.2892 45.4015 13.3553 43.1285 13.2427C40.8554 13.1302 41.5498 15.0528 41.4373 17.3258Z" fill="#DEF1EF"/>
<path d="M41.6871 17.3382C41.6618 17.8503 41.5984 18.3373 41.5412 18.7761C41.5336 18.8346 41.5261 18.8923 41.5188 18.949C41.4558 19.4395 41.4106 19.8522 41.434 20.1931C41.4572 20.5295 41.545 20.758 41.7149 20.9141C41.8891 21.0743 42.1923 21.1977 42.7334 21.2245C44.8686 21.3302 46.6852 19.685 46.7909 17.5499C46.8966 15.4147 45.2514 13.5981 43.1162 13.4924C42.5773 13.4657 42.2644 13.5629 42.075 13.7107C41.8883 13.8563 41.7766 14.0861 41.7194 14.4306C41.6617 14.7784 41.6655 15.2045 41.6794 15.7062C41.6811 15.7666 41.6829 15.8279 41.6847 15.8902C41.6978 16.3367 41.7123 16.8289 41.6871 17.3382Z" stroke="black" stroke-width="0.5"/>
<path d="M37.4498 34.6697L39.1985 33.8696C39.8423 33.575 40.6031 33.8581 40.8977 34.502C41.1923 35.1458 40.9092 35.9065 40.2653 36.2012L38.5167 37.0013C37.8728 37.2959 37.1121 37.0128 36.8175 36.3689C36.5229 35.7251 36.806 34.9643 37.4498 34.6697Z" fill="#474747" stroke="black" stroke-width="0.5"/>
<path d="M42.041 37.0005C41.7778 36.4254 41.0984 36.1725 40.5233 36.4357L38.6219 37.3057C37.9936 37.5931 37.7174 38.3355 38.0048 38.9637C38.1795 39.3454 38.534 39.6289 38.9536 39.6375C40.0582 39.6604 40.8211 39.2188 41.8165 38.2602C42.1547 37.9344 42.2364 37.4275 42.041 37.0005Z" fill="#474747" stroke="black" stroke-width="0.5"/>
<path d="M48.7733 49.4027C49.3227 48.4464 48.1132 47.0613 47.4398 46.4883L46.1455 48.6666C46.3011 49.0066 46.5781 49.8432 46.4418 50.4696C46.3054 51.0959 46.9876 51.2772 47.3457 51.2896C47.5927 51.0591 48.224 50.359 48.7733 49.4027Z" fill="#DEF1EF" stroke="black" stroke-width="0.5" stroke-linecap="round" stroke-linejoin="round"/>
<path d="M43.0957 47.9476C43.5412 48.9212 44.8378 49.3428 46.0294 48.7976C47.221 48.2523 47.7496 46.9956 47.3041 46.022C46.8587 45.0484 45.5621 44.6268 44.3705 45.172C43.1789 45.7172 42.6502 46.974 43.0957 47.9476Z" fill="#DEF1EF" stroke="black" stroke-width="0.5"/>
<path d="M43.514 48.6113C43.4379 48.0643 42.9327 47.6825 42.3857 47.7587L42.2698 47.7748C41.8039 47.8396 41.4461 48.2204 41.4105 48.6895L41.2646 50.6097C41.2216 51.1758 41.658 51.6641 42.2254 51.6848L42.7593 51.7042C43.3807 51.7269 43.8718 51.1829 43.7861 50.5671L43.514 48.6113Z" fill="#DEF1EF" stroke="black" stroke-width="0.5"/>
<path d="M38.9787 36.0852C37.1277 36.9321 34.9405 36.1182 34.0936 34.2671C33.2466 32.4161 34.0606 30.2289 35.9116 29.382C37.7626 28.535 39.9498 29.3489 40.7968 31.2C41.6437 33.051 40.8298 35.2382 38.9787 36.0852Z" fill="#DEF1EF"/>
<path d="M34.3211 34.163C35.1106 35.8885 37.1494 36.6472 38.8749 35.8577C40.6004 35.0682 41.3592 33.0294 40.5696 31.3039C39.7801 29.5784 37.7413 28.8197 36.0158 29.6092C34.2903 30.3987 33.5316 32.4375 34.3211 34.163Z" stroke="black" stroke-width="0.5"/>
<path d="M44.0137 38.8775C43.2364 37.9986 41.9264 38.1545 40.9035 38.7294C40.6927 38.8478 40.4709 38.9454 40.2302 39.024C39.1426 39.3789 38.1849 40.2433 38.3104 41.3805C38.5209 43.2888 38.9045 44.809 39.5874 46.7872C39.8348 47.5038 40.48 48.0186 41.2374 48.0505C44.2545 48.1778 45.6613 47.2886 47.1252 45.3896C47.6011 44.7723 47.6193 43.9212 47.2106 43.2576C46.1816 41.5869 45.3036 40.336 44.0137 38.8775Z" fill="#DEF1EF"/>
<path d="M43.8262 39.0431C43.1697 38.3008 42.0155 38.3912 41.0258 38.9473C40.8005 39.0739 40.5637 39.1781 40.3076 39.2617C39.2627 39.6026 38.4528 40.3937 38.5586 41.3531C38.7666 43.2385 39.145 44.7402 39.8235 46.7057C40.0398 47.3324 40.6005 47.7735 41.2477 47.8008C42.7307 47.8633 43.7917 47.6749 44.6542 47.2551C45.517 46.8352 46.2065 46.1716 46.927 45.2369C47.3351 44.7075 47.3555 43.97 46.9975 43.3887C45.9739 41.7267 45.1042 40.4881 43.8262 39.0431Z" stroke="black" stroke-width="0.5"/>
<path d="M34.7682 36.4224H28.9991C28.0255 36.4224 27.2363 37.2116 27.2363 38.1851C27.2363 39.1587 28.0255 39.9479 28.9991 39.9479H34.7682C35.7417 39.9479 36.5309 39.1587 36.5309 38.1851C36.5309 37.2116 35.7417 36.4224 34.7682 36.4224Z" fill="#474747" stroke="black" stroke-width="0.5"/>
<path d="M23.9873 31.5547C23.9873 30.1939 24.5268 28.8699 25.565 27.9902C29.4212 24.7223 32.3101 24.3358 37.2065 28.3703C38.0134 29.035 38.5615 29.9724 38.7115 31.007C38.8643 32.0601 38.8973 32.9216 38.8528 33.752C38.748 35.7062 37.215 37.293 35.2924 37.6588C32.5349 38.1834 30.2817 38.2381 27.6621 37.7932C25.4595 37.4192 23.9873 35.3924 23.9873 33.1582V31.5547Z" fill="#DEF1EF"/>
<path d="M24.2373 31.5547C24.2373 30.2579 24.7514 29.0073 25.7266 28.1809C27.6407 26.5589 29.2695 25.6926 30.9958 25.6919C32.7248 25.6911 34.6146 26.5585 37.0476 28.5632C37.8088 29.1904 38.3234 30.0728 38.4641 31.0429C38.6147 32.0807 38.6467 32.9257 38.6031 33.7386C38.5052 35.5658 37.0678 37.0666 35.2457 37.4132C32.5142 37.9329 30.2912 37.9861 27.704 37.5468C25.6398 37.1962 24.2373 35.2899 24.2373 33.1582V31.5547Z" stroke="black" stroke-width="0.5"/>
<path d="M31.6151 29.1628C39.1159 29.1628 45.1965 23.0822 45.1965 15.5814C45.1965 8.0806 39.1159 2 31.6151 2C24.1143 2 18.0337 8.0806 18.0337 15.5814C18.0337 23.0822 24.1143 29.1628 31.6151 29.1628Z" fill="#DEF1EF"/>
<path d="M44.9465 15.5814C44.9465 22.9441 38.9779 28.9128 31.6151 28.9128C24.2524 28.9128 18.2837 22.9441 18.2837 15.5814C18.2837 8.21867 24.2524 2.25 31.6151 2.25C38.9779 2.25 44.9465 8.21867 44.9465 15.5814Z" stroke="black" stroke-width="0.5"/>
<path d="M37.9407 11.6743H30.1267C27.558 11.6743 25.4756 13.7567 25.4756 16.3255V16.3255C25.4756 18.8943 27.558 20.9766 30.1267 20.9766H37.9407C40.5095 20.9766 42.5919 18.8943 42.5919 16.3255C42.5919 13.7567 40.5095 11.6743 37.9407 11.6743Z" fill="#162558"/>
<path d="M30.1267 11.9243H37.9407C40.3714 11.9243 42.3419 13.8948 42.3419 16.3255V16.3255C42.3419 18.7562 40.3714 20.7266 37.9407 20.7266H30.1267C27.6961 20.7266 25.7256 18.7562 25.7256 16.3255V16.3255C25.7256 13.8948 27.6961 11.9243 30.1267 11.9243Z" stroke="#0C1638" stroke-width="0.5"/>
<path d="M16.5301 51.0419C15.7718 50.2411 16.6227 48.611 17.1429 47.896L18.912 49.71C18.8405 50.077 18.7673 50.9553 19.0468 51.5322C19.3262 52.1091 18.7056 52.4453 18.3604 52.5413C18.0662 52.3752 17.2883 51.8427 16.5301 51.0419Z" fill="#DEF1EF"/>
<path d="M16.5301 51.0419C15.7718 50.2411 16.6227 48.611 17.1429 47.896L18.912 49.71C18.8405 50.077 18.7673 50.9553 19.0468 51.5322C19.3262 52.1091 18.7056 52.4453 18.3604 52.5413C18.0662 52.3752 17.2883 51.8427 16.5301 51.0419Z" stroke="black" stroke-width="0.5" stroke-linecap="round" stroke-linejoin="round"/>
<path d="M19.0078 50.0552C20.3978 50.326 21.7166 49.5595 21.9536 48.3433C22.1905 47.1271 21.2558 45.9217 19.8658 45.6509C18.4759 45.3802 17.1571 46.1466 16.9201 47.3628C16.6832 48.579 17.6179 49.7844 19.0078 50.0552Z" fill="#DEF1EF"/>
<path d="M21.7081 48.2957C21.5034 49.3466 20.3418 50.0605 19.0556 49.8099C17.7693 49.5594 16.9607 48.4616 17.1654 47.4107C17.3702 46.3598 18.5317 45.6459 19.818 45.8965C21.1042 46.147 21.9128 47.2448 21.7081 48.2957Z" stroke="black" stroke-width="0.5"/>
<path d="M21.4571 49.0391C21.4028 48.4895 21.8043 47.9999 22.3539 47.9456L22.4704 47.9341C22.9386 47.8878 23.3756 48.1741 23.5203 48.6218L24.1124 50.4542C24.287 50.9945 23.9773 51.5715 23.4306 51.7246L22.9161 51.8687C22.3174 52.0365 21.7123 51.6229 21.6512 51.0041L21.4571 49.0391Z" fill="#DEF1EF"/>
<path d="M21.4571 49.0391C21.4028 48.4895 21.8043 47.9999 22.3539 47.9456L22.4704 47.9341C22.9386 47.8878 23.3756 48.1741 23.5203 48.6218L24.1124 50.4542C24.287 50.9945 23.9773 51.5715 23.4306 51.7246L22.9161 51.8687C22.3174 52.0365 21.7123 51.6229 21.6512 51.0041L21.4571 49.0391Z" stroke="black" stroke-width="0.5"/>
<path d="M22.928 35.7985C24.926 36.1877 26.8613 34.8835 27.2505 32.8855C27.6397 30.8874 26.3356 28.9522 24.3375 28.5629C22.3395 28.1737 20.4042 29.4779 20.0149 31.4759C19.6257 33.474 20.9299 35.4093 22.928 35.7985Z" fill="#DEF1EF"/>
<path d="M22.9759 35.5531C24.8384 35.916 26.6425 34.7002 27.0053 32.8377C27.3681 30.9752 26.1524 29.1712 24.2899 28.8083C22.4274 28.4455 20.6233 29.6612 20.2605 31.5238C19.8977 33.3863 21.1134 35.1903 22.9759 35.5531Z" stroke="black" stroke-width="0.5"/>
<path d="M24.0824 34.0643L22.1949 33.6966C21.4999 33.5612 20.8268 34.0148 20.6914 34.7098C20.556 35.4047 21.0096 36.0779 21.7046 36.2133L23.5921 36.581C24.2871 36.7164 24.9603 36.2627 25.0956 35.5678C25.231 34.8728 24.7774 34.1997 24.0824 34.0643Z" fill="#474747" stroke="black" stroke-width="0.5"/>
<path d="M20.1658 37.4068C20.2868 36.786 20.888 36.3809 21.5087 36.5018L23.5611 36.9016C24.2393 37.0337 24.6819 37.6906 24.5498 38.3687C24.4696 38.7806 24.1914 39.1394 23.7856 39.2462C22.7171 39.5275 21.872 39.2772 20.6795 38.5787C20.2743 38.3414 20.076 37.8677 20.1658 37.4068Z" fill="#474747" stroke="black" stroke-width="0.5"/>
<path d="M18.689 39.694C19.2385 38.6572 20.5485 38.5016 21.6777 38.8205C21.9104 38.8862 22.1489 38.9291 22.4013 38.949C23.5419 39.039 24.6756 39.6547 24.8203 40.7896C25.0632 42.694 25.0468 44.2618 24.8469 46.345C24.7745 47.0996 24.268 47.7513 23.5392 47.96C20.636 48.7913 19.0599 48.2568 17.1915 46.7541C16.5841 46.2656 16.3668 45.4426 16.6085 44.7016C17.217 42.8362 17.7771 41.4143 18.689 39.694Z" fill="#DEF1EF"/>
<path d="M18.9094 39.8111C19.3735 38.9355 20.5168 38.7527 21.6094 39.0612C21.858 39.1314 22.1127 39.1772 22.3813 39.1983C23.4769 39.2848 24.4497 39.8639 24.5718 40.8213C24.8118 42.7029 24.7961 44.2515 24.5975 46.3212C24.5342 46.9812 24.0927 47.5415 23.4699 47.7198C22.043 48.1284 20.9675 48.194 20.0306 47.9882C19.0932 47.7824 18.2673 47.299 17.3477 46.5594C16.8268 46.1404 16.634 45.4283 16.8457 44.7792C17.451 42.9235 18.006 41.5156 18.9094 39.8111Z" stroke="black" stroke-width="0.5"/>
<path d="M26.6546 42.414C26.4927 42.1463 26.6546 40.0229 27.016 40.0229H31.9966C31.9966 40.0229 36.7777 39.8665 36.9772 40.0229C37.1767 40.1793 37.5005 41.8335 37.3386 42.414C37.1767 42.9945 35.3147 44.3588 34.9292 45.124C34.4474 46.0804 33.2334 46.279 31.9966 46.279C30.7598 46.279 29.5458 46.0804 29.0639 45.124C28.6784 44.3588 26.8165 42.6817 26.6546 42.414Z" fill="#DEF1EF"/>
<path d="M26.6546 42.414C26.4927 42.1463 26.6546 40.0229 27.016 40.0229H31.9966C31.9966 40.0229 36.7777 39.8665 36.9772 40.0229C37.1767 40.1793 37.5005 41.8335 37.3386 42.414C37.1767 42.9945 35.3147 44.3588 34.9292 45.124C34.4474 46.0804 33.2334 46.279 31.9966 46.279C30.7598 46.279 29.5458 46.0804 29.0639 45.124C28.6784 44.3588 26.8165 42.6817 26.6546 42.414Z" stroke="black" stroke-width="0.5" stroke-linecap="round" stroke-linejoin="round"/>
<path d="M25.927 44.3444C26.3207 41.7244 29.5595 42.8504 30.2666 45.321C30.3091 45.4697 30.3162 45.6259 30.3023 45.78C30.226 46.6212 29.4822 47.2413 28.641 47.165L27.6873 47.0786C26.5872 46.9788 25.7763 46.0062 25.876 44.9061L25.927 44.3444Z" fill="#474747"/>
<path d="M25.927 44.3444C26.3207 41.7244 29.5595 42.8504 30.2666 45.321C30.3091 45.4697 30.3162 45.6259 30.3023 45.78C30.226 46.6212 29.4822 47.2413 28.641 47.165L27.6873 47.0786C26.5872 46.9788 25.7763 46.0062 25.876 44.9061L25.927 44.3444Z" stroke="black" stroke-width="0.5"/>
<path d="M25.5633 48.3577C25.6204 47.7278 26.1773 47.2636 26.8071 47.3207L28.8895 47.5095C29.5776 47.5719 30.0848 48.1802 30.0224 48.8683C29.9845 49.2863 29.7444 49.6715 29.3515 49.8191C28.3172 50.2076 27.451 50.0446 26.1936 49.4712C25.7664 49.2764 25.5209 48.8253 25.5633 48.3577Z" fill="#474747"/>
<path d="M25.5633 48.3577C25.6204 47.7278 26.1773 47.2636 26.8071 47.3207L28.8895 47.5095C29.5776 47.5719 30.0848 48.1802 30.0224 48.8683C29.9845 49.2863 29.7444 49.6715 29.3515 49.8191C28.3172 50.2076 27.451 50.0446 26.1936 49.4712C25.7664 49.2764 25.5209 48.8253 25.5633 48.3577Z" stroke="black" stroke-width="0.5"/>
<path d="M24.1922 52.4805C24.5303 51.7136 25.4426 51.6486 26.2329 51.9275C27.2908 52.3008 28.3889 52.3726 29.6403 52.0596C30.1335 51.9363 30.6626 51.9917 30.818 52.4758C31.2345 53.7726 31.2532 56.7212 31.2267 59.3561C31.219 60.1141 30.7843 60.8133 30.0806 61.0951C27.2771 62.2176 25.6548 61.8463 23.6431 60.5416C22.9892 60.1175 22.6935 59.3223 22.8284 58.5546C23.2231 56.3085 23.5441 53.9506 24.1922 52.4805Z" fill="#DEF1EF"/>
<path d="M24.4211 52.5813C24.5525 52.2833 24.7908 52.1201 25.0943 52.0565C25.4067 51.9912 25.7846 52.0344 26.1498 52.1632C27.2546 52.553 28.4027 52.6269 29.7011 52.3022C29.9241 52.2464 30.1326 52.2376 30.2894 52.2809C30.4333 52.3206 30.5317 52.4014 30.5801 52.5522C30.7768 53.1648 30.8853 54.1951 30.9388 55.425C30.9919 56.6465 30.99 58.0367 30.9768 59.3535C30.9701 60.0204 30.5884 60.6225 29.9877 60.863C28.6098 61.4147 27.5465 61.5895 26.5935 61.4802C25.6402 61.3708 24.7694 60.974 23.7792 60.3318C23.2196 59.9689 22.955 59.2792 23.0747 58.5979C23.1395 58.2292 23.202 57.8592 23.2642 57.4916C23.3925 56.7325 23.5191 55.9833 23.6605 55.2756C23.8705 54.2249 24.1086 53.2902 24.4211 52.5813Z" stroke="black" stroke-width="0.5"/>
<path d="M27.2644 54.442C28.8509 54.5859 30.2537 53.4163 30.3976 51.8298C30.5415 50.2432 29.3719 48.8404 27.7853 48.6965C26.1988 48.5527 24.796 49.7222 24.6521 51.3088C24.5083 52.8954 25.6778 54.2981 27.2644 54.442Z" fill="#DEF1EF"/>
<path d="M30.1487 51.8072C30.0173 53.2563 28.736 54.3244 27.287 54.193C25.8379 54.0617 24.7697 52.7804 24.9011 51.3314C25.0325 49.8823 26.3137 48.8141 27.7628 48.9455C29.2119 49.0769 30.2801 50.3581 30.1487 51.8072Z" stroke="black" stroke-width="0.5"/>
<path d="M29.8001 62.0072C30.8079 61.9934 31.6453 61.1346 31.2469 60.2088C31.0056 59.6482 30.6563 59.1406 30.2189 58.715C29.7815 58.2894 29.2645 57.9541 28.6976 57.7283C28.1306 57.5025 27.5247 57.3906 26.9144 57.3989C26.3042 57.4073 25.7016 57.5358 25.141 57.777C24.5804 58.0183 24.0728 58.3676 23.6472 58.805C23.2216 59.2424 22.8864 59.7593 22.6606 60.3263C22.2876 61.2627 23.1482 62.0982 24.156 62.0844L26.978 62.0458L29.8001 62.0072Z" fill="#DEF1EF"/>
<path d="M31.0175 60.3075C31.1748 60.673 31.092 61.0188 30.8615 61.2869C30.6256 61.5614 30.2337 61.7511 29.797 61.7571L26.9749 61.7957L24.1529 61.8344C23.7162 61.8403 23.3193 61.6616 23.0758 61.3936C22.8382 61.1319 22.7459 60.7884 22.8931 60.4188C23.1068 59.8823 23.424 59.3931 23.8267 58.9792C24.2294 58.5653 24.7097 58.2348 25.2401 58.0065C25.7706 57.7783 26.3407 57.6567 26.9182 57.6488C27.4956 57.6409 28.0689 57.7468 28.6054 57.9605C29.1418 58.1741 29.631 58.4914 30.0449 58.8941C30.4587 59.2968 30.7892 59.777 31.0175 60.3075Z" stroke="black" stroke-width="0.5"/>
<path d="M21.6083 16.5818C21.7208 18.8548 22.5977 20.6176 20.3246 20.7301C18.0516 20.8427 16.1177 19.0912 16.0051 16.8181C15.8926 14.5451 17.6441 12.6112 19.9171 12.4986C22.1902 12.3861 21.4957 14.3087 21.6083 16.5818Z" fill="#DEF1EF"/>
<path d="M21.3586 16.5941C21.3839 17.1063 21.4473 17.5932 21.5044 18.032C21.5121 18.0905 21.5196 18.1482 21.5269 18.2049C21.5899 18.6954 21.6351 19.1081 21.6116 19.449C21.5885 19.7854 21.5007 20.0139 21.3308 20.1701C21.1566 20.3302 20.8534 20.4537 20.3123 20.4804C18.1771 20.5861 16.3605 18.9409 16.2548 16.8058C16.1491 14.6706 17.7943 12.854 19.9295 12.7483C20.4684 12.7217 20.7812 12.8188 20.9707 12.9666C21.1574 13.1122 21.2691 13.3421 21.3263 13.6865C21.384 14.0344 21.3802 14.4604 21.3663 14.9621C21.3646 15.0225 21.3628 15.0838 21.361 15.1461C21.3479 15.5926 21.3334 16.0848 21.3586 16.5941Z" stroke="black" stroke-width="0.5"/>
<path d="M37.8266 44.3639C37.4328 41.7439 34.194 42.8699 33.487 45.3405C33.4444 45.4892 33.4373 45.6454 33.4513 45.7994C33.5276 46.6407 34.2713 47.2608 35.1126 47.1845L36.0663 47.098C37.1663 46.9983 37.9772 46.0257 37.8775 44.9256L37.8266 44.3639Z" fill="#474747"/>
<path d="M37.8266 44.3639C37.4328 41.7439 34.194 42.8699 33.487 45.3405C33.4444 45.4892 33.4373 45.6454 33.4513 45.7994C33.5276 46.6407 34.2713 47.2608 35.1126 47.1845L36.0663 47.098C37.1663 46.9983 37.9772 46.0257 37.8775 44.9256L37.8266 44.3639Z" stroke="black" stroke-width="0.5"/>
<path d="M38.191 48.377C38.1338 47.7472 37.577 47.2829 36.9472 47.34L34.8647 47.5289C34.1766 47.5913 33.6694 48.1996 33.7318 48.8877C33.7697 49.3057 34.0099 49.6909 34.4027 49.8385C35.4371 50.227 36.3033 50.064 37.5606 49.4906C37.9879 49.2957 38.2334 48.8447 38.191 48.377Z" fill="#474747"/>
<path d="M38.191 48.377C38.1338 47.7472 37.577 47.2829 36.9472 47.34L34.8647 47.5289C34.1766 47.5913 33.6694 48.1996 33.7318 48.8877C33.7697 49.3057 34.0099 49.6909 34.4027 49.8385C35.4371 50.227 36.3033 50.064 37.5606 49.4906C37.9879 49.2957 38.2334 48.8447 38.191 48.377Z" stroke="black" stroke-width="0.5"/>
<path d="M39.5613 52.5001C39.2232 51.7332 38.3109 51.6682 37.5206 51.947C36.4627 52.3203 35.3646 52.3922 34.1132 52.0792C33.62 51.9558 33.0909 52.0113 32.9355 52.4953C32.5191 53.7922 32.5004 56.7408 32.5269 59.3756C32.5345 60.1337 32.9692 60.8329 33.673 61.1147C36.4764 62.2372 38.0987 61.8659 40.1104 60.5612C40.7644 60.137 41.0601 59.3418 40.9252 58.5742C40.5305 56.3281 40.2095 53.9702 39.5613 52.5001Z" fill="#DEF1EF"/>
<path d="M39.3325 52.6009C39.2012 52.3029 38.9629 52.1397 38.6593 52.0761C38.3469 52.0107 37.969 52.0539 37.6038 52.1828C36.4991 52.5726 35.3509 52.6465 34.0526 52.3217C33.8295 52.2659 33.621 52.2571 33.4643 52.3005C33.3204 52.3402 33.222 52.421 33.1735 52.5718C32.9768 53.1844 32.8683 54.2147 32.8149 55.4446C32.7617 56.6661 32.7636 58.0563 32.7769 59.3731C32.7836 60.04 33.1652 60.6421 33.7659 60.8826C35.1438 61.4343 36.2071 61.6091 37.1601 61.4998C38.1135 61.3904 38.9843 60.9936 39.9744 60.3514C40.534 59.9885 40.7987 59.2988 40.6789 58.6175C40.6141 58.2487 40.5516 57.8788 40.4895 57.5112C40.3612 56.752 40.2346 56.0029 40.0931 55.2951C39.8832 54.2445 39.6451 53.3098 39.3325 52.6009Z" stroke="black" stroke-width="0.5"/>
<path d="M36.4895 54.4613C34.903 54.6052 33.5002 53.4356 33.3563 51.849C33.2124 50.2625 34.382 48.8597 35.9686 48.7158C37.5551 48.5719 38.9579 49.7415 39.1018 51.3281C39.2457 52.9146 38.0761 54.3174 36.4895 54.4613Z" fill="#DEF1EF"/>
<path d="M33.6057 51.8265C33.7371 53.2755 35.0183 54.3437 36.4674 54.2123C37.9164 54.0809 38.9846 52.7997 38.8532 51.3506C38.7218 49.9016 37.4406 48.8334 35.9915 48.9648C34.5425 49.0962 33.4743 50.3774 33.6057 51.8265Z" stroke="black" stroke-width="0.5"/>
<path d="M35.2355 62.0265C34.2277 62.0127 33.3904 61.1539 33.7888 60.2281C34.03 59.6675 34.3793 59.1599 34.8168 58.7343C35.2542 58.3087 35.7711 57.9734 36.3381 57.7476C36.9051 57.5218 37.511 57.4099 38.1212 57.4182C38.7315 57.4266 39.3341 57.5551 39.8947 57.7963C40.4552 58.0376 40.9628 58.3869 41.3884 58.8243C41.814 59.2617 42.1493 59.7786 42.3751 60.3456C42.748 61.282 41.8875 62.1175 40.8797 62.1037L38.0576 62.0651L35.2355 62.0265Z" fill="#DEF1EF"/>
<path d="M34.0183 60.3268C33.8611 60.6923 33.9439 61.0381 34.1743 61.3062C34.4103 61.5807 34.8022 61.7704 35.2389 61.7764L38.0609 61.815L40.883 61.8537C41.3197 61.8596 41.7166 61.6808 41.96 61.4128C42.1977 61.1511 42.29 60.8076 42.1427 60.438C41.9291 59.9015 41.6118 59.4124 41.2091 58.9985C40.8064 58.5846 40.3262 58.2541 39.7957 58.0258C39.2653 57.7976 38.6951 57.676 38.1177 57.6681C37.5403 57.6602 36.967 57.7661 36.4305 57.9798C35.894 58.1934 35.4049 58.5107 34.991 58.9134C34.5771 59.3161 34.2466 59.7964 34.0183 60.3268Z" stroke="black" stroke-width="0.5"/>
<path d="M38.3131 18.7441C39.4434 18.7441 40.3596 17.8279 40.3596 16.6976C40.3596 15.5674 39.4434 14.6511 38.3131 14.6511C37.1829 14.6511 36.2666 15.5674 36.2666 16.6976C36.2666 17.8279 37.1829 18.7441 38.3131 18.7441Z" fill="#37FAFD" fill-opacity="0.52"/>
<path d="M30.4991 18.7441C31.6294 18.7441 32.5457 17.8279 32.5457 16.6976C32.5457 15.5674 31.6294 14.6511 30.4991 14.6511C29.3689 14.6511 28.4526 15.5674 28.4526 16.6976C28.4526 17.8279 29.3689 18.7441 30.4991 18.7441Z" fill="#37FAFD" fill-opacity="0.52"/>
<path d="M35.3366 19.4884L34.4063 18.5581L33.4761 19.4884" stroke="#37FAFD" stroke-width="0.5" stroke-linecap="round" stroke-linejoin="round"/>
<path d="M39.2433 13.907L35.8945 16.1395" stroke="#37FAFD" stroke-width="0.5" stroke-linecap="round" stroke-linejoin="round"/>
<path d="M29.5688 14.2791L32.9177 16.5116" stroke="#37FAFD" stroke-width="0.5" stroke-linecap="round" stroke-linejoin="round"/>
<path d="M38.3131 18.7441C39.4434 18.7441 40.3596 17.8279 40.3596 16.6976C40.3596 15.5674 39.4434 14.6511 38.3131 14.6511C37.1829 14.6511 36.2666 15.5674 36.2666 16.6976C36.2666 17.8279 37.1829 18.7441 38.3131 18.7441Z" fill="#37FAFD"/>
<path d="M30.4991 18.7441C31.6294 18.7441 32.5457 17.8279 32.5457 16.6976C32.5457 15.5674 31.6294 14.6511 30.4991 14.6511C29.3689 14.6511 28.4526 15.5674 28.4526 16.6976C28.4526 17.8279 29.3689 18.7441 30.4991 18.7441Z" fill="#37FAFD"/>
<path d="M35.3361 19.4884L34.4058 18.5581L33.4756 19.4884" stroke="#37FAFD" stroke-width="0.5" stroke-linecap="round" stroke-linejoin="round"/>
<path d="M39.2433 13.907L35.8945 16.1395" stroke="#37FAFD" stroke-width="0.5" stroke-linecap="round" stroke-linejoin="round"/>
<path d="M29.5688 14.2791L32.9177 16.5116" stroke="#37FAFD" stroke-width="0.5" stroke-linecap="round" stroke-linejoin="round"/>
<path d="M36.6385 24.3257C36.1384 24.3257 32.9572 24.3257 31.4292 24.3257" stroke="#0C1638" stroke-width="0.5" stroke-linecap="round" stroke-linejoin="round"/>
<path d="M36.2664 25.0698C35.7663 25.0698 32.5852 25.0698 31.0571 25.0698" stroke="#0C1638" stroke-width="0.5" stroke-linecap="round" stroke-linejoin="round"/>
<path d="M34.778 25.814C34.4923 25.814 32.6745 25.814 31.8013 25.814" stroke="#0C1638" stroke-width="0.5" stroke-linecap="round" stroke-linejoin="round"/>
</svg>
