<svg width="64" height="64" viewBox="0 0 64 64" fill="none" xmlns="http://www.w3.org/2000/svg">
<path d="M48.0019 46.6076C49.3626 45.1183 54.7783 44.1443 58.107 43.7493C58.5853 43.6926 58.946 43.2909 58.9752 42.8101C59.1102 40.5948 59.7837 37.1595 61.7349 33.243C61.8937 32.9244 61.868 32.5453 61.661 32.2556C59.5616 29.3172 55.6182 23.3649 53.9893 19.3169C53.9059 19.1097 53.7555 18.9393 53.5641 18.824C51.493 17.5771 49.0678 14.973 47.9287 13.6055C47.8182 13.4728 47.6804 13.3739 47.5174 13.3168C41.7537 11.2975 29.7316 7.59712 25.1242 8.03579C24.9607 8.05135 24.8152 8.11448 24.6849 8.21441C20.8698 11.1409 12.8248 16.7079 9.62629 16.7079C6.4019 16.7079 3.24407 28.6885 2.03231 34.8435C2.0098 34.9579 2.00967 35.0707 2.03043 35.1853C2.21713 36.2175 2.69384 38.8892 3.38921 42.8794C3.46747 43.3285 3.85703 43.6534 4.31088 43.6954C7.26487 43.9693 11.1405 45.6454 13.2015 46.7028C13.5076 46.8599 13.6941 47.1764 13.6941 47.5205V47.8783C13.6941 48.2488 13.9105 48.5845 14.2522 48.7277C16.0841 49.4959 19.9511 50.9541 24.552 52.212C24.7638 52.2699 24.9876 52.248 25.1933 52.1714C27.8597 51.1781 33.2305 51.7573 35.9727 52.238C36.1987 52.2776 36.4275 52.2368 36.6253 52.1205C38.8296 50.8244 43.5329 48.3112 47.3508 47.0896C47.6112 47.0063 47.8175 46.8094 48.0019 46.6076Z" fill="#D2CDC7" stroke="black" stroke-width="2.3"/>
<mask id="mask0_582_1568" style="mask-type:alpha" maskUnits="userSpaceOnUse" x="1" y="7" width="62" height="46">
<path d="M47.7627 46.9621C48.5763 45.1317 55.5593 43.9961 58.9492 43.6571C58.9492 41.4537 59.5593 37.4028 62 32.7248C59.9661 29.9282 55.4915 23.2672 53.8644 18.996C51.6271 17.7757 48.8644 14.7587 47.7627 13.4028C42 11.3689 29.356 7.45365 24.8814 8.06382C21.1526 10.9452 12.8814 16.7079 9.62713 16.7079C6.37288 16.7079 3.18644 28.9113 2 35.0129C2.16949 35.9452 2.71186 38.979 3.52543 43.6571C6.77967 43.6571 11.661 45.8605 13.6949 46.9621V48.4875C15.2203 49.1655 19.5932 50.8774 24.8814 52.3011C27.5254 51.0808 33.6102 51.7926 36.3221 52.3011C38.4407 51.0299 43.6949 48.1825 47.7627 46.9621Z" fill="#D2CDC7" stroke="#E7E0DA" stroke-width="0.3"/>
</mask>
<g mask="url(#mask0_582_1568)">
<path d="M48.0019 46.6076C49.3626 45.1183 54.7783 44.1443 58.107 43.7493C58.5853 43.6926 58.946 43.2909 58.9752 42.8101C59.1102 40.5948 59.7837 37.1595 61.7349 33.243C61.8937 32.9244 61.868 32.5453 61.661 32.2556C59.5616 29.3172 55.6182 23.3649 53.9893 19.3169C53.9059 19.1097 53.7555 18.9393 53.5641 18.824C51.493 17.5771 49.0678 14.973 47.9287 13.6055C47.8182 13.4728 47.6804 13.3739 47.5174 13.3168C41.7537 11.2975 29.7316 7.59712 25.1242 8.03579C24.9607 8.05135 24.8152 8.11448 24.6849 8.21441C20.8698 11.1409 12.8248 16.7079 9.62629 16.7079C6.4019 16.7079 3.24407 28.6885 2.03231 34.8435C2.0098 34.9579 2.00967 35.0707 2.03043 35.1853C2.21713 36.2175 2.69384 38.8892 3.38921 42.8794C3.46747 43.3285 3.85703 43.6534 4.31088 43.6954C7.26487 43.9693 11.1405 45.6454 13.2015 46.7028C13.5076 46.8599 13.6941 47.1764 13.6941 47.5205V47.8783C13.6941 48.2488 13.9105 48.5845 14.2522 48.7277C16.0841 49.4959 19.9511 50.9541 24.552 52.212C24.7638 52.2699 24.9876 52.248 25.1933 52.1714C27.8597 51.1781 33.2305 51.7573 35.9727 52.238C36.1987 52.2776 36.4275 52.2368 36.6253 52.1205C38.8296 50.8244 43.5329 48.3112 47.3508 47.0896C47.6112 47.0063 47.8175 46.8094 48.0019 46.6076Z" fill="#D2CDC7" stroke="#D2CDC7" stroke-width="2.3"/>
<path d="M33.2717 17.6614L47.2548 13.3394L55.8988 19.4411L64.543 25.797L61.7463 34.9496L60.4751 48.4241L36.0684 53.0004C35.7294 52.0682 34.6955 49.3393 33.2717 45.8818C29.8141 42.8308 30.6446 37.3224 31.4921 34.9496C32.848 34.7801 37.187 33.9835 43.6955 32.1529H33.2717V17.6614Z" fill="#8F8684"/>
<path d="M33.2717 17.6614L47.2548 13.3394L55.8988 19.4411L64.543 25.797L61.7463 34.9496L60.4751 48.4241L36.0684 53.0004C35.7294 52.0682 34.6955 49.3393 33.2717 45.8818C29.8141 42.8308 30.6446 37.3224 31.4921 34.9496C32.848 34.7801 37.187 33.9835 43.6955 32.1529H33.2717V17.6614Z" stroke="#E7E0DA"/>
<path d="M47.5087 42.3217C51.9833 42.525 58.6951 39.3555 61.4917 37.7454L59.9663 47.4064L36.3223 52.9996C34.7121 50.3725 31.6442 45.1691 32.2544 45.3725C33.0171 45.6267 41.1527 45.3725 47.5087 42.3217Z" fill="#625C5E"/>
<path d="M47.5087 42.3217C51.9833 42.525 58.6951 39.3555 61.4917 37.7454L59.9663 47.4064L36.3223 52.9996C34.7121 50.3725 31.6442 45.1691 32.2544 45.3725C33.0171 45.6267 41.1527 45.3725 47.5087 42.3217Z" stroke="#E7E0DA"/>
<path d="M47.7632 47.1523V41.5591L48.2716 46.5636L47.7632 47.1523Z" fill="black"/>
<path d="M16.2381 38.7631L1.74658 34.6953L2.00082 45.6275L24.1194 52.7461H36.8313C36.4076 50.3732 34.8991 45.6275 32.2551 45.6275C28.95 45.6275 17.7636 40.0343 16.2381 39.78C15.0178 39.5767 15.7297 39.0173 16.2381 38.7631Z" fill="#BBB4AD"/>
<path d="M16.2381 38.7631L1.74658 34.6953L2.00082 45.6275L24.1194 52.7461H36.8313C36.4076 50.3732 34.8991 45.6275 32.2551 45.6275C28.95 45.6275 17.7636 40.0343 16.2381 39.78C15.0178 39.5767 15.7297 39.0173 16.2381 38.7631Z" stroke="#E7E0DA"/>
<path d="M25.1353 52.2374C25.1353 50.0002 30.0505 46.729 32.5081 45.373C35.3556 45.9833 36.7454 50.2036 37.0843 52.2374L40.6438 54.0171H30.7285C28.8641 54.3561 25.1353 54.4748 25.1353 52.2374Z" fill="#93898B"/>
<path d="M24.882 8.25421C25.8989 8.05082 31.0685 14.6101 33.526 17.9153L47.5091 13.339L49.0345 12.0678L26.9159 5.20337C25.8142 6.30506 23.8651 8.4576 24.882 8.25421Z" fill="#BEB7AF" stroke="#E7E0DA"/>
<path d="M13.1865 47.1524L15.7289 39.0167L19.2882 35.7117L15.9831 39.7795L13.695 48.6778L13.1865 47.1524Z" fill="black"/>
</g>
<path d="M31.4911 35.2039C30.22 34.6954 27.9318 33.1699 25.1353 30.3733C26.3556 31.1869 31.4064 32.0682 33.7793 32.4072H43.4403C39.881 33.5089 32.5081 35.6106 31.4911 35.2039Z" fill="#E0DBD7"/>
<path d="M33.6027 32.1525H43.1861L33.6852 32.9026C33.5793 32.9109 33.4726 32.9012 33.3699 32.8738L25.8979 30.8813L33.4486 32.1398C33.4995 32.1483 33.551 32.1525 33.6027 32.1525Z" fill="#5E5653"/>
</svg>
