<svg width="67" height="51" viewBox="0 0 67 51" fill="none" xmlns="http://www.w3.org/2000/svg">
<path d="M51.0696 43.1814C52.521 41.5929 58.2978 40.5539 61.8484 40.1326C62.3586 40.0721 62.7433 39.6436 62.7745 39.1308C62.9184 36.7678 63.6369 33.1035 65.7181 28.9259C65.8875 28.586 65.8601 28.1816 65.6393 27.8726C63.3999 24.7383 59.1936 18.3892 57.4562 14.0714C57.3672 13.8503 57.2068 13.6686 57.0026 13.5456C54.7934 12.2156 52.2065 9.43785 50.9915 7.9792C50.8736 7.83765 50.7267 7.73221 50.5528 7.6713C44.4048 5.51736 31.5813 1.57026 26.6667 2.03817C26.4923 2.05477 26.3371 2.12211 26.1981 2.2287C22.1287 5.35033 13.5473 11.2884 10.1356 11.2884C6.69625 11.2884 3.3279 24.0677 2.03536 30.6331C2.01135 30.7551 2.01121 30.8754 2.03335 30.9977C2.2325 32.0987 2.74099 34.9485 3.48272 39.2047C3.56619 39.6837 3.98173 40.0303 4.46583 40.0751C7.61676 40.3672 11.7508 42.1551 13.9492 43.283C14.2757 43.4505 14.4746 43.7882 14.4746 44.1552V44.5368C14.4746 44.932 14.7054 45.2901 15.0699 45.4429C17.0239 46.2623 21.1487 47.8177 26.0564 49.1595C26.2823 49.2212 26.521 49.1979 26.7404 49.1162C29.5846 48.0566 35.3134 48.6745 38.2385 49.1872C38.4795 49.2294 38.7236 49.1859 38.9345 49.0619C41.2858 47.6793 46.3027 44.9986 50.3751 43.6956C50.6528 43.6067 50.8729 43.3967 51.0696 43.1814Z" fill="#D2CDC7" stroke="black" stroke-width="2.3"/>
<mask id="mask0_35_4362" style="mask-type:alpha" maskUnits="userSpaceOnUse" x="1" y="1" width="66" height="49">
<path d="M50.8136 43.5596C51.6814 41.6071 59.1299 40.3958 62.7458 40.0342C62.7458 37.6839 63.3966 33.363 66 28.3731C63.8305 25.3901 59.0576 18.285 57.322 13.7291C54.9356 12.4274 51.9887 9.20931 50.8136 7.76299C44.6667 5.5935 31.1797 1.41723 26.4068 2.06808C22.4294 5.14152 13.6068 11.2884 10.1356 11.2884C6.66441 11.2884 3.26554 24.3054 2 30.8138C2.18079 31.8082 2.75932 35.0443 3.62712 40.0342C7.09831 40.0342 12.3051 42.3845 14.4746 43.5596V45.1867C16.1017 45.9099 20.7661 47.7359 26.4068 49.2545C29.2271 47.9528 35.7175 48.7121 38.6102 49.2545C40.8701 47.8986 46.4746 44.8613 50.8136 43.5596Z" fill="#D2CDC7" stroke="#E7E0DA" stroke-width="0.3"/>
</mask>
<g mask="url(#mask0_35_4362)">
<path d="M51.0696 43.1814C52.521 41.5929 58.2978 40.5539 61.8484 40.1326C62.3586 40.0721 62.7433 39.6436 62.7745 39.1308C62.9184 36.7678 63.6369 33.1035 65.7181 28.9259C65.8875 28.586 65.8601 28.1816 65.6393 27.8726C63.3999 24.7383 59.1936 18.3892 57.4562 14.0714C57.3672 13.8503 57.2068 13.6686 57.0026 13.5456C54.7934 12.2156 52.2065 9.43785 50.9915 7.9792C50.8736 7.83765 50.7267 7.73221 50.5528 7.6713C44.4048 5.51736 31.5813 1.57026 26.6667 2.03817C26.4923 2.05477 26.3371 2.12211 26.1981 2.2287C22.1287 5.35033 13.5473 11.2884 10.1356 11.2884C6.69625 11.2884 3.3279 24.0677 2.03536 30.6331C2.01135 30.7551 2.01121 30.8754 2.03335 30.9977C2.2325 32.0987 2.74099 34.9485 3.48272 39.2047C3.56619 39.6837 3.98173 40.0303 4.46583 40.0751C7.61676 40.3672 11.7508 42.1551 13.9492 43.283C14.2757 43.4505 14.4746 43.7882 14.4746 44.1552V44.5368C14.4746 44.932 14.7054 45.2901 15.0699 45.4429C17.0239 46.2623 21.1487 47.8177 26.0564 49.1595C26.2823 49.2212 26.521 49.1979 26.7404 49.1162C29.5846 48.0566 35.3134 48.6745 38.2385 49.1872C38.4795 49.2294 38.7236 49.1859 38.9345 49.0619C41.2858 47.6793 46.3027 44.9986 50.3751 43.6956C50.6528 43.6067 50.8729 43.3967 51.0696 43.1814Z" fill="#D2CDC7" stroke="#D2CDC7" stroke-width="2.3"/>
<g filter="url(#filter0_d_35_4362)">
<path d="M35.3559 12.3051L50.2712 7.69492L59.4915 14.2034L68.7119 20.9831L65.7288 30.7458L64.3729 45.1186L38.339 50C37.9774 49.0057 36.8746 46.0949 35.3559 42.4068C31.6678 39.1525 32.5536 33.2768 33.4576 30.7458C34.9039 30.565 39.5322 29.7153 46.4746 27.7627H35.3559V12.3051Z" fill="#8F8684"/>
<path d="M35.3559 12.3051L50.2712 7.69492L59.4915 14.2034L68.7119 20.9831L65.7288 30.7458L64.3729 45.1186L38.339 50C37.9774 49.0057 36.8746 46.0949 35.3559 42.4068C31.6678 39.1525 32.5536 33.2768 33.4576 30.7458C34.9039 30.565 39.5322 29.7153 46.4746 27.7627H35.3559V12.3051Z" stroke="#E7E0DA"/>
</g>
<g filter="url(#filter1_i_35_4362)">
<path d="M50.5424 38.6102C55.3153 38.8271 62.4746 35.4463 65.4576 33.7288L63.8305 44.0339L38.6102 50C36.8927 47.1977 33.6203 41.6475 34.2712 41.8644C35.0847 42.1356 43.7627 41.8644 50.5424 38.6102Z" fill="#625C5E"/>
<path d="M50.5424 38.6102C55.3153 38.8271 62.4746 35.4463 65.4576 33.7288L63.8305 44.0339L38.6102 50C36.8927 47.1977 33.6203 41.6475 34.2712 41.8644C35.0847 42.1356 43.7627 41.8644 50.5424 38.6102Z" stroke="#E7E0DA"/>
</g>
<path d="M50.8136 43.7627V37.7966L51.3559 43.1347L50.8136 43.7627Z" fill="black"/>
<g filter="url(#filter2_i_35_4362)">
<path d="M17.1864 34.8136L1.72882 30.4746L2.00001 42.1356L25.5932 49.7288H39.1525C38.7006 47.1977 37.0915 42.1356 34.2712 42.1356C30.7458 42.1356 18.8136 36.1695 17.1864 35.8983C15.8848 35.6814 16.6441 35.0847 17.1864 34.8136Z" fill="#BBB4AD"/>
<path d="M17.1864 34.8136L1.72882 30.4746L2.00001 42.1356L25.5932 49.7288H39.1525C38.7006 47.1977 37.0915 42.1356 34.2712 42.1356C30.7458 42.1356 18.8136 36.1695 17.1864 35.8983C15.8848 35.6814 16.6441 35.0847 17.1864 34.8136Z" stroke="#E7E0DA"/>
</g>
<path d="M26.678 49.1864C26.678 46.8 31.9209 43.3107 34.5424 41.8644C37.5797 42.5153 39.0622 47.017 39.4237 49.1864L43.2204 51.0847H32.6441C30.6554 51.4463 26.678 51.5729 26.678 49.1864Z" fill="#93898B"/>
<path d="M26.4068 2.27117C27.4915 2.05422 33.0057 9.05083 35.6271 12.5763L50.5424 7.6949L52.1695 6.33897L28.5763 -0.983063C27.4011 0.192078 25.3221 2.48812 26.4068 2.27117Z" fill="#BEB7AF" stroke="#E7E0DA"/>
<path d="M13.9322 43.7627L16.6441 35.0847L20.4407 31.5593L16.9152 35.8983L14.4746 45.3898L13.9322 43.7627Z" fill="black"/>
</g>
<path d="M33.4576 31.017C32.1017 30.4746 29.661 28.8475 26.678 25.8644C27.9797 26.7322 33.3672 27.6723 35.8983 28.0339H46.2034C42.4068 29.209 34.5424 31.4509 33.4576 31.017Z" fill="#E0DBD7"/>
<path d="M35.7099 27.7627H45.9322L35.7979 28.5628C35.6849 28.5717 35.5711 28.5613 35.4616 28.5321L27.4915 26.4068L35.5455 27.7491C35.5998 27.7582 35.6548 27.7627 35.7099 27.7627Z" fill="#5E5653"/>
<defs>
<filter id="filter0_d_35_4362" x="31.663" y="6.69492" width="37.0489" height="43.3051" filterUnits="userSpaceOnUse" color-interpolation-filters="sRGB">
<feFlood flood-opacity="0" result="BackgroundImageFix"/>
<feColorMatrix in="SourceAlpha" type="matrix" values="0 0 0 0 0 0 0 0 0 0 0 0 0 0 0 0 0 0 127 0" result="hardAlpha"/>
<feOffset dx="-1" dy="-1"/>
<feComposite in2="hardAlpha" operator="out"/>
<feColorMatrix type="matrix" values="0 0 0 0 0.886882 0 0 0 0 0.857579 0 0 0 0 0.834136 0 0 0 1 0"/>
<feBlend mode="normal" in2="BackgroundImageFix" result="effect1_dropShadow_35_4362"/>
<feBlend mode="normal" in="SourceGraphic" in2="effect1_dropShadow_35_4362" result="shape"/>
</filter>
<filter id="filter1_i_35_4362" x="34.1868" y="33.7288" width="31.2708" height="16.2712" filterUnits="userSpaceOnUse" color-interpolation-filters="sRGB">
<feFlood flood-opacity="0" result="BackgroundImageFix"/>
<feBlend mode="normal" in="SourceGraphic" in2="BackgroundImageFix" result="shape"/>
<feColorMatrix in="SourceAlpha" type="matrix" values="0 0 0 0 0 0 0 0 0 0 0 0 0 0 0 0 0 0 127 0" result="hardAlpha"/>
<feOffset dx="1" dy="1"/>
<feComposite in2="hardAlpha" operator="arithmetic" k2="-1" k3="1"/>
<feColorMatrix type="matrix" values="0 0 0 0 0.905882 0 0 0 0 0.878431 0 0 0 0 0.854902 0 0 0 0.5 0"/>
<feBlend mode="normal" in2="shape" result="effect1_innerShadow_35_4362"/>
</filter>
<filter id="filter2_i_35_4362" x="1.72882" y="30.4746" width="37.4237" height="19.2542" filterUnits="userSpaceOnUse" color-interpolation-filters="sRGB">
<feFlood flood-opacity="0" result="BackgroundImageFix"/>
<feBlend mode="normal" in="SourceGraphic" in2="BackgroundImageFix" result="shape"/>
<feColorMatrix in="SourceAlpha" type="matrix" values="0 0 0 0 0 0 0 0 0 0 0 0 0 0 0 0 0 0 127 0" result="hardAlpha"/>
<feOffset dx="1" dy="1"/>
<feComposite in2="hardAlpha" operator="arithmetic" k2="-1" k3="1"/>
<feColorMatrix type="matrix" values="0 0 0 0 0.905882 0 0 0 0 0.878431 0 0 0 0 0.854902 0 0 0 1 0"/>
<feBlend mode="normal" in2="shape" result="effect1_innerShadow_35_4362"/>
</filter>
</defs>
</svg>
