<svg width="64" height="64" viewBox="0 0 64 64" fill="none" xmlns="http://www.w3.org/2000/svg">
<path d="M1.51122 46.5152L2.51003 50.6111C2.72896 51.5089 3.5345 52.1398 4.45862 52.1373L18.6106 52.0981C19.0869 52.0968 19.5596 51.9358 19.8653 51.5706C21.842 49.2096 21.7961 44.6983 19.0471 44.2602C17.9646 44.0877 8.37829 45.2899 4.78812 45.7064C4.11702 45.7843 3.33066 45.2484 2.73714 44.9256C1.80617 44.4194 1.26016 45.4857 1.51122 46.5152Z" fill="#A5E092"/>
<path d="M1.51122 46.5152L2.51003 50.6111C2.72896 51.5089 3.5345 52.1398 4.45862 52.1373L18.6106 52.0981C19.0869 52.0968 19.5596 51.9358 19.8653 51.5706C21.842 49.2096 21.7961 44.6983 19.0471 44.2602C17.9646 44.0877 8.37829 45.2899 4.78812 45.7064C4.11702 45.7843 3.33066 45.2484 2.73714 44.9256C1.80617 44.4194 1.26016 45.4857 1.51122 46.5152Z" stroke="black" stroke-width="0.3" stroke-linecap="round" stroke-linejoin="round"/>
<path d="M34.8958 47.4733L34.2898 52.7469C34.1756 53.7406 33.3448 54.4972 32.3448 54.5181L20.0808 54.7754C19.2778 54.7922 18.5356 54.3294 18.2388 53.583C16.1417 48.3091 16.8314 45.1987 19.4854 40.8481C19.9972 40.0091 21.0606 39.7055 21.9565 40.1097L33.7313 45.4219C34.5243 45.7797 34.9951 46.609 34.8958 47.4733Z" fill="#A5E092"/>
<path d="M34.8958 47.4733L34.2898 52.7469C34.1756 53.7406 33.3448 54.4972 32.3448 54.5181L20.0808 54.7754C19.2778 54.7922 18.5356 54.3294 18.2388 53.583C16.1417 48.3091 16.8314 45.1987 19.4854 40.8481C19.9972 40.0091 21.0606 39.7055 21.9565 40.1097L33.7313 45.4219C34.5243 45.7797 34.9951 46.609 34.8958 47.4733Z" stroke="black" stroke-width="0.5" stroke-linecap="round" stroke-linejoin="round"/>
<path d="M2.43746 50.6106L2.63779 54.2493C2.70426 55.4566 3.81853 56.3293 5.00659 56.1045L18.2401 53.6006C18.739 53.5062 19.1994 53.2332 19.4234 52.7777C20.777 50.026 19.7271 45.6811 16.9849 45.8681C15.9292 45.9401 9.38302 48.2936 6.37472 49.355C5.6554 49.6088 4.87591 49.3489 4.1482 49.1202C4.03177 49.0836 3.91566 49.056 3.80129 49.0361C2.9424 48.886 2.38953 49.74 2.43746 50.6106Z" fill="#A5E092"/>
<path d="M2.43746 50.6106L2.63779 54.2493C2.70426 55.4566 3.81853 56.3293 5.00659 56.1045L18.2401 53.6006C18.739 53.5062 19.1994 53.2332 19.4234 52.7777C20.777 50.026 19.7271 45.6811 16.9849 45.8681C15.9292 45.9401 9.38302 48.2936 6.37472 49.355C5.6554 49.6088 4.87591 49.3489 4.1482 49.1202C4.03177 49.0836 3.91566 49.056 3.80129 49.0361C2.9424 48.886 2.38953 49.74 2.43746 50.6106Z" stroke="black" stroke-width="0.3" stroke-linecap="round" stroke-linejoin="round"/>
<path d="M18.3609 54.7609C16.1904 55.0555 13.1162 55.501 11.3603 55.8384C10.6839 55.9684 9.71708 55.532 9.44319 54.9L9.40321 54.8077C9.25645 54.469 9.30818 54.0771 9.53778 53.7881L10.5265 52.5435C10.9735 51.9809 10.699 51.1446 10.0056 50.9564L8.64473 50.5869C8.20912 50.4687 7.90673 50.0733 7.90674 49.6219V49.391C7.90674 48.9483 8.19785 48.5583 8.62229 48.4323L10.7802 47.7921C9.89618 48.0544 9.15843 47.0821 9.64908 46.3013L10.2478 45.3485C10.3626 45.1659 10.2566 44.925 10.0444 44.8862C9.74208 44.831 9.70198 44.4139 9.98828 44.3021L17.8655 41.2257C18.5213 40.9696 19.2293 41.4532 19.2293 42.1571V53.7679C19.2293 54.2696 18.8581 54.6934 18.3609 54.7609Z" fill="#765C62"/>
<path d="M13.7777 46.9027L10.7802 47.7921C9.89618 48.0544 9.15843 47.0821 9.64908 46.3013L10.2478 45.3485C10.3626 45.1659 10.2566 44.925 10.0444 44.8862C9.74208 44.831 9.70198 44.4139 9.98828 44.3021L17.8655 41.2257C18.5213 40.9696 19.2293 41.4532 19.2293 42.1571V53.7679C19.2293 54.2696 18.8581 54.6934 18.3609 54.7609C16.1904 55.0555 13.1162 55.501 11.3603 55.8384C10.6839 55.9684 9.71708 55.532 9.44319 54.9L9.40321 54.8077C9.25645 54.469 9.30818 54.0771 9.53778 53.7881L10.5265 52.5435C10.9735 51.9809 10.699 51.1446 10.0056 50.9564L8.64473 50.5869C8.20912 50.4687 7.90673 50.0733 7.90674 49.6219V49.391C7.90674 48.9483 8.19785 48.5583 8.62229 48.4323L13.7777 46.9027ZM13.7777 46.9027L14.1971 44.9672M13.7777 46.9027V48.2575" stroke="#1D271A" stroke-width="0.3" stroke-linecap="round" stroke-linejoin="round"/>
<path d="M16.474 47.4319H31.8228C32.5425 47.4319 33.2067 47.8186 33.5621 48.4445L33.8757 48.9968C33.9498 49.1273 34.009 49.2658 34.0521 49.4096L34.7781 51.8297C35.1434 53.0473 34.2998 54.2905 33.0323 54.3879C27.9057 54.7817 16.547 55.5829 16.7057 54.9369C16.9686 53.8661 16.5378 52.4093 16.2168 51.3544C16.1489 51.1312 16.0188 50.9096 15.8011 50.7029C15.3204 50.2465 14.8628 49.706 14.8628 49.0431C14.8628 48.1533 15.5842 47.4319 16.474 47.4319Z" fill="#FFFFE1"/>
<path d="M16.474 47.4319H31.8228C32.5425 47.4319 33.2067 47.8186 33.5621 48.4445L33.8757 48.9968C33.9498 49.1273 34.009 49.2658 34.0521 49.4096L34.7781 51.8297C35.1434 53.0473 34.2998 54.2905 33.0323 54.3879C27.9057 54.7817 16.547 55.5829 16.7057 54.9369C16.9686 53.8661 16.5378 52.4093 16.2168 51.3544C16.1489 51.1312 16.0188 50.9096 15.8011 50.7029C15.3204 50.2465 14.8628 49.706 14.8628 49.0431C14.8628 48.1533 15.5842 47.4319 16.474 47.4319Z" stroke="#1D271A" stroke-width="0.3" stroke-linecap="round" stroke-linejoin="round"/>
<path d="M32.5548 45.8553L33.4247 45.6034C34.3628 45.3318 34.3952 44.0145 33.4716 43.6971L19.5774 38.9225C18.8531 38.6736 18.0512 40.0089 17.2951 40.1305C16.6311 40.2373 16.0537 41.0657 15.6622 41.8604C15.3944 42.4038 15.7619 43.0129 16.3585 43.1176L32.1039 45.8797C32.2541 45.9061 32.4083 45.8977 32.5548 45.8553Z" fill="#FFFFE1" stroke="#1D271A" stroke-width="0.2" stroke-linecap="round" stroke-linejoin="round"/>
<path d="M55.6781 31.9927C61.5886 35.5061 60.853 48.9314 55.6781 54.0999C50.5031 59.2685 40.7797 58.5304 35.1059 52.4256C29.4321 46.3209 31.954 36.2608 35.8415 32.7475C39.729 29.2341 49.7675 28.4793 55.6781 31.9927Z" fill="#A5E092"/>
<path d="M55.6014 32.1215C57.0409 32.9772 58.0852 34.4422 58.7587 36.2545C59.4321 38.0664 59.7308 40.2159 59.6852 42.4224C59.5937 46.8419 58.1223 51.4466 55.5721 53.9937C50.4692 59.0902 40.844 58.3791 35.2158 52.3234C32.4164 49.3115 31.6334 45.3181 32.0373 41.631C32.4417 37.9396 34.0326 34.5844 35.9421 32.8586C37.849 31.1353 41.2899 30.0727 45.0087 29.8847C48.7235 29.697 52.6789 30.3843 55.6014 32.1215Z" stroke="#1D271A" stroke-width="0.3"/>
<path d="M47.4873 45.1931L42.4873 48.6931M43.4873 45.1931L46.9873 48.6931" stroke="#1D271A" stroke-linecap="round" stroke-linejoin="round"/>
<path d="M47.4873 36.1931L42.4873 39.6931M43.4873 36.1931L46.9873 39.6931" stroke="#1D271A" stroke-linecap="round" stroke-linejoin="round"/>
<path d="M21.8512 45.8623C21.6481 45.8623 21.4834 45.6153 21.4834 45.3106C21.4834 45.0059 21.6481 44.7588 21.8512 44.7588C22.0543 44.7588 22.219 45.0059 22.219 45.3106C22.219 45.6153 22.0543 45.8623 21.8512 45.8623Z" fill="#1D271A"/>
<path d="M40.8538 42.8936C40.8538 43.1112 41.0379 43.2877 41.265 43.2877C41.4922 43.2877 41.6763 43.1112 41.6763 42.8936C41.6763 42.676 41.4922 42.4995 41.265 42.4995C41.0379 42.4995 40.8538 42.676 40.8538 42.8936Z" fill="#39582F"/>
<path d="M40.8709 41.8426C40.8709 42.0602 41.055 42.2367 41.2821 42.2367C41.5092 42.2367 41.6934 42.0602 41.6934 41.8426C41.6934 41.6249 41.5092 41.4485 41.2821 41.4485C41.055 41.4485 40.8709 41.6249 40.8709 41.8426Z" fill="#39582F"/>
<path d="M50.5412 41.8163C50.5412 43.4414 51.2823 44.7588 52.1964 44.7588C53.1105 44.7588 53.8516 43.4414 53.8516 41.8163C53.8516 40.1912 53.1105 38.8738 52.1964 38.8738C51.2823 38.8738 50.5412 40.1912 50.5412 41.8163Z" fill="#78B166"/>
<path d="M54.2193 44.5748C54.2193 45.0827 54.4663 45.4944 54.771 45.4944C55.0757 45.4944 55.3228 45.0827 55.3228 44.5748C55.3228 44.067 55.0757 43.6553 54.771 43.6553C54.4663 43.6553 54.2193 44.067 54.2193 44.5748Z" fill="#78B166"/>
<path d="M54.2193 41.6324C54.2193 42.1403 54.4663 42.552 54.771 42.552C55.0757 42.552 55.3228 42.1403 55.3228 41.6324C55.3228 41.1246 55.0757 40.7129 54.771 40.7129C54.4663 40.7129 54.2193 41.1246 54.2193 41.6324Z" fill="#D0F9C3"/>
<path d="M34.6587 42.9198C34.6587 44.115 34.8848 45.1278 35.3002 45.8513C35.7184 46.5799 36.3425 47.0318 37.1156 47.0318C37.8826 47.0318 38.551 46.5866 39.0165 45.862C39.4811 45.1387 39.7564 44.1231 39.7564 42.9198C39.7564 41.7226 39.4831 40.9845 38.9638 40.5624C38.4561 40.1497 37.7749 40.095 37.1156 40.095C36.4586 40.095 35.8138 40.1485 35.3488 40.5714C34.8804 40.9974 34.6587 41.735 34.6587 42.9198Z" fill="#1D271A" stroke="#44633A" stroke-width="0.5"/>
<path d="M36.3799 40.7129L38.0351 41.0807C39.3456 41.5042 39.0763 41.9952 38.4029 42.9198L36.3799 42.5519V40.7129Z" fill="white"/>
<path d="M36.3799 40.7129L38.0351 41.0807C39.3456 41.5042 39.0763 41.9952 38.4029 42.9198L36.3799 42.5519V40.7129Z" stroke="black"/>
<path d="M36.564 43.4715L38.4031 43.2876C38.587 43.6554 39.3227 44.0232 38.8613 44.8738L36.9319 45.3106L36.564 43.4715Z" fill="white"/>
<path d="M36.564 43.4715L38.4031 43.2876C38.587 43.6554 39.3227 44.0232 38.8613 44.8738L36.9319 45.3106L36.564 43.4715Z" stroke="black"/>
<path d="M37.6128 40.5923C37.5475 40.545 37.4824 40.4979 37.4179 40.4502C37.9486 40.4707 38.4034 40.5577 38.7431 40.8339C39.1411 41.1574 39.4065 41.7632 39.4065 42.9197C39.4065 44.0736 39.1419 45.0191 38.7221 45.6727C38.3576 46.2401 37.8799 46.5832 37.356 46.6635C37.6887 46.2905 37.9485 45.9866 38.1445 45.7203C38.3723 45.4108 38.5179 45.1465 38.5915 44.877C38.7356 44.3484 38.5939 43.8227 38.3304 42.9427C38.5902 42.629 38.7197 42.3473 38.7412 42.0859C38.7639 41.8103 38.6653 41.5737 38.5054 41.3647C38.3472 41.1578 38.1252 40.9728 37.8913 40.7967C37.799 40.7271 37.7057 40.6596 37.6128 40.5923Z" fill="#E275A0" stroke="#1D271A" stroke-width="0.2"/>
<path d="M32.5856 44.5611C31.9099 44.5384 29.3558 46.6578 31.8351 48.0499C34.5782 48.7396 36.8412 46.5335 36.3354 44.6894C36.1717 44.0923 35.7177 43.5332 34.8957 43.1226C34.8727 44.1907 32.5856 44.5611 32.5856 44.5611Z" fill="#EFA9C4"/>
<path d="M36.3354 44.6894C36.1717 44.0923 35.7177 43.5332 34.8957 43.1226C34.8727 44.1907 32.5856 44.5611 32.5856 44.5611C31.9099 44.5384 29.3558 46.6578 31.8351 48.0499C34.5782 48.7396 36.8412 46.5335 36.3354 44.6894ZM36.3354 44.6894C35.9624 45.2315 34.9609 46.3422 33.9392 46.4484" stroke="#1D271A" stroke-width="0.3" stroke-linecap="round" stroke-linejoin="round"/>
<path d="M16.0428 54.2456C21.4721 55.9448 33.5495 55.1655 34.5244 54.1171C35.4992 53.0688 35.4001 50.8375 33.7899 50.0828C32.1797 49.3281 23.9611 48.0789 18.7578 47.5543C17.2148 47.3987 15.367 46.3614 14.8848 48.4244C11.832 49.3526 12.2236 53.0503 16.0428 54.2456Z" fill="#A5E092"/>
<path d="M16.0428 54.2456C21.4721 55.9448 33.5495 55.1655 34.5244 54.1171C35.4992 53.0688 35.4001 50.8375 33.7899 50.0828C32.1797 49.3281 23.9611 48.0789 18.7578 47.5543C17.2148 47.3987 15.367 46.3614 14.8848 48.4244C11.832 49.3526 12.2236 53.0503 16.0428 54.2456Z" stroke="black" stroke-width="0.3" stroke-linecap="round" stroke-linejoin="round"/>
<path d="M22.5074 55.5127C27.2039 55.316 29.9879 55.0523 33.8038 54.8924C37.3713 52.9263 36.1333 49.0332 28.8908 48.0417C26.9724 47.779 23.0822 47.4323 22.2639 47.5842C21.241 47.7741 22.1397 48.3245 23.0654 49.7558C23.7753 50.8536 23.5553 51.3525 23.5733 51.9398C23.5877 52.4096 22.6016 53.7936 22.1778 54.3504L22.5074 55.5127Z" fill="#FFFFE1"/>
<path d="M22.5074 55.5127C27.2039 55.316 29.9879 55.0523 33.8038 54.8924C37.3713 52.9263 36.1333 49.0332 28.8908 48.0417C26.9724 47.779 23.0822 47.4323 22.2639 47.5842C21.241 47.7741 22.1397 48.3245 23.0654 49.7558C23.7753 50.8536 23.5553 51.3525 23.5733 51.9398C23.5877 52.4096 22.6016 53.7936 22.1778 54.3504L22.5074 55.5127Z" stroke="#1D271A" stroke-width="0.3" stroke-linecap="round" stroke-linejoin="round"/>
<path d="M58.4973 50.9817C68.7224 41.7381 55.5759 31.4937 61.6275 28.6613C57.454 26.1403 52.6544 31.1823 57.454 33.073C53.0718 34.5436 53.2804 39.1654 54.3238 41.2663C55.3672 43.3671 58.08 43.4188 56.2019 49.9314C51.611 49.9314 49.7329 50.7717 48.0635 52.8725H44.5161L46.8115 57.2842C52.8017 57.8802 56.4105 56.0238 57.454 52.8725C58.9146 57.2842 65.801 50.5616 58.4973 50.9817Z" fill="#31412C"/>
<path d="M58.4973 50.9817C68.7224 41.7381 55.5759 31.4937 61.6275 28.6613C57.454 26.1403 52.6544 31.1823 57.454 33.073C53.0718 34.5436 53.2804 39.1654 54.3238 41.2663C55.3672 43.3671 58.08 43.4188 56.2019 49.9314C51.611 49.9314 49.7329 50.7717 48.0635 52.8725H44.5161L46.8115 57.2842C52.8017 57.8802 56.4105 56.0238 57.454 52.8725C58.9146 57.2842 65.801 50.5616 58.4973 50.9817Z" stroke="#1D271A" stroke-width="0.3"/>
<path d="M45.9451 51.6349C47.5726 52.6099 48.6998 55.8709 47.2749 57.3052C45.8499 58.7396 42.0454 58.2114 40.483 56.5172C38.9207 54.8231 39.4126 52.8194 40.4831 51.8444C41.5535 50.8694 44.3176 50.6599 45.9451 51.6349Z" fill="#A5E092"/>
<path d="M45.8678 51.7635C46.6384 52.2251 47.3094 53.2452 47.6098 54.3375C47.9112 55.4329 47.8247 56.5386 47.1683 57.1994C46.505 57.8671 45.2569 58.0979 43.9488 57.9355C42.6463 57.7737 41.3426 57.2281 40.5931 56.4155C39.0929 54.7887 39.5685 52.8799 40.5839 51.9551C41.0822 51.5012 42.0001 51.2096 43.0126 51.1581C44.0212 51.1067 45.087 51.2957 45.8678 51.7635Z" stroke="#1D271A" stroke-width="0.3"/>
<path d="M43.9644 52.7168C45.1905 53.6976 46.907 55.8064 43.9644 56.3949" stroke="black" stroke-width="0.3" stroke-linecap="round" stroke-linejoin="round"/>
<path d="M48.6247 38.8664C48.6428 40.6725 50.0817 40.1127 51.1882 39.1581L50.427 38.6579C50.697 38.1229 50.9168 36.0224 50.427 34.6351C49.8149 32.901 48.6453 33.2379 47.5293 33.976C47.8668 34.6886 48.602 36.6087 48.6247 38.8664Z" fill="#31412C"/>
<path d="M51.1881 39.1583L51.2705 39.0329C51.3098 39.0588 51.3347 39.1015 51.3378 39.1485C51.3409 39.1954 51.3217 39.2411 51.2861 39.2718L51.1881 39.1583ZM47.5292 33.9762L47.3936 34.0404L47.3379 33.9229L47.4464 33.8511L47.5292 33.9762ZM50.4269 38.6581L50.3446 38.7835L50.2327 38.71L50.293 38.5905L50.4269 38.6581ZM51.2861 39.2718C51.0033 39.5158 50.6972 39.7364 50.3951 39.9011C50.0948 40.0648 49.7888 40.1786 49.5082 40.1974C49.2223 40.2165 48.9543 40.1364 48.7617 39.9041C48.5753 39.6794 48.4793 39.3351 48.4746 38.8681L48.7746 38.8651C48.7789 39.3011 48.8695 39.5642 48.9926 39.7126C49.1095 39.8536 49.2737 39.9124 49.4882 39.8981C49.7079 39.8833 49.9702 39.7911 50.2515 39.6377C50.5309 39.4854 50.8196 39.2781 51.0901 39.0447L51.2861 39.2718ZM48.4746 38.8681C48.4522 36.6389 47.7253 34.7406 47.3936 34.0404L47.6647 33.912C48.0081 34.6369 48.7516 36.5788 48.7746 38.8651L48.4746 38.8681ZM47.4464 33.8511C48.0073 33.4801 48.6161 33.1845 49.1789 33.2291C49.4666 33.2519 49.7373 33.3632 49.9757 33.5877C50.2116 33.8099 50.4103 34.1375 50.5684 34.5854L50.2855 34.6852C50.1375 34.2661 49.9604 33.9854 49.77 33.8061C49.5821 33.6292 49.3759 33.5457 49.1552 33.5282C48.7011 33.4922 48.1671 33.7342 47.6119 34.1013L47.4464 33.8511ZM50.5684 34.5854C50.8221 35.3039 50.8895 36.197 50.8617 36.9717C50.8478 37.3604 50.8097 37.7233 50.7575 38.0245C50.706 38.3216 50.6387 38.5713 50.5609 38.7257L50.293 38.5905C50.3501 38.4774 50.4116 38.2639 50.4619 37.9733C50.5116 37.6868 50.5484 37.3376 50.5619 36.9609C50.5891 36.2048 50.5216 35.3539 50.2855 34.6852L50.5684 34.5854ZM50.5093 38.5328L51.2705 39.0329L51.1057 39.2836L50.3446 38.7835L50.5093 38.5328Z" fill="#1D271A"/>
<path d="M48.7515 44.323C48.6005 42.7805 50.2812 43.1918 51.1368 44.323L50.9357 45.127C51.0866 45.6925 51.1369 47.3939 50.4122 48.6278C49.5063 50.1703 47.9966 49.5533 47.0908 48.6278C47.5437 48.0109 48.9666 46.5205 48.7515 44.323Z" fill="#31412C"/>
<path d="M51.1368 44.323L51.2823 44.3594C51.2933 44.3153 51.2838 44.2687 51.2564 44.2325L51.1368 44.323ZM47.0908 48.6278L46.9698 48.5391L46.8945 48.6418L46.9836 48.7328L47.0908 48.6278ZM50.9357 45.127L50.7902 45.0906L50.7807 45.1282L50.7907 45.1656L50.9357 45.127ZM51.2564 44.2325C50.8104 43.6428 50.1418 43.2278 49.5818 43.1711C49.2984 43.1424 49.0224 43.2049 48.8304 43.4109C48.64 43.6153 48.5622 43.9291 48.6022 44.3376L48.9008 44.3083C48.8652 43.9456 48.9409 43.7324 49.0499 43.6154C49.1574 43.5001 49.3267 43.4469 49.5516 43.4696C50.0081 43.5158 50.6076 43.8719 51.0171 44.4135L51.2564 44.2325ZM48.6022 44.3376C48.8104 46.4651 47.4368 47.903 46.9698 48.5391L47.2117 48.7166C47.6506 48.1187 49.1227 46.5758 48.9008 44.3083L48.6022 44.3376ZM46.9836 48.7328C47.4499 49.2092 48.083 49.6192 48.7325 49.7021C49.0601 49.744 49.3932 49.7025 49.7067 49.5423C50.0199 49.3823 50.3035 49.1091 50.5415 48.7038L50.2828 48.5519C50.068 48.9178 49.8232 49.1459 49.5702 49.2751C49.3176 49.4042 49.0467 49.4398 48.7705 49.4045C48.2121 49.3332 47.6375 48.972 47.1979 48.5229L46.9836 48.7328ZM50.5415 48.7038C50.9189 48.0613 51.0913 47.3037 51.1517 46.6403C51.2119 45.9788 51.162 45.3932 51.0806 45.0883L50.7907 45.1656C50.8603 45.4263 50.911 45.9742 50.8529 46.6132C50.7949 47.2504 50.6302 47.9604 50.2828 48.5519L50.5415 48.7038ZM51.0812 45.1634L51.2823 44.3594L50.9912 44.2866L50.7902 45.0906L51.0812 45.1634Z" fill="#1D271A"/>
</svg>
