<svg width="40" height="65" viewBox="0 0 40 65" fill="none" xmlns="http://www.w3.org/2000/svg">
<ellipse cx="22.4471" cy="60.093" rx="14.6977" ry="3.90698" fill="black" fill-opacity="0.24"/>
<g filter="url(#filter0_i_1_270)">
<path d="M13.0215 61.8853L17.2374 61.8853C18.1616 61.8853 18.9654 61.2522 19.1818 60.3537L22.4966 46.5953C22.6081 46.1323 22.5637 45.635 22.2813 45.2514C20.4558 42.7716 16.0621 41.7475 14.9852 44.3144C14.5612 45.3253 13.458 54.9234 13.0121 58.5101C12.9288 59.1805 12.2218 59.8175 11.7676 60.3177C11.0552 61.1022 11.9618 61.8853 13.0215 61.8853Z" fill="#A5E092"/>
</g>
<path d="M13.0215 61.8853L17.2374 61.8853C18.1616 61.8853 18.9654 61.2522 19.1818 60.3537L22.4966 46.5953C22.6081 46.1323 22.5637 45.635 22.2813 45.2514C20.4558 42.7716 16.0621 41.7475 14.9852 44.3144C14.5612 45.3253 13.458 54.9234 13.0121 58.5101C12.9288 59.1805 12.2218 59.8175 11.7676 60.3177C11.0552 61.1022 11.9618 61.8853 13.0215 61.8853Z" stroke="black" stroke-width="0.3" stroke-linecap="round" stroke-linejoin="round"/>
<g filter="url(#filter1_i_1_270)">
<path d="M19.6026 30.4142L24.9017 30.1025C25.9002 30.0438 26.7886 30.7318 26.9816 31.7132L29.3481 43.7495C29.5031 44.5376 29.1751 45.3484 28.491 45.7694C23.6573 48.7439 20.4746 48.6004 15.7317 46.7357C14.8171 46.3761 14.3348 45.3809 14.5786 44.4288L17.7825 31.9147C17.9983 31.072 18.7341 30.4653 19.6026 30.4142Z" fill="#A5E092"/>
</g>
<path d="M19.6026 30.4142L24.9017 30.1025C25.9002 30.0438 26.7886 30.7318 26.9816 31.7132L29.3481 43.7495C29.5031 44.5376 29.1751 45.3484 28.491 45.7694C23.6573 48.7439 20.4746 48.6004 15.7317 46.7357C14.8171 46.3761 14.3348 45.3809 14.5786 44.4288L17.7825 31.9147C17.9983 31.072 18.7341 30.4653 19.6026 30.4142Z" stroke="black" stroke-width="0.5" stroke-linecap="round" stroke-linejoin="round"/>
<g filter="url(#filter2_ii_1_270)">
<path d="M26.2601 61.6091L29.8988 61.4088C31.1061 61.3423 31.9788 60.2281 31.754 59.04L29.2501 45.8065C29.1558 45.3076 28.8828 44.8472 28.4272 44.6231C25.6755 43.2696 21.3306 44.3194 21.5177 47.0617C21.5896 48.1174 23.9432 54.6636 25.0045 57.6719C25.2583 58.3912 24.9984 59.1707 24.7697 59.8984C24.7332 60.0148 24.7056 60.1309 24.6856 60.2453C24.5355 61.1042 25.3895 61.6571 26.2601 61.6091Z" fill="#A5E092"/>
</g>
<path d="M26.2601 61.6091L29.8988 61.4088C31.1061 61.3423 31.9788 60.2281 31.754 59.04L29.2501 45.8065C29.1558 45.3076 28.8828 44.8472 28.4272 44.6231C25.6755 43.2696 21.3306 44.3194 21.5177 47.0617C21.5896 48.1174 23.9432 54.6636 25.0045 57.6719C25.2583 58.3912 24.9984 59.1707 24.7697 59.8984C24.7332 60.0148 24.7056 60.1309 24.6856 60.2453C24.5355 61.1042 25.3895 61.6571 26.2601 61.6091Z" stroke="black" stroke-width="0.3" stroke-linecap="round" stroke-linejoin="round"/>
<g filter="url(#filter3_i_1_270)">
<path d="M30.3117 46.0358C30.6098 48.066 31.0602 50.9428 31.4104 52.665C31.5534 53.3686 31.0692 54.4163 30.4026 54.683L30.3088 54.7205C29.9884 54.8487 29.6244 54.8025 29.3461 54.5984L27.9168 53.5502C27.3579 53.1404 26.5616 53.4096 26.3661 54.0745L25.9706 55.419C25.8454 55.8446 25.4549 56.1368 25.0113 56.1368H24.6731C24.2387 56.1368 23.854 55.8564 23.7211 55.4428L22.1288 50.489L21.0919 54.3775C20.8762 55.1864 19.7943 55.3388 19.3636 54.6209L19.3093 54.5304C19.0071 54.0268 18.303 53.961 17.9128 54.4C17.5112 54.8518 16.7828 54.7666 16.4963 54.2345L16.2072 53.6976C15.9415 53.2043 15.2755 53.1065 14.8793 53.5027C14.3057 54.0763 13.3334 53.5795 13.4621 52.7786L14.721 44.9453C14.8037 44.4308 15.2676 44.0661 15.787 44.1071L29.399 45.1817C29.8655 45.2185 30.2437 45.5728 30.3117 46.0358Z" fill="#765C62"/>
</g>
<path d="M22.1288 50.489L21.0919 54.3775C20.8762 55.1864 19.7943 55.3388 19.3636 54.6209L19.3093 54.5304C19.0071 54.0268 18.303 53.961 17.9128 54.4V54.4C17.5112 54.8518 16.7828 54.7666 16.4963 54.2345L16.2072 53.6976C15.9415 53.2043 15.2755 53.1065 14.8793 53.5027V53.5027C14.3057 54.0763 13.3334 53.5795 13.4621 52.7786L14.721 44.9453C14.8037 44.4308 15.2676 44.0661 15.787 44.1071L29.399 45.1817C29.8655 45.2185 30.2437 45.5728 30.3117 46.0358C30.6098 48.066 31.0602 50.9428 31.4104 52.665C31.5534 53.3686 31.0692 54.4163 30.4026 54.683L30.3088 54.7205C29.9884 54.8487 29.6244 54.8025 29.3461 54.5984L27.9168 53.5502C27.3579 53.1404 26.5616 53.4096 26.3661 54.0745L25.9706 55.419C25.8454 55.8446 25.4549 56.1368 25.0113 56.1368H24.6731C24.2387 56.1368 23.854 55.8564 23.7211 55.4428L22.1288 50.489ZM22.1288 50.489L20.1117 50.0856M22.1288 50.489H23.5407" stroke="#1D271A" stroke-width="0.3" stroke-linecap="round" stroke-linejoin="round"/>
<g filter="url(#filter4_i_1_270)">
<path d="M23.0021 47.6077L22.3075 33.7918C22.2705 33.0566 22.6404 32.3605 23.2704 31.9798L24.9576 30.9599L25.2451 30.7861C26.427 30.0718 27.9574 30.7394 28.2266 32.0939C29.2388 37.1852 31.2147 47.4953 30.5863 47.341C29.5155 47.0781 28.0587 47.5089 27.0039 47.8299C26.789 47.8953 26.5757 48.0182 26.3757 48.2214C25.8968 48.7081 25.3423 49.1839 24.6595 49.1839C23.7754 49.1839 23.0465 48.4907 23.0021 47.6077Z" fill="#FFFFE1"/>
</g>
<path d="M23.0021 47.6077L22.3075 33.7918C22.2705 33.0566 22.6404 32.3605 23.2704 31.9798L24.9576 30.9599L25.2451 30.7861C26.427 30.0718 27.9574 30.7394 28.2266 32.0939C29.2388 37.1852 31.2147 47.4953 30.5863 47.341C29.5155 47.0781 28.0587 47.5089 27.0039 47.8299C26.789 47.8953 26.5757 48.0182 26.3757 48.2214C25.8968 48.7081 25.3423 49.1839 24.6595 49.1839C23.7754 49.1839 23.0465 48.4907 23.0021 47.6077Z" stroke="#1D271A" stroke-width="0.3" stroke-linecap="round" stroke-linejoin="round"/>
<path d="M18.5693 47.4477V32.8566C18.5693 32.7625 18.5556 32.6676 18.5294 32.5772C18.2379 31.5704 16.7798 31.5953 16.5768 32.6236L14.2551 44.3842C14.0847 45.2472 15.6403 45.8833 15.78 46.7518C15.8779 47.3604 16.5821 47.8963 17.3109 48.283C17.909 48.6003 18.5693 48.1247 18.5693 47.4477Z" fill="#FFFFE1" stroke="#1D271A" stroke-width="0.2" stroke-linecap="round" stroke-linejoin="round"/>
<g filter="url(#filter5_ii_1_270)">
<path d="M10.6421 7.36854C14.1555 1.45795 27.5808 2.19358 32.7493 7.36854C37.9179 12.5435 37.1798 22.2669 31.075 27.9407C24.9703 33.6145 14.9103 31.0926 11.3969 27.2051C7.88349 23.3176 7.12872 13.2791 10.6421 7.36854Z" fill="#A5E092"/>
</g>
<path d="M10.771 7.44519C11.6267 6.00566 13.0917 4.96137 14.904 4.28789C16.7159 3.61454 18.8654 3.31575 21.0719 3.36143C25.4914 3.45292 30.0962 4.92433 32.6432 7.47454C37.7397 12.5774 37.0286 22.2026 30.9729 27.8308C27.961 30.6302 23.9676 31.4132 20.2805 31.0093C16.5892 30.6049 13.2339 29.014 11.5082 27.1045C9.7848 25.1976 8.72217 21.7567 8.53426 18.0379C8.34655 14.323 9.03386 10.3677 10.771 7.44519Z" stroke="#1D271A" stroke-width="0.3"/>
<path d="M21.5118 42.1954C21.5118 42.3985 21.2648 42.5632 20.9601 42.5632C20.6554 42.5632 20.4084 42.3985 20.4084 42.1954C20.4084 41.9923 20.6554 41.8276 20.9601 41.8276C21.2648 41.8276 21.5118 41.9923 21.5118 42.1954Z" fill="#1D271A"/>
<ellipse cx="18.543" cy="22.7816" rx="0.394089" ry="0.411222" fill="#39582F"/>
<ellipse cx="17.4921" cy="22.7645" rx="0.394088" ry="0.411223" fill="#39582F"/>
<ellipse cx="17.4658" cy="11.8506" rx="2.94253" ry="1.65517" fill="#78B166"/>
<ellipse cx="20.2244" cy="9.27586" rx="0.91954" ry="0.551724" fill="#78B166"/>
<ellipse cx="17.2819" cy="9.27586" rx="0.91954" ry="0.551724" fill="#D0F9C3"/>
<g filter="url(#filter6_i_1_270)">
<path d="M1.75993 36.2684C6.46059 33.14 19.2703 30.2959 20.7216 31.1652C22.173 32.0345 22.5822 32.5049 21.1021 33.7498C19.622 34.9947 7.52791 41.3416 6.36974 41.4899C5.21157 41.6383 4.0965 40.1493 4.74906 39.8937C3.63842 40.3288 -1.70237 38.5726 1.75993 36.2684Z" fill="#A5E092"/>
</g>
<path d="M1.75993 36.2684C6.46059 33.14 19.2703 30.2959 20.7216 31.1652C22.173 32.0345 22.5822 32.5049 21.1021 33.7498C19.622 34.9947 7.52791 41.3416 6.36974 41.4899C5.21157 41.6383 4.0965 40.1493 4.74906 39.8937C3.63842 40.3288 -1.70237 38.5726 1.75993 36.2684Z" stroke="#1D271A" stroke-width="0.3" stroke-linecap="round" stroke-linejoin="round"/>
<g filter="url(#filter7_i_1_270)">
<path d="M8.36331 35.058L8.37457 35.0389C8.59447 34.6661 8.53581 34.1919 8.23168 33.8838C7.71489 33.3603 7.96243 32.4884 8.68515 32.3514C12.1147 31.7011 17.1526 31.1984 18.1447 31C20.3449 30.56 21.1971 31.8889 21.1929 32.7021C21.1919 32.8999 21.0597 33.0625 20.9002 33.1797L11.4866 40.098C10.8165 40.5905 9.38141 39.538 9.80384 38.8217C10.0098 38.4725 9.13279 37.1279 8.42863 36.1724C8.18805 35.8459 8.15732 35.4073 8.36331 35.058Z" fill="#FFFFE1"/>
</g>
<path d="M8.36331 35.058L8.37457 35.0389C8.59447 34.6661 8.53581 34.1919 8.23168 33.8838C7.71489 33.3603 7.96243 32.4884 8.68515 32.3514C12.1147 31.7011 17.1526 31.1984 18.1447 31C20.3449 30.56 21.1971 31.8889 21.1929 32.7021C21.1919 32.8999 21.0597 33.0625 20.9002 33.1797L11.4866 40.098C10.8165 40.5905 9.38141 39.538 9.80384 38.8217C10.0098 38.4725 9.13279 37.1279 8.42863 36.1724C8.18805 35.8459 8.15732 35.4073 8.36331 35.058Z" stroke="black" stroke-width="0.3" stroke-linecap="round" stroke-linejoin="round"/>
<g filter="url(#filter8_i_1_270)">
<path d="M12.142 41.0183C17.8309 41.05 29.1483 36.7618 29.7727 35.4736C30.3972 34.1854 29.6478 32.0814 27.8871 31.8323C26.1263 31.5831 17.9028 32.7999 12.7746 33.8249C11.2538 34.1288 9.18308 33.6792 9.32726 35.7929C6.68112 37.5758 8.14018 40.996 12.142 41.0183Z" fill="#A5E092"/>
</g>
<path d="M12.142 41.0183C17.8309 41.05 29.1483 36.7618 29.7727 35.4736C30.3972 34.1854 29.6478 32.0814 27.8871 31.8323C26.1263 31.5831 17.9028 32.7999 12.7746 33.8249C11.2538 34.1288 9.18308 33.6792 9.32726 35.7929C6.68112 37.5758 8.14018 40.996 12.142 41.0183Z" stroke="black" stroke-width="0.3" stroke-linecap="round" stroke-linejoin="round"/>
<g filter="url(#filter9_i_1_270)">
<path d="M18.6936 40.3331C23.1257 38.7672 25.7099 37.6985 29.311 36.4262C32.1448 33.5 29.8191 30.1414 22.6044 31.3181C20.6933 31.6298 16.8726 32.4397 16.1349 32.8249C15.2127 33.3065 16.2333 33.5691 17.5381 34.6659C18.5389 35.5071 18.4749 36.0485 18.6644 36.6047C18.8161 37.0496 18.2793 38.662 18.0375 39.3187L18.6936 40.3331Z" fill="#FFFFE1"/>
</g>
<path d="M18.6936 40.3331C23.1257 38.7672 25.7099 37.6985 29.311 36.4262C32.1448 33.5 29.8191 30.1414 22.6044 31.3181C20.6933 31.6298 16.8726 32.4397 16.1349 32.8249C15.2127 33.3065 16.2333 33.5691 17.5381 34.6659C18.5389 35.5071 18.4749 36.0485 18.6644 36.6047C18.8161 37.0496 18.2793 38.662 18.0375 39.3187L18.6936 40.3331Z" stroke="#1D271A" stroke-width="0.3" stroke-linecap="round" stroke-linejoin="round"/>
<path d="M18.5693 29.3879C19.7646 29.3879 20.7774 29.1618 21.5008 28.7464C22.2294 28.3282 22.6813 27.7041 22.6813 26.931C22.6813 26.164 22.2361 25.4956 21.5115 25.0301C20.7882 24.5655 19.7726 24.2902 18.5693 24.2902C17.3721 24.2902 16.634 24.5635 16.2119 25.0828C15.7992 25.5905 15.7446 26.2716 15.7446 26.931C15.7446 27.588 15.798 28.2328 16.2209 28.6978C16.6469 29.1662 17.3845 29.3879 18.5693 29.3879Z" fill="#1D271A" stroke="#44633A" stroke-width="0.5"/>
<g filter="url(#filter10_i_1_270)">
<path d="M16.3624 27.6666L16.7302 26.0115C17.1537 24.701 17.6447 24.9703 18.5693 25.6437L18.2015 27.6666H16.3624Z" fill="white"/>
<path d="M16.3624 27.6666L16.7302 26.0115C17.1537 24.701 17.6447 24.9703 18.5693 25.6437L18.2015 27.6666H16.3624Z" stroke="black"/>
</g>
<g filter="url(#filter11_i_1_270)">
<path d="M19.121 27.4828L18.9371 25.6437C19.3049 25.4598 19.6727 24.7241 20.5233 25.1855L20.9601 27.1149L19.121 27.4828Z" fill="white"/>
<path d="M19.121 27.4828L18.9371 25.6437C19.3049 25.4598 19.6727 24.7241 20.5233 25.1855L20.9601 27.1149L19.121 27.4828Z" stroke="black"/>
</g>
<path d="M16.2419 26.4339C16.1946 26.4992 16.1475 26.5643 16.0999 26.6288C16.1203 26.0981 16.2073 25.6433 16.4835 25.3035C16.807 24.9056 17.4129 24.6402 18.5693 24.6402C19.7232 24.6402 20.6687 24.9047 21.3223 25.3246C21.8897 25.6891 22.2328 26.1667 22.3131 26.6907C21.9402 26.358 21.6362 26.0982 21.3699 25.9022C21.0604 25.6744 20.7961 25.5287 20.5266 25.4552C19.998 25.3111 19.4723 25.4528 18.5924 25.7163C18.2786 25.4565 17.9969 25.327 17.7355 25.3055C17.4599 25.2828 17.2233 25.3814 17.0143 25.5412C16.8074 25.6995 16.6224 25.9215 16.4463 26.1554C16.3767 26.2477 16.3092 26.341 16.2419 26.4339Z" fill="#E275A0" stroke="#1D271A" stroke-width="0.2"/>
<g filter="url(#filter12_i_1_270)">
<path d="M20.2105 31.4613C20.1878 32.137 22.3072 34.6911 23.6993 32.2118C24.3891 29.4687 22.1829 27.2057 20.3388 27.7114C19.7417 27.8752 19.1826 28.3292 18.772 29.1512C19.8401 29.1742 20.2105 31.4613 20.2105 31.4613Z" fill="#EFA9C4"/>
</g>
<path d="M20.3388 27.7114C19.7417 27.8752 19.1826 28.3292 18.772 29.1512C19.8401 29.1742 20.2105 31.4613 20.2105 31.4613C20.1878 32.137 22.3072 34.6911 23.6993 32.2118C24.3891 29.4687 22.1829 27.2057 20.3388 27.7114ZM20.3388 27.7114C20.8809 28.0845 21.9916 29.086 22.0978 30.1077" stroke="#1D271A" stroke-width="0.2" stroke-linecap="round" stroke-linejoin="round"/>
<g filter="url(#filter13_ii_1_270)">
<path d="M29.8112 5.0417C20.5676 -5.18339 10.3231 7.96317 7.49071 1.91156C4.96977 6.08508 10.0117 10.8846 11.9025 6.08508C13.3731 10.4673 17.9949 10.2586 20.0957 9.21522C22.1965 8.17182 22.2482 5.45908 28.7608 7.33716C28.7608 11.928 29.6011 13.8061 31.7019 15.4755V19.023L36.1137 16.7276C36.7097 10.7373 34.8532 7.1285 31.7019 6.08508C36.1137 4.62439 29.391 -2.26191 29.8112 5.0417Z" fill="#31412C"/>
</g>
<path d="M29.8112 5.0417C20.5676 -5.18339 10.3231 7.96317 7.49071 1.91156C4.96977 6.08508 10.0117 10.8846 11.9025 6.08508C13.3731 10.4673 17.9949 10.2586 20.0957 9.21522C22.1965 8.17182 22.2482 5.45908 28.7608 7.33716C28.7608 11.928 29.6011 13.8061 31.7019 15.4755V19.023L36.1137 16.7276C36.7097 10.7373 34.8532 7.1285 31.7019 6.08508C36.1137 4.62439 29.391 -2.26191 29.8112 5.0417Z" stroke="#1D271A" stroke-width="0.3"/>
<g filter="url(#filter14_i_1_270)">
<path d="M31.3421 17.5941C32.3171 15.9666 35.5781 14.8394 37.0125 16.2644C38.4468 17.6893 37.9186 21.4939 36.2245 23.0562C34.5303 24.6185 32.5266 24.1266 31.5516 23.0562C30.5766 21.9857 30.3671 19.2216 31.3421 17.5941Z" fill="#A5E092"/>
</g>
<path d="M31.4708 17.6712C31.9325 16.9006 32.9526 16.2297 34.0448 15.9292C35.1402 15.6279 36.246 15.7143 36.9068 16.3708C37.5744 17.0341 37.8053 18.2822 37.6428 19.5903C37.481 20.8927 36.9355 22.1965 36.1228 22.9459C34.496 24.4461 32.5873 23.9705 31.6625 22.9552C31.2086 22.4568 30.917 21.5389 30.8654 20.5264C30.814 19.5179 31.003 18.452 31.4708 17.6712Z" stroke="#1D271A" stroke-width="0.3"/>
<path d="M32.5463 19.5747C33.5272 18.3487 35.636 16.6322 36.2245 19.5747" stroke="black" stroke-width="0.3" stroke-linecap="round" stroke-linejoin="round"/>
<g filter="url(#filter15_d_1_270)">
<ellipse cx="23.1841" cy="18.8565" rx="3.14349" ry="3.14349" fill="#F3D16D"/>
<path d="M26.1775 18.8565C26.1775 20.5097 24.8373 21.85 23.1841 21.85C21.5308 21.85 20.1906 20.5097 20.1906 18.8565C20.1906 17.2032 21.5308 15.863 23.1841 15.863C24.8373 15.863 26.1775 17.2032 26.1775 18.8565Z" stroke="#1D271A" stroke-width="0.3"/>
</g>
<circle cx="24.8165" cy="19.162" r="1.41457" fill="#1D271A"/>
<ellipse cx="25.7596" cy="18.5334" rx="0.471524" ry="0.471523" fill="white"/>
<ellipse cx="25.4452" cy="18.8478" rx="0.157175" ry="0.157174" fill="white"/>
<g filter="url(#filter16_i_1_270)">
<path d="M26.1442 18.3875C24.7652 17.058 21.6476 16.9589 20.2994 18.6431C20.6585 15.0396 25.5013 14.5913 26.1442 18.3875Z" fill="#A5E092"/>
</g>
<path d="M26.1442 18.3875C24.7652 17.058 21.6476 16.9589 20.2994 18.6431C20.6585 15.0396 25.5013 14.5913 26.1442 18.3875Z" stroke="#1D271A" stroke-width="0.3" stroke-linejoin="round"/>
<g filter="url(#filter17_d_1_270)">
<ellipse cx="13.253" cy="18.8565" rx="3.14349" ry="3.14349" fill="#F3D16D"/>
<path d="M16.2465 18.8565C16.2465 20.5097 14.9063 21.85 13.253 21.85C11.5998 21.85 10.2595 20.5097 10.2595 18.8565C10.2595 17.2032 11.5998 15.863 13.253 15.863C14.9063 15.863 16.2465 17.2032 16.2465 18.8565Z" stroke="#1D271A" stroke-width="0.3"/>
</g>
<circle cx="11.943" cy="18.7941" r="1.41457" fill="#1D271A"/>
<ellipse cx="12.886" cy="18.1656" rx="0.471524" ry="0.471524" fill="white"/>
<ellipse cx="12.5717" cy="18.4799" rx="0.157175" ry="0.157175" fill="white"/>
<g filter="url(#filter18_i_1_270)">
<path d="M16.2132 18.3875C14.8342 17.058 11.7165 16.9589 10.3683 18.6431C10.7274 15.0396 15.5703 14.5913 16.2132 18.3875Z" fill="#A5E092"/>
</g>
<path d="M16.2132 18.3875C14.8342 17.058 11.7165 16.9589 10.3683 18.6431C10.7274 15.0396 15.5703 14.5913 16.2132 18.3875Z" stroke="#1D271A" stroke-width="0.3" stroke-linejoin="round"/>
<g filter="url(#filter19_i_1_270)">
<path d="M13.696 14.9146C15.5022 14.8965 14.9424 13.4576 13.9877 12.351L13.4875 13.1122C12.9525 12.8422 10.852 12.6225 9.46472 13.1122C7.73061 13.7244 8.06751 14.8939 8.80565 16.01C9.51819 15.6724 11.4383 14.9372 13.696 14.9146Z" fill="#31412C"/>
</g>
<path d="M13.9877 12.351L13.8623 12.2687C13.8882 12.2293 13.931 12.2044 13.9779 12.2013C14.0249 12.1983 14.0705 12.2174 14.1013 12.253L13.9877 12.351ZM13.696 14.9146L13.6945 14.7646L13.6945 14.7646L13.696 14.9146ZM8.80565 16.01L8.86987 16.1455L8.7523 16.2012L8.68053 16.0927L8.80565 16.01ZM9.46472 13.1122L9.51465 13.2537L9.46472 13.1122ZM13.4875 13.1122L13.6129 13.1946L13.5394 13.3064L13.42 13.2461L13.4875 13.1122ZM14.1013 12.253C14.3452 12.5358 14.5659 12.8419 14.7306 13.1441C14.8942 13.4443 15.008 13.7504 15.0268 14.0309C15.046 14.3168 14.9658 14.5849 14.7335 14.7775C14.5088 14.9638 14.1645 15.0599 13.6975 15.0646L13.6945 14.7646C14.1305 14.7602 14.3936 14.6696 14.542 14.5465C14.683 14.4297 14.7419 14.2654 14.7275 14.051C14.7128 13.8312 14.6205 13.569 14.4672 13.2876C14.3148 13.0082 14.1075 12.7195 13.8741 12.449L14.1013 12.253ZM13.6975 15.0646C11.4683 15.0869 9.57007 15.8138 8.86987 16.1455L8.74142 15.8744C9.4663 15.531 11.4083 14.7875 13.6945 14.7646L13.6975 15.0646ZM8.68053 16.0927C8.30957 15.5318 8.01398 14.9231 8.05856 14.3603C8.08135 14.0726 8.19264 13.8019 8.41716 13.5635C8.63936 13.3275 8.96689 13.1289 9.41479 12.9708L9.51465 13.2537C9.09549 13.4016 8.81484 13.5787 8.63556 13.7691C8.4586 13.9571 8.3751 14.1633 8.35762 14.384C8.32166 14.838 8.56359 15.3721 8.93076 15.9272L8.68053 16.0927ZM9.41479 12.9708C10.1334 12.7171 11.0264 12.6496 11.8011 12.6774C12.1899 12.6914 12.5527 12.7294 12.854 12.7816C13.1511 12.8331 13.4008 12.9004 13.5551 12.9783L13.42 13.2461C13.3068 13.189 13.0933 13.1276 12.8027 13.0772C12.5163 13.0276 12.167 12.9907 11.7903 12.9772C11.0342 12.9501 10.1834 13.0176 9.51465 13.2537L9.41479 12.9708ZM13.3622 13.0298L13.8623 12.2687L14.1131 12.4334L13.6129 13.1946L13.3622 13.0298Z" fill="#1D271A"/>
<g filter="url(#filter20_i_1_270)">
<path d="M22.1525 14.7876C20.61 14.9385 21.0213 13.2578 22.1525 12.4023L22.9565 12.6034C23.522 12.4524 25.2234 12.4022 26.4574 13.1268C27.9998 14.0327 27.3828 15.5424 26.4574 16.4483C25.8404 15.9954 24.35 14.5725 22.1525 14.7876Z" fill="#31412C"/>
</g>
<path d="M22.1525 12.4023L22.1889 12.2568C22.1448 12.2457 22.0982 12.2553 22.062 12.2826L22.1525 12.4023ZM22.1525 14.7876L22.1671 14.9368H22.1671L22.1525 14.7876ZM26.4574 16.4483L26.3686 16.5692L26.4713 16.6446L26.5623 16.5555L26.4574 16.4483ZM26.4574 13.1268L26.3814 13.2562V13.2562L26.4574 13.1268ZM22.9565 12.6034L22.9201 12.7489L22.9577 12.7583L22.9952 12.7483L22.9565 12.6034ZM22.062 12.2826C21.4724 12.7286 21.0573 13.3973 21.0006 13.9573C20.972 14.2407 21.0344 14.5166 21.2404 14.7086C21.4448 14.899 21.7586 14.9768 22.1671 14.9368L22.1379 14.6383C21.7751 14.6738 21.5619 14.5981 21.4449 14.4891C21.3296 14.3817 21.2764 14.2123 21.2991 13.9874C21.3453 13.5309 21.7015 12.9315 22.243 12.5219L22.062 12.2826ZM22.1671 14.9368C24.2946 14.7286 25.7326 16.1023 26.3686 16.5692L26.5461 16.3274C25.9482 15.8884 24.4053 14.4163 22.1379 14.6383L22.1671 14.9368ZM26.5623 16.5555C27.0387 16.0891 27.4487 15.456 27.5316 14.8066C27.5735 14.4789 27.532 14.1459 27.3718 13.8323C27.2118 13.5192 26.9386 13.2355 26.5333 12.9975L26.3814 13.2562C26.7473 13.4711 26.9754 13.7158 27.1047 13.9688C27.2337 14.2214 27.2693 14.4923 27.2341 14.7686C27.1628 15.3269 26.8015 15.9016 26.3524 16.3411L26.5623 16.5555ZM26.5333 12.9975C25.8908 12.6202 25.1332 12.4477 24.4699 12.3873C23.8083 12.3272 23.2228 12.377 22.9178 12.4584L22.9952 12.7483C23.2558 12.6787 23.8037 12.628 24.4427 12.6861C25.0799 12.7441 25.79 12.9088 26.3814 13.2562L26.5333 12.9975ZM22.9929 12.4578L22.1889 12.2568L22.1161 12.5478L22.9201 12.7489L22.9929 12.4578Z" fill="#1D271A"/>
<defs>
<filter id="filter0_i_1_270" x="11.364" y="42.6712" width="11.3391" height="19.3641" filterUnits="userSpaceOnUse" color-interpolation-filters="sRGB">
<feFlood flood-opacity="0" result="BackgroundImageFix"/>
<feBlend mode="normal" in="SourceGraphic" in2="BackgroundImageFix" result="shape"/>
<feColorMatrix in="SourceAlpha" type="matrix" values="0 0 0 0 0 0 0 0 0 0 0 0 0 0 0 0 0 0 127 0" result="hardAlpha"/>
<feOffset dx="-4" dy="-3"/>
<feComposite in2="hardAlpha" operator="arithmetic" k2="-1" k3="1"/>
<feColorMatrix type="matrix" values="0 0 0 0 0.470588 0 0 0 0 0.701961 0 0 0 0 0.392157 0 0 0 1 0"/>
<feBlend mode="normal" in2="shape" result="effect1_innerShadow_1_270"/>
</filter>
<filter id="filter1_i_1_270" x="14.2658" y="29.849" width="15.3701" height="18.4814" filterUnits="userSpaceOnUse" color-interpolation-filters="sRGB">
<feFlood flood-opacity="0" result="BackgroundImageFix"/>
<feBlend mode="normal" in="SourceGraphic" in2="BackgroundImageFix" result="shape"/>
<feColorMatrix in="SourceAlpha" type="matrix" values="0 0 0 0 0 0 0 0 0 0 0 0 0 0 0 0 0 0 127 0" result="hardAlpha"/>
<feOffset dx="2" dy="4"/>
<feComposite in2="hardAlpha" operator="arithmetic" k2="-1" k3="1"/>
<feColorMatrix type="matrix" values="0 0 0 0 0 0 0 0 0 0 0 0 0 0 0 0 0 0 0.25 0"/>
<feBlend mode="normal" in2="shape" result="effect1_innerShadow_1_270"/>
</filter>
<filter id="filter2_ii_1_270" x="21.3617" y="43.8845" width="10.5777" height="17.8775" filterUnits="userSpaceOnUse" color-interpolation-filters="sRGB">
<feFlood flood-opacity="0" result="BackgroundImageFix"/>
<feBlend mode="normal" in="SourceGraphic" in2="BackgroundImageFix" result="shape"/>
<feColorMatrix in="SourceAlpha" type="matrix" values="0 0 0 0 0 0 0 0 0 0 0 0 0 0 0 0 0 0 127 0" result="hardAlpha"/>
<feOffset dx="-4" dy="-1"/>
<feComposite in2="hardAlpha" operator="arithmetic" k2="-1" k3="1"/>
<feColorMatrix type="matrix" values="0 0 0 0 0.470588 0 0 0 0 0.701961 0 0 0 0 0.392157 0 0 0 1 0"/>
<feBlend mode="normal" in2="shape" result="effect1_innerShadow_1_270"/>
<feColorMatrix in="SourceAlpha" type="matrix" values="0 0 0 0 0 0 0 0 0 0 0 0 0 0 0 0 0 0 127 0" result="hardAlpha"/>
<feOffset dx="2" dy="2"/>
<feComposite in2="hardAlpha" operator="arithmetic" k2="-1" k3="1"/>
<feColorMatrix type="matrix" values="0 0 0 0 1 0 0 0 0 1 0 0 0 0 1 0 0 0 0.6 0"/>
<feBlend mode="normal" in2="effect1_innerShadow_1_270" result="effect2_innerShadow_1_270"/>
</filter>
<filter id="filter3_i_1_270" x="13.3003" y="43.9539" width="18.2853" height="12.3329" filterUnits="userSpaceOnUse" color-interpolation-filters="sRGB">
<feFlood flood-opacity="0" result="BackgroundImageFix"/>
<feBlend mode="normal" in="SourceGraphic" in2="BackgroundImageFix" result="shape"/>
<feColorMatrix in="SourceAlpha" type="matrix" values="0 0 0 0 0 0 0 0 0 0 0 0 0 0 0 0 0 0 127 0" result="hardAlpha"/>
<feOffset dx="-4" dy="4"/>
<feComposite in2="hardAlpha" operator="arithmetic" k2="-1" k3="1"/>
<feColorMatrix type="matrix" values="0 0 0 0 0 0 0 0 0 0 0 0 0 0 0 0 0 0 0.25 0"/>
<feBlend mode="normal" in2="shape" result="effect1_innerShadow_1_270"/>
</filter>
<filter id="filter4_i_1_270" x="22.1549" y="30.3458" width="8.70228" height="18.9881" filterUnits="userSpaceOnUse" color-interpolation-filters="sRGB">
<feFlood flood-opacity="0" result="BackgroundImageFix"/>
<feBlend mode="normal" in="SourceGraphic" in2="BackgroundImageFix" result="shape"/>
<feColorMatrix in="SourceAlpha" type="matrix" values="0 0 0 0 0 0 0 0 0 0 0 0 0 0 0 0 0 0 127 0" result="hardAlpha"/>
<feOffset dx="-4" dy="2"/>
<feComposite in2="hardAlpha" operator="arithmetic" k2="-1" k3="1"/>
<feColorMatrix type="matrix" values="0 0 0 0 0.857959 0 0 0 0 0.857959 0 0 0 0 0.747586 0 0 0 1 0"/>
<feBlend mode="normal" in2="shape" result="effect1_innerShadow_1_270"/>
</filter>
<filter id="filter5_ii_1_270" x="8.35428" y="3.20689" width="27.8337" height="28.0517" filterUnits="userSpaceOnUse" color-interpolation-filters="sRGB">
<feFlood flood-opacity="0" result="BackgroundImageFix"/>
<feBlend mode="normal" in="SourceGraphic" in2="BackgroundImageFix" result="shape"/>
<feColorMatrix in="SourceAlpha" type="matrix" values="0 0 0 0 0 0 0 0 0 0 0 0 0 0 0 0 0 0 127 0" result="hardAlpha"/>
<feOffset dx="-2" dy="1"/>
<feComposite in2="hardAlpha" operator="arithmetic" k2="-1" k3="1"/>
<feColorMatrix type="matrix" values="0 0 0 0 0.470588 0 0 0 0 0.701961 0 0 0 0 0.392157 0 0 0 1 0"/>
<feBlend mode="normal" in2="shape" result="effect1_innerShadow_1_270"/>
<feColorMatrix in="SourceAlpha" type="matrix" values="0 0 0 0 0 0 0 0 0 0 0 0 0 0 0 0 0 0 127 0" result="hardAlpha"/>
<feOffset dx="1" dy="-1"/>
<feComposite in2="hardAlpha" operator="arithmetic" k2="-1" k3="1"/>
<feColorMatrix type="matrix" values="0 0 0 0 1 0 0 0 0 1 0 0 0 0 1 0 0 0 0.6 0"/>
<feBlend mode="normal" in2="effect1_innerShadow_1_270" result="effect2_innerShadow_1_270"/>
</filter>
<filter id="filter6_i_1_270" x="0.458023" y="30.8566" width="21.7229" height="10.7938" filterUnits="userSpaceOnUse" color-interpolation-filters="sRGB">
<feFlood flood-opacity="0" result="BackgroundImageFix"/>
<feBlend mode="normal" in="SourceGraphic" in2="BackgroundImageFix" result="shape"/>
<feColorMatrix in="SourceAlpha" type="matrix" values="0 0 0 0 0 0 0 0 0 0 0 0 0 0 0 0 0 0 127 0" result="hardAlpha"/>
<feOffset dx="-4" dy="-3"/>
<feComposite in2="hardAlpha" operator="arithmetic" k2="-1" k3="1"/>
<feColorMatrix type="matrix" values="0 0 0 0 0.470588 0 0 0 0 0.701961 0 0 0 0 0.392157 0 0 0 1 0"/>
<feBlend mode="normal" in2="shape" result="effect1_innerShadow_1_270"/>
</filter>
<filter id="filter7_i_1_270" x="7.80762" y="30.7629" width="13.5353" height="9.61178" filterUnits="userSpaceOnUse" color-interpolation-filters="sRGB">
<feFlood flood-opacity="0" result="BackgroundImageFix"/>
<feBlend mode="normal" in="SourceGraphic" in2="BackgroundImageFix" result="shape"/>
<feColorMatrix in="SourceAlpha" type="matrix" values="0 0 0 0 0 0 0 0 0 0 0 0 0 0 0 0 0 0 127 0" result="hardAlpha"/>
<feOffset dx="-5" dy="-2"/>
<feComposite in2="hardAlpha" operator="arithmetic" k2="-1" k3="1"/>
<feColorMatrix type="matrix" values="0 0 0 0 0.857959 0 0 0 0 0.857959 0 0 0 0 0.747586 0 0 0 1 0"/>
<feBlend mode="normal" in2="shape" result="effect1_innerShadow_1_270"/>
</filter>
<filter id="filter8_i_1_270" x="7.8402" y="31.6495" width="22.2999" height="9.519" filterUnits="userSpaceOnUse" color-interpolation-filters="sRGB">
<feFlood flood-opacity="0" result="BackgroundImageFix"/>
<feBlend mode="normal" in="SourceGraphic" in2="BackgroundImageFix" result="shape"/>
<feColorMatrix in="SourceAlpha" type="matrix" values="0 0 0 0 0 0 0 0 0 0 0 0 0 0 0 0 0 0 127 0" result="hardAlpha"/>
<feOffset dx="-4" dy="-3"/>
<feComposite in2="hardAlpha" operator="arithmetic" k2="-1" k3="1"/>
<feColorMatrix type="matrix" values="0 0 0 0 0.470588 0 0 0 0 0.701961 0 0 0 0 0.392157 0 0 0 1 0"/>
<feBlend mode="normal" in2="shape" result="effect1_innerShadow_1_270"/>
</filter>
<filter id="filter9_i_1_270" x="15.6301" y="30.927" width="15.0038" height="9.55612" filterUnits="userSpaceOnUse" color-interpolation-filters="sRGB">
<feFlood flood-opacity="0" result="BackgroundImageFix"/>
<feBlend mode="normal" in="SourceGraphic" in2="BackgroundImageFix" result="shape"/>
<feColorMatrix in="SourceAlpha" type="matrix" values="0 0 0 0 0 0 0 0 0 0 0 0 0 0 0 0 0 0 127 0" result="hardAlpha"/>
<feOffset dx="-6"/>
<feComposite in2="hardAlpha" operator="arithmetic" k2="-1" k3="1"/>
<feColorMatrix type="matrix" values="0 0 0 0 0.857959 0 0 0 0 0.857959 0 0 0 0 0.747586 0 0 0 1 0"/>
<feBlend mode="normal" in2="shape" result="effect1_innerShadow_1_270"/>
</filter>
<filter id="filter10_i_1_270" x="16.3624" y="25.0831" width="2.20689" height="2.5835" filterUnits="userSpaceOnUse" color-interpolation-filters="sRGB">
<feFlood flood-opacity="0" result="BackgroundImageFix"/>
<feBlend mode="normal" in="SourceGraphic" in2="BackgroundImageFix" result="shape"/>
<feColorMatrix in="SourceAlpha" type="matrix" values="0 0 0 0 0 0 0 0 0 0 0 0 0 0 0 0 0 0 127 0" result="hardAlpha"/>
<feOffset dy="2"/>
<feComposite in2="hardAlpha" operator="arithmetic" k2="-1" k3="1"/>
<feColorMatrix type="matrix" values="0 0 0 0 0 0 0 0 0 0 0 0 0 0 0 0 0 0 0.25 0"/>
<feBlend mode="normal" in2="shape" result="effect1_innerShadow_1_270"/>
</filter>
<filter id="filter11_i_1_270" x="18.9371" y="25.0358" width="2.02299" height="2.44693" filterUnits="userSpaceOnUse" color-interpolation-filters="sRGB">
<feFlood flood-opacity="0" result="BackgroundImageFix"/>
<feBlend mode="normal" in="SourceGraphic" in2="BackgroundImageFix" result="shape"/>
<feColorMatrix in="SourceAlpha" type="matrix" values="0 0 0 0 0 0 0 0 0 0 0 0 0 0 0 0 0 0 127 0" result="hardAlpha"/>
<feOffset dy="2"/>
<feComposite in2="hardAlpha" operator="arithmetic" k2="-1" k3="1"/>
<feColorMatrix type="matrix" values="0 0 0 0 0 0 0 0 0 0 0 0 0 0 0 0 0 0 0.25 0"/>
<feBlend mode="normal" in2="shape" result="effect1_innerShadow_1_270"/>
</filter>
<filter id="filter12_i_1_270" x="18.672" y="27.5401" width="5.25664" height="5.83236" filterUnits="userSpaceOnUse" color-interpolation-filters="sRGB">
<feFlood flood-opacity="0" result="BackgroundImageFix"/>
<feBlend mode="normal" in="SourceGraphic" in2="BackgroundImageFix" result="shape"/>
<feColorMatrix in="SourceAlpha" type="matrix" values="0 0 0 0 0 0 0 0 0 0 0 0 0 0 0 0 0 0 127 0" result="hardAlpha"/>
<feOffset dx="1" dy="2"/>
<feComposite in2="hardAlpha" operator="arithmetic" k2="-1" k3="1"/>
<feColorMatrix type="matrix" values="0 0 0 0 0 0 0 0 0 0 0 0 0 0 0 0 0 0 0.25 0"/>
<feBlend mode="normal" in2="shape" result="effect1_innerShadow_1_270"/>
</filter>
<filter id="filter13_ii_1_270" x="6.64911" y="0.850014" width="29.7251" height="18.4201" filterUnits="userSpaceOnUse" color-interpolation-filters="sRGB">
<feFlood flood-opacity="0" result="BackgroundImageFix"/>
<feBlend mode="normal" in="SourceGraphic" in2="BackgroundImageFix" result="shape"/>
<feColorMatrix in="SourceAlpha" type="matrix" values="0 0 0 0 0 0 0 0 0 0 0 0 0 0 0 0 0 0 127 0" result="hardAlpha"/>
<feOffset dy="-3"/>
<feComposite in2="hardAlpha" operator="arithmetic" k2="-1" k3="1"/>
<feColorMatrix type="matrix" values="0 0 0 0 0 0 0 0 0 0 0 0 0 0 0 0 0 0 0.25 0"/>
<feBlend mode="normal" in2="shape" result="effect1_innerShadow_1_270"/>
<feColorMatrix in="SourceAlpha" type="matrix" values="0 0 0 0 0 0 0 0 0 0 0 0 0 0 0 0 0 0 127 0" result="hardAlpha"/>
<feOffset dx="2" dy="2"/>
<feComposite in2="hardAlpha" operator="arithmetic" k2="-1" k3="1"/>
<feColorMatrix type="matrix" values="0 0 0 0 1 0 0 0 0 1 0 0 0 0 1 0 0 0 0.25 0"/>
<feBlend mode="normal" in2="effect1_innerShadow_1_270" result="effect2_innerShadow_1_270"/>
</filter>
<filter id="filter14_i_1_270" x="30.7072" y="15.6132" width="7.13543" height="8.43876" filterUnits="userSpaceOnUse" color-interpolation-filters="sRGB">
<feFlood flood-opacity="0" result="BackgroundImageFix"/>
<feBlend mode="normal" in="SourceGraphic" in2="BackgroundImageFix" result="shape"/>
<feColorMatrix in="SourceAlpha" type="matrix" values="0 0 0 0 0 0 0 0 0 0 0 0 0 0 0 0 0 0 127 0" result="hardAlpha"/>
<feOffset dx="-2" dy="3"/>
<feComposite in2="hardAlpha" operator="arithmetic" k2="-1" k3="1"/>
<feColorMatrix type="matrix" values="0 0 0 0 0.470588 0 0 0 0 0.701961 0 0 0 0 0.392157 0 0 0 1 0"/>
<feBlend mode="normal" in2="shape" result="effect1_innerShadow_1_270"/>
</filter>
<filter id="filter15_d_1_270" x="19.5406" y="14.713" width="8.28698" height="8.28699" filterUnits="userSpaceOnUse" color-interpolation-filters="sRGB">
<feFlood flood-opacity="0" result="BackgroundImageFix"/>
<feColorMatrix in="SourceAlpha" type="matrix" values="0 0 0 0 0 0 0 0 0 0 0 0 0 0 0 0 0 0 127 0" result="hardAlpha"/>
<feMorphology radius="1" operator="dilate" in="SourceAlpha" result="effect1_dropShadow_1_270"/>
<feOffset dx="0.5"/>
<feComposite in2="hardAlpha" operator="out"/>
<feColorMatrix type="matrix" values="0 0 0 0 0.470588 0 0 0 0 0.701961 0 0 0 0 0.392157 0 0 0 1 0"/>
<feBlend mode="normal" in2="BackgroundImageFix" result="effect1_dropShadow_1_270"/>
<feBlend mode="normal" in="SourceGraphic" in2="effect1_dropShadow_1_270" result="shape"/>
</filter>
<filter id="filter16_i_1_270" x="20.1494" y="15.5842" width="6.14486" height="3.20898" filterUnits="userSpaceOnUse" color-interpolation-filters="sRGB">
<feFlood flood-opacity="0" result="BackgroundImageFix"/>
<feBlend mode="normal" in="SourceGraphic" in2="BackgroundImageFix" result="shape"/>
<feColorMatrix in="SourceAlpha" type="matrix" values="0 0 0 0 0 0 0 0 0 0 0 0 0 0 0 0 0 0 127 0" result="hardAlpha"/>
<feOffset dx="-4" dy="1"/>
<feComposite in2="hardAlpha" operator="arithmetic" k2="-1" k3="1"/>
<feColorMatrix type="matrix" values="0 0 0 0 0.52301 0 0 0 0 0.717529 0 0 0 0 0.460368 0 0 0 1 0"/>
<feBlend mode="normal" in2="shape" result="effect1_innerShadow_1_270"/>
</filter>
<filter id="filter17_d_1_270" x="10.1095" y="14.713" width="7.28698" height="7.28699" filterUnits="userSpaceOnUse" color-interpolation-filters="sRGB">
<feFlood flood-opacity="0" result="BackgroundImageFix"/>
<feColorMatrix in="SourceAlpha" type="matrix" values="0 0 0 0 0 0 0 0 0 0 0 0 0 0 0 0 0 0 127 0" result="hardAlpha"/>
<feMorphology radius="0.5" operator="dilate" in="SourceAlpha" result="effect1_dropShadow_1_270"/>
<feOffset dx="0.5" dy="-0.5"/>
<feComposite in2="hardAlpha" operator="out"/>
<feColorMatrix type="matrix" values="0 0 0 0 0.470588 0 0 0 0 0.701961 0 0 0 0 0.392157 0 0 0 1 0"/>
<feBlend mode="normal" in2="BackgroundImageFix" result="effect1_dropShadow_1_270"/>
<feBlend mode="normal" in="SourceGraphic" in2="effect1_dropShadow_1_270" result="shape"/>
</filter>
<filter id="filter18_i_1_270" x="10.2183" y="15.5842" width="6.14486" height="3.20898" filterUnits="userSpaceOnUse" color-interpolation-filters="sRGB">
<feFlood flood-opacity="0" result="BackgroundImageFix"/>
<feBlend mode="normal" in="SourceGraphic" in2="BackgroundImageFix" result="shape"/>
<feColorMatrix in="SourceAlpha" type="matrix" values="0 0 0 0 0 0 0 0 0 0 0 0 0 0 0 0 0 0 127 0" result="hardAlpha"/>
<feOffset dx="-4" dy="1"/>
<feComposite in2="hardAlpha" operator="arithmetic" k2="-1" k3="1"/>
<feColorMatrix type="matrix" values="0 0 0 0 0.52301 0 0 0 0 0.717529 0 0 0 0 0.460368 0 0 0 1 0"/>
<feBlend mode="normal" in2="shape" result="effect1_innerShadow_1_270"/>
</filter>
<filter id="filter19_i_1_270" x="8.0541" y="12.201" width="6.97545" height="4.00021" filterUnits="userSpaceOnUse" color-interpolation-filters="sRGB">
<feFlood flood-opacity="0" result="BackgroundImageFix"/>
<feBlend mode="normal" in="SourceGraphic" in2="BackgroundImageFix" result="shape"/>
<feColorMatrix in="SourceAlpha" type="matrix" values="0 0 0 0 0 0 0 0 0 0 0 0 0 0 0 0 0 0 127 0" result="hardAlpha"/>
<feOffset dx="-2" dy="2"/>
<feComposite in2="hardAlpha" operator="arithmetic" k2="-1" k3="1"/>
<feColorMatrix type="matrix" values="0 0 0 0 0.280032 0 0 0 0 0.445199 0 0 0 0 0.228418 0 0 0 1 0"/>
<feBlend mode="normal" in2="shape" result="effect1_innerShadow_1_270"/>
</filter>
<filter id="filter20_i_1_270" x="20.9941" y="12.2523" width="6.55281" height="4.3923" filterUnits="userSpaceOnUse" color-interpolation-filters="sRGB">
<feFlood flood-opacity="0" result="BackgroundImageFix"/>
<feBlend mode="normal" in="SourceGraphic" in2="BackgroundImageFix" result="shape"/>
<feColorMatrix in="SourceAlpha" type="matrix" values="0 0 0 0 0 0 0 0 0 0 0 0 0 0 0 0 0 0 127 0" result="hardAlpha"/>
<feOffset dx="-2" dy="2"/>
<feComposite in2="hardAlpha" operator="arithmetic" k2="-1" k3="1"/>
<feColorMatrix type="matrix" values="0 0 0 0 0.280032 0 0 0 0 0.445199 0 0 0 0 0.228418 0 0 0 1 0"/>
<feBlend mode="normal" in2="shape" result="effect1_innerShadow_1_270"/>
</filter>
</defs>
</svg>
