<svg width="64" height="64" viewBox="0 0 64 64" fill="none" xmlns="http://www.w3.org/2000/svg">
<path d="M22.9138 62.8853H27.1297C28.0539 62.8853 28.8577 62.2522 29.0741 61.3537L32.3889 47.5953C32.5004 47.1323 32.456 46.635 32.1736 46.2514C30.3481 43.7716 25.9544 42.7475 24.8775 45.3144C24.4535 46.3253 23.3503 55.9234 22.9044 59.5101C22.8211 60.1805 22.1141 60.8175 21.6599 61.3177C20.9475 62.1022 21.8541 62.8853 22.9138 62.8853Z" fill="#A5E092"/>
<path d="M22.9138 62.8853H27.1297C28.0539 62.8853 28.8577 62.2522 29.0741 61.3537L32.3889 47.5953C32.5004 47.1323 32.456 46.635 32.1736 46.2514C30.3481 43.7716 25.9544 42.7475 24.8775 45.3144C24.4535 46.3253 23.3503 55.9234 22.9044 59.5101C22.8211 60.1805 22.1141 60.8175 21.6599 61.3177C20.9475 62.1022 21.8541 62.8853 22.9138 62.8853Z" stroke="black" stroke-width="0.3" stroke-linecap="round" stroke-linejoin="round"/>
<path d="M29.4946 31.4143L34.7937 31.1026C35.7922 31.0439 36.6806 31.7319 36.8736 32.7133L39.2401 44.7496C39.3951 45.5377 39.0671 46.3485 38.383 46.7695C33.5493 49.744 30.3666 49.6005 25.6237 47.7358C24.7091 47.3762 24.2268 46.381 24.4706 45.4289L27.6745 32.9148C27.8903 32.0721 28.6261 31.4654 29.4946 31.4143Z" fill="#A5E092"/>
<path d="M29.4946 31.4143L34.7937 31.1026C35.7922 31.0439 36.6806 31.7319 36.8736 32.7133L39.2401 44.7496C39.3951 45.5377 39.0671 46.3485 38.383 46.7695C33.5493 49.744 30.3666 49.6005 25.6237 47.7358C24.7091 47.3762 24.2268 46.381 24.4706 45.4289L27.6745 32.9148C27.8903 32.0721 28.6261 31.4654 29.4946 31.4143Z" stroke="black" stroke-width="0.5" stroke-linecap="round" stroke-linejoin="round"/>
<path d="M36.1521 62.6091L39.7908 62.4088C40.9981 62.3423 41.8708 61.2281 41.646 60.04L39.1421 46.8065C39.0478 46.3076 38.7748 45.8472 38.3192 45.6231C35.5675 44.2696 31.2226 45.3194 31.4097 48.0617C31.4816 49.1174 33.8352 55.6636 34.8965 58.6719C35.1503 59.3912 34.8904 60.1707 34.6617 60.8984C34.6252 61.0148 34.5976 61.1309 34.5776 61.2453C34.4275 62.1042 35.2815 62.6571 36.1521 62.6091Z" fill="#A5E092"/>
<path d="M36.1521 62.6091L39.7908 62.4088C40.9981 62.3423 41.8708 61.2281 41.646 60.04L39.1421 46.8065C39.0478 46.3076 38.7748 45.8472 38.3192 45.6231C35.5675 44.2696 31.2226 45.3194 31.4097 48.0617C31.4816 49.1174 33.8352 55.6636 34.8965 58.6719C35.1503 59.3912 34.8904 60.1707 34.6617 60.8984C34.6252 61.0148 34.5976 61.1309 34.5776 61.2453C34.4275 62.1042 35.2815 62.6571 36.1521 62.6091Z" stroke="black" stroke-width="0.3" stroke-linecap="round" stroke-linejoin="round"/>
<path d="M24.4664 47.0358C24.1683 49.066 23.7179 51.9428 23.3677 53.665C23.2247 54.3686 23.7089 55.4163 24.3755 55.683L24.4693 55.7205C24.7897 55.8487 25.1537 55.8025 25.432 55.5984L26.8613 54.5502C27.4202 54.1404 28.2165 54.4096 28.412 55.0745L28.8075 56.419C28.9327 56.8446 29.3232 57.1368 29.7668 57.1368H30.105C30.5394 57.1368 30.9241 56.8564 31.057 56.4428L32.6493 51.489L33.6862 55.3775C33.9019 56.1864 34.9838 56.3388 35.4145 55.6209L35.4688 55.5304C35.771 55.0268 36.4751 54.961 36.8653 55.4C37.2669 55.8518 37.9953 55.7666 38.2818 55.2345L38.5709 54.6976C38.8366 54.2043 39.5026 54.1065 39.8988 54.5027C40.4724 55.0763 41.4447 54.5795 41.316 53.7786L40.0571 45.9453C39.9744 45.4308 39.5105 45.0661 38.9911 45.1071L25.3791 46.1817C24.9126 46.2185 24.5344 46.5728 24.4664 47.0358Z" fill="#765C62"/>
<path d="M32.6493 51.489L33.6862 55.3775C33.9019 56.1864 34.9838 56.3388 35.4145 55.6209L35.4688 55.5304C35.771 55.0268 36.4751 54.961 36.8653 55.4C37.2669 55.8518 37.9953 55.7666 38.2818 55.2345L38.5709 54.6976C38.8366 54.2043 39.5026 54.1065 39.8988 54.5027C40.4724 55.0763 41.4447 54.5795 41.316 53.7786L40.0571 45.9453C39.9744 45.4308 39.5105 45.0661 38.9911 45.1071L25.3791 46.1817C24.9126 46.2185 24.5344 46.5728 24.4664 47.0358C24.1683 49.066 23.7179 51.9428 23.3677 53.665C23.2247 54.3686 23.7089 55.4163 24.3755 55.683L24.4693 55.7205C24.7897 55.8487 25.1537 55.8025 25.432 55.5984L26.8613 54.5502C27.4202 54.1404 28.2165 54.4096 28.412 55.0745L28.8075 56.419C28.9327 56.8446 29.3232 57.1368 29.7668 57.1368H30.105C30.5394 57.1368 30.9241 56.8564 31.057 56.4428L32.6493 51.489ZM32.6493 51.489L34.6664 51.0856M32.6493 51.489H31.2374" stroke="#1D271A" stroke-width="0.3" stroke-linecap="round" stroke-linejoin="round"/>
<path d="M32.8944 48.6077L32.1998 34.7918C32.1628 34.0566 32.5327 33.3605 33.1627 32.9798L34.8499 31.9599L35.1374 31.7861C36.3193 31.0718 37.8497 31.7394 38.1189 33.0939C39.1311 38.1852 41.107 48.4953 40.4786 48.341C39.4078 48.0781 37.951 48.5089 36.8962 48.8299C36.6813 48.8953 36.468 49.0182 36.268 49.2214C35.7891 49.7081 35.2346 50.1839 34.5518 50.1839C33.6677 50.1839 32.9388 49.4907 32.8944 48.6077Z" fill="#FFFFE1"/>
<path d="M32.8944 48.6077L32.1998 34.7918C32.1628 34.0566 32.5327 33.3605 33.1627 32.9798L34.8499 31.9599L35.1374 31.7861C36.3193 31.0718 37.8497 31.7394 38.1189 33.0939C39.1311 38.1852 41.107 48.4953 40.4786 48.341C39.4078 48.0781 37.951 48.5089 36.8962 48.8299C36.6813 48.8953 36.468 49.0182 36.268 49.2214C35.7891 49.7081 35.2346 50.1839 34.5518 50.1839C33.6677 50.1839 32.9388 49.4907 32.8944 48.6077Z" stroke="#1D271A" stroke-width="0.3" stroke-linecap="round" stroke-linejoin="round"/>
<path d="M28.4615 48.4476V33.8565C28.4615 33.7624 28.4478 33.6675 28.4216 33.5771C28.1301 32.5703 26.672 32.5952 26.469 33.6235L24.1473 45.3841C23.9769 46.2471 25.5325 46.8832 25.6722 47.7517C25.7701 48.3603 26.4743 48.8962 27.2031 49.2829C27.8012 49.6002 28.4615 49.1246 28.4615 48.4476Z" fill="#FFFFE1" stroke="#1D271A" stroke-width="0.2" stroke-linecap="round" stroke-linejoin="round"/>
<path d="M20.5344 8.36843C24.0478 2.45784 37.4731 3.19347 42.6416 8.36843C47.8102 13.5434 47.0721 23.2668 40.9673 28.9406C34.8626 34.6144 24.8026 32.0925 21.2892 28.205C17.7758 24.3175 17.021 14.279 20.5344 8.36843Z" fill="#A5E092"/>
<path d="M20.6632 8.44523C21.5189 7.0057 22.9839 5.96141 24.7962 5.28793C26.6081 4.61458 28.7576 4.31579 30.9641 4.36147C35.3836 4.45296 39.9884 5.92437 42.5354 8.47458C47.6319 13.5774 46.9208 23.2026 40.8651 28.8308C37.8532 31.6302 33.8598 32.4132 30.1727 32.0093C26.4814 31.6049 23.1261 30.014 21.4004 28.1045C19.677 26.1976 18.6144 22.7567 18.4265 19.0379C18.2388 15.323 18.9261 11.3677 20.6632 8.44523Z" stroke="#1D271A" stroke-width="0.3"/>
<path d="M31.4037 43.1954C31.4037 43.3985 31.1567 43.5632 30.852 43.5632C30.5473 43.5632 30.3003 43.3985 30.3003 43.1954C30.3003 42.9923 30.5473 42.8276 30.852 42.8276C31.1567 42.8276 31.4037 42.9923 31.4037 43.1954Z" fill="#1D271A"/>
<path d="M28.4351 24.1928C28.6528 24.1928 28.8292 24.0087 28.8292 23.7816C28.8292 23.5545 28.6528 23.3704 28.4351 23.3704C28.2175 23.3704 28.041 23.5545 28.041 23.7816C28.041 24.0087 28.2175 24.1928 28.4351 24.1928Z" fill="#39582F"/>
<path d="M27.3843 24.1757C27.602 24.1757 27.7784 23.9916 27.7784 23.7645C27.7784 23.5374 27.602 23.3533 27.3843 23.3533C27.1667 23.3533 26.9902 23.5374 26.9902 23.7645C26.9902 23.9916 27.1667 24.1757 27.3843 24.1757Z" fill="#39582F"/>
<path d="M27.3581 14.5057C28.9832 14.5057 30.3006 13.7646 30.3006 12.8505C30.3006 11.9364 28.9832 11.1953 27.3581 11.1953C25.7329 11.1953 24.4155 11.9364 24.4155 12.8505C24.4155 13.7646 25.7329 14.5057 27.3581 14.5057Z" fill="#78B166"/>
<path d="M30.1163 10.8276C30.6242 10.8276 31.0359 10.5806 31.0359 10.2758C31.0359 9.97114 30.6242 9.72412 30.1163 9.72412C29.6085 9.72412 29.1968 9.97114 29.1968 10.2758C29.1968 10.5806 29.6085 10.8276 30.1163 10.8276Z" fill="#78B166"/>
<path d="M27.1739 10.8276C27.6818 10.8276 28.0935 10.5806 28.0935 10.2758C28.0935 9.97114 27.6818 9.72412 27.1739 9.72412C26.6661 9.72412 26.2544 9.97114 26.2544 10.2758C26.2544 10.5806 26.6661 10.8276 27.1739 10.8276Z" fill="#D0F9C3"/>
<path d="M11.6519 37.2684C16.3525 34.14 29.1622 31.2959 30.6135 32.1652C32.0649 33.0345 32.4741 33.5049 30.994 34.7498C29.5139 35.9947 17.4199 42.3416 16.2617 42.4899C15.1035 42.6383 13.9884 41.1493 14.641 40.8937C13.5304 41.3288 8.18957 39.5726 11.6519 37.2684Z" fill="#A5E092"/>
<path d="M11.6519 37.2684C16.3525 34.14 29.1622 31.2959 30.6135 32.1652C32.0649 33.0345 32.4741 33.5049 30.994 34.7498C29.5139 35.9947 17.4199 42.3416 16.2617 42.4899C15.1035 42.6383 13.9884 41.1493 14.641 40.8937C13.5304 41.3288 8.18957 39.5726 11.6519 37.2684Z" stroke="#1D271A" stroke-width="0.3" stroke-linecap="round" stroke-linejoin="round"/>
<path d="M18.2552 36.058L18.2665 36.0389C18.4864 35.6661 18.4277 35.1919 18.1236 34.8838C17.6068 34.3603 17.8543 33.4884 18.5771 33.3514C22.0066 32.7011 27.0445 32.1984 28.0366 32C30.2368 31.56 31.089 32.8889 31.0848 33.7021C31.0838 33.8999 30.9516 34.0625 30.7921 34.1797L21.3785 41.098C20.7084 41.5905 19.2733 40.538 19.6958 39.8217C19.9017 39.4725 19.0247 38.1279 18.3205 37.1724C18.08 36.8459 18.0492 36.4073 18.2552 36.058Z" fill="#FFFFE1"/>
<path d="M18.2552 36.058L18.2665 36.0389C18.4864 35.6661 18.4277 35.1919 18.1236 34.8838C17.6068 34.3603 17.8543 33.4884 18.5771 33.3514C22.0066 32.7011 27.0445 32.1984 28.0366 32C30.2368 31.56 31.089 32.8889 31.0848 33.7021C31.0838 33.8999 30.9516 34.0625 30.7921 34.1797L21.3785 41.098C20.7084 41.5905 19.2733 40.538 19.6958 39.8217C19.9017 39.4725 19.0247 38.1279 18.3205 37.1724C18.08 36.8459 18.0492 36.4073 18.2552 36.058Z" stroke="black" stroke-width="0.3" stroke-linecap="round" stroke-linejoin="round"/>
<path d="M22.0341 42.0182C27.723 42.0499 39.0404 37.7617 39.6648 36.4735C40.2893 35.1853 39.5399 33.0813 37.7792 32.8322C36.0184 32.583 27.7949 33.7998 22.6667 34.8248C21.1459 35.1287 19.0752 34.6791 19.2194 36.7928C16.5732 38.5757 18.0323 41.9959 22.0341 42.0182Z" fill="#A5E092"/>
<path d="M22.0341 42.0182C27.723 42.0499 39.0404 37.7617 39.6648 36.4735C40.2893 35.1853 39.5399 33.0813 37.7792 32.8322C36.0184 32.583 27.7949 33.7998 22.6667 34.8248C21.1459 35.1287 19.0752 34.6791 19.2194 36.7928C16.5732 38.5757 18.0323 41.9959 22.0341 42.0182Z" stroke="black" stroke-width="0.3" stroke-linecap="round" stroke-linejoin="round"/>
<path d="M28.5858 41.3331C33.0179 39.7672 35.6021 38.6985 39.2032 37.4262C42.037 34.5 39.7113 31.1414 32.4966 32.3181C30.5855 32.6298 26.7648 33.4397 26.0271 33.8249C25.1049 34.3065 26.1255 34.5691 27.4303 35.6659C28.4311 36.5071 28.3671 37.0485 28.5566 37.6047C28.7083 38.0496 28.1715 39.662 27.9297 40.3187L28.5858 41.3331Z" fill="#FFFFE1"/>
<path d="M28.5858 41.3331C33.0179 39.7672 35.6021 38.6985 39.2032 37.4262C42.037 34.5 39.7113 31.1414 32.4966 32.3181C30.5855 32.6298 26.7648 33.4397 26.0271 33.8249C25.1049 34.3065 26.1255 34.5691 27.4303 35.6659C28.4311 36.5071 28.3671 37.0485 28.5566 37.6047C28.7083 38.0496 28.1715 39.662 27.9297 40.3187L28.5858 41.3331Z" stroke="#1D271A" stroke-width="0.3" stroke-linecap="round" stroke-linejoin="round"/>
<path d="M28.4614 30.388C29.6567 30.388 30.6695 30.1619 31.3929 29.7465C32.1215 29.3283 32.5734 28.7042 32.5734 27.9311C32.5734 27.1641 32.1282 26.4957 31.4036 26.0302C30.6803 25.5656 29.6647 25.2903 28.4614 25.2903C27.2642 25.2903 26.5261 25.5636 26.104 26.0829C25.6913 26.5906 25.6367 27.2717 25.6367 27.9311C25.6367 28.5881 25.6901 29.2329 26.113 29.6979C26.539 30.1663 27.2766 30.388 28.4614 30.388Z" fill="#1D271A" stroke="#44633A" stroke-width="0.5"/>
<path d="M26.2544 28.6667L26.6222 27.0116C27.0457 25.7011 27.5367 25.9704 28.4613 26.6438L28.0935 28.6667H26.2544Z" fill="white"/>
<path d="M26.2544 28.6667L26.6222 27.0116C27.0457 25.7011 27.5367 25.9704 28.4613 26.6438L28.0935 28.6667H26.2544Z" stroke="black"/>
<path d="M29.013 28.4829L28.8291 26.6438C29.1969 26.4599 29.5647 25.7242 30.4153 26.1856L30.8521 28.115L29.013 28.4829Z" fill="white"/>
<path d="M29.013 28.4829L28.8291 26.6438C29.1969 26.4599 29.5647 25.7242 30.4153 26.1856L30.8521 28.115L29.013 28.4829Z" stroke="black"/>
<path d="M26.1342 27.4338C26.0869 27.4991 26.0398 27.5642 25.9922 27.6287C26.0126 27.098 26.0996 26.6432 26.3758 26.3034C26.6993 25.9055 27.3052 25.6401 28.4616 25.6401C29.6155 25.6401 30.561 25.9046 31.2146 26.3245C31.782 26.689 32.1251 27.1666 32.2054 27.6906C31.8325 27.3579 31.5285 27.0981 31.2622 26.9021C30.9527 26.6743 30.6884 26.5286 30.4189 26.4551C29.8903 26.311 29.3646 26.4527 28.4847 26.7162C28.1709 26.4564 27.8892 26.3269 27.6278 26.3054C27.3522 26.2827 27.1156 26.3813 26.9066 26.5411C26.6997 26.6994 26.5147 26.9214 26.3386 27.1553C26.269 27.2476 26.2015 27.3409 26.1342 27.4338Z" fill="#E275A0" stroke="#1D271A" stroke-width="0.2"/>
<path d="M30.1026 32.4614C30.0799 33.1371 32.1993 35.6912 33.5914 33.2119C34.2812 30.4688 32.075 28.2058 30.2309 28.7115C29.6338 28.8753 29.0747 29.3293 28.6641 30.1513C29.7322 30.1743 30.1026 32.4614 30.1026 32.4614Z" fill="#EFA9C4"/>
<path d="M30.2309 28.7115C29.6338 28.8753 29.0747 29.3293 28.6641 30.1513C29.7322 30.1743 30.1026 32.4614 30.1026 32.4614C30.0799 33.1371 32.1993 35.6912 33.5914 33.2119C34.2812 30.4688 32.075 28.2058 30.2309 28.7115ZM30.2309 28.7115C30.773 29.0846 31.8837 30.0861 31.9899 31.1078" stroke="#1D271A" stroke-width="0.2" stroke-linecap="round" stroke-linejoin="round"/>
<path d="M39.7034 6.0417C30.4598 -4.18339 20.2153 8.96317 17.3829 2.91156C14.862 7.08508 19.9039 11.8846 21.7947 7.08508C23.2653 11.4673 27.8871 11.2586 29.9879 10.2152C32.0887 9.17182 32.1404 6.45908 38.653 8.33716C38.653 12.928 39.4933 14.8061 41.5941 16.4755V20.023L46.0059 17.7276C46.6019 11.7373 44.7454 8.1285 41.5941 7.08508C46.0059 5.62439 39.2832 -1.26191 39.7034 6.0417Z" fill="#31412C"/>
<path d="M39.7034 6.0417C30.4598 -4.18339 20.2153 8.96317 17.3829 2.91156C14.862 7.08508 19.9039 11.8846 21.7947 7.08508C23.2653 11.4673 27.8871 11.2586 29.9879 10.2152C32.0887 9.17182 32.1404 6.45908 38.653 8.33716C38.653 12.928 39.4933 14.8061 41.5941 16.4755V20.023L46.0059 17.7276C46.6019 11.7373 44.7454 8.1285 41.5941 7.08508C46.0059 5.62439 39.2832 -1.26191 39.7034 6.0417Z" stroke="#1D271A" stroke-width="0.3"/>
<path d="M41.234 18.5942C42.209 16.9667 45.47 15.8395 46.9044 17.2645C48.3387 18.6894 47.8105 22.494 46.1164 24.0563C44.4222 25.6186 42.4185 25.1267 41.4435 24.0563C40.4685 22.9858 40.259 20.2217 41.234 18.5942Z" fill="#A5E092"/>
<path d="M41.3631 18.6711C41.8248 17.9005 42.8449 17.2296 43.9371 16.9291C45.0325 16.6278 46.1383 16.7142 46.7991 17.3707C47.4667 18.034 47.6976 19.2821 47.5351 20.5902C47.3733 21.8926 46.8278 23.1964 46.0151 23.9458C44.3883 25.446 42.4796 24.9704 41.5548 23.9551C41.1009 23.4567 40.8093 22.5388 40.7577 21.5263C40.7063 20.5178 40.8953 19.4519 41.3631 18.6711Z" stroke="#1D271A" stroke-width="0.3"/>
<path d="M42.4385 20.5746C43.4194 19.3486 45.5282 17.6321 46.1167 20.5746" stroke="black" stroke-width="0.3" stroke-linecap="round" stroke-linejoin="round"/>
<path d="M33.0761 22.9999C34.8122 22.9999 36.2196 21.5925 36.2196 19.8564C36.2196 18.1203 34.8122 16.7129 33.0761 16.7129C31.34 16.7129 29.9326 18.1203 29.9326 19.8564C29.9326 21.5925 31.34 22.9999 33.0761 22.9999Z" fill="#F3D16D"/>
<path d="M36.0694 19.8563C36.0694 21.5095 34.7292 22.8498 33.076 22.8498C31.4227 22.8498 30.0825 21.5095 30.0825 19.8563C30.0825 18.203 31.4227 16.8628 33.076 16.8628C34.7292 16.8628 36.0694 18.203 36.0694 19.8563Z" stroke="#1D271A" stroke-width="0.3"/>
<path d="M34.7085 21.5765C35.4898 21.5765 36.1231 20.9431 36.1231 20.1619C36.1231 19.3806 35.4898 18.7473 34.7085 18.7473C33.9273 18.7473 33.2939 19.3806 33.2939 20.1619C33.2939 20.9431 33.9273 21.5765 34.7085 21.5765Z" fill="#1D271A"/>
<path d="M35.6517 20.0048C35.9121 20.0048 36.1232 19.7937 36.1232 19.5333C36.1232 19.2729 35.9121 19.0618 35.6517 19.0618C35.3913 19.0618 35.1802 19.2729 35.1802 19.5333C35.1802 19.7937 35.3913 20.0048 35.6517 20.0048Z" fill="white"/>
<path d="M35.3374 20.005C35.4242 20.005 35.4945 19.9347 35.4945 19.8478C35.4945 19.761 35.4242 19.6907 35.3374 19.6907C35.2505 19.6907 35.1802 19.761 35.1802 19.8478C35.1802 19.9347 35.2505 20.005 35.3374 20.005Z" fill="white"/>
<path d="M36.0362 19.3875C34.6572 18.058 31.5396 17.9589 30.1914 19.6431C30.5505 16.0396 35.3933 15.5913 36.0362 19.3875Z" fill="#A5E092"/>
<path d="M36.0362 19.3875C34.6572 18.058 31.5396 17.9589 30.1914 19.6431C30.5505 16.0396 35.3933 15.5913 36.0362 19.3875Z" stroke="#1D271A" stroke-width="0.3" stroke-linejoin="round"/>
<path d="M23.145 22.9999C24.8811 22.9999 26.2884 21.5925 26.2884 19.8564C26.2884 18.1203 24.8811 16.7129 23.145 16.7129C21.4089 16.7129 20.0015 18.1203 20.0015 19.8564C20.0015 21.5925 21.4089 22.9999 23.145 22.9999Z" fill="#F3D16D"/>
<path d="M26.1384 19.8563C26.1384 21.5095 24.7982 22.8498 23.1449 22.8498C21.4917 22.8498 20.1514 21.5095 20.1514 19.8563C20.1514 18.203 21.4917 16.8628 23.1449 16.8628C24.7982 16.8628 26.1384 18.203 26.1384 19.8563Z" stroke="#1D271A" stroke-width="0.3"/>
<path d="M21.835 21.2088C22.6162 21.2088 23.2495 20.5755 23.2495 19.7942C23.2495 19.013 22.6162 18.3796 21.835 18.3796C21.0537 18.3796 20.4204 19.013 20.4204 19.7942C20.4204 20.5755 21.0537 21.2088 21.835 21.2088Z" fill="#1D271A"/>
<path d="M22.7782 19.6371C23.0386 19.6371 23.2497 19.426 23.2497 19.1656C23.2497 18.9052 23.0386 18.6941 22.7782 18.6941C22.5177 18.6941 22.3066 18.9052 22.3066 19.1656C22.3066 19.426 22.5177 19.6371 22.7782 19.6371Z" fill="white"/>
<path d="M22.4638 19.6371C22.5506 19.6371 22.621 19.5667 22.621 19.4799C22.621 19.3931 22.5506 19.3228 22.4638 19.3228C22.377 19.3228 22.3066 19.3931 22.3066 19.4799C22.3066 19.5667 22.377 19.6371 22.4638 19.6371Z" fill="white"/>
<path d="M26.1052 19.3875C24.7262 18.058 21.6085 17.9589 20.2603 19.6431C20.6194 16.0396 25.4623 15.5913 26.1052 19.3875Z" fill="#A5E092"/>
<path d="M26.1052 19.3875C24.7262 18.058 21.6085 17.9589 20.2603 19.6431C20.6194 16.0396 25.4623 15.5913 26.1052 19.3875Z" stroke="#1D271A" stroke-width="0.3" stroke-linejoin="round"/>
<path d="M23.5881 15.9147C25.3943 15.8966 24.8345 14.4577 23.8798 13.3511L23.3796 14.1123C22.8446 13.8423 20.7441 13.6226 19.3568 14.1123C17.6227 14.7245 17.9596 15.894 18.6977 17.0101C19.4103 16.6725 21.3304 15.9373 23.5881 15.9147Z" fill="#31412C"/>
<path d="M23.8799 13.3509L23.7545 13.2686C23.7804 13.2292 23.8232 13.2043 23.8701 13.2012C23.9171 13.1982 23.9627 13.2173 23.9935 13.2529L23.8799 13.3509ZM18.6978 17.0099L18.7621 17.1454L18.6445 17.2011L18.5727 17.0926L18.6978 17.0099ZM23.3797 14.1121L23.5051 14.1945L23.4316 14.3063L23.3122 14.246L23.3797 14.1121ZM23.9935 13.2529C24.2374 13.5357 24.4581 13.8418 24.6228 14.144C24.7864 14.4442 24.9002 14.7503 24.919 15.0308C24.9382 15.3167 24.858 15.5848 24.6257 15.7774C24.401 15.9637 24.0567 16.0598 23.5897 16.0645L23.5867 15.7645C24.0227 15.7601 24.2858 15.6695 24.4342 15.5464C24.5752 15.4296 24.6341 15.2653 24.6197 15.0509C24.605 14.8311 24.5127 14.5689 24.3594 14.2875C24.207 14.0081 23.9997 13.7194 23.7663 13.4489L23.9935 13.2529ZM23.5897 16.0645C21.3605 16.0868 19.4623 16.8137 18.7621 17.1454L18.6336 16.8743C19.3585 16.5309 21.3005 15.7874 23.5867 15.7645L23.5897 16.0645ZM18.5727 17.0926C18.2018 16.5317 17.9062 15.923 17.9507 15.3602C17.9735 15.0725 18.0848 14.8018 18.3093 14.5634C18.5315 14.3274 18.8591 14.1288 19.307 13.9707L19.4068 14.2536C18.9877 14.4015 18.707 14.5786 18.5277 14.769C18.3508 14.957 18.2673 15.1632 18.2498 15.3839C18.2138 15.8379 18.4558 16.372 18.8229 16.9271L18.5727 17.0926ZM19.307 13.9707C20.0256 13.717 20.9186 13.6495 21.6933 13.6773C22.0821 13.6913 22.4449 13.7293 22.7462 13.7815C23.0433 13.833 23.293 13.9003 23.4473 13.9782L23.3122 14.246C23.199 14.1889 22.9855 14.1275 22.6949 14.0771C22.4085 14.0275 22.0592 13.9906 21.6825 13.9771C20.9264 13.95 20.0756 14.0175 19.4068 14.2536L19.307 13.9707ZM23.2544 14.0297L23.7545 13.2686L24.0053 13.4333L23.5051 14.1945L23.2544 14.0297Z" fill="#1D271A"/>
<path d="M32.0446 15.7876C30.5021 15.9385 30.9134 14.2578 32.0446 13.4023L32.8486 13.6034C33.4141 13.4524 35.1155 13.4022 36.3495 14.1268C37.8919 15.0327 37.2749 16.5424 36.3495 17.4483C35.7325 16.9954 34.2421 15.5725 32.0446 15.7876Z" fill="#31412C"/>
<path d="M32.0447 13.4022L32.0811 13.2567C32.037 13.2456 31.9904 13.2552 31.9542 13.2825L32.0447 13.4022ZM36.3496 17.4482L36.2608 17.5691L36.3635 17.6445L36.4545 17.5554L36.3496 17.4482ZM32.8487 13.6033L32.8123 13.7488L32.8499 13.7582L32.8874 13.7482L32.8487 13.6033ZM31.9542 13.2825C31.3646 13.7285 30.9495 14.3972 30.8928 14.9572C30.8642 15.2406 30.9266 15.5165 31.1326 15.7085C31.337 15.8989 31.6508 15.9767 32.0593 15.9367L32.0301 15.6382C31.6673 15.6737 31.4541 15.598 31.3371 15.489C31.2218 15.3816 31.1686 15.2122 31.1913 14.9873C31.2375 14.5308 31.5937 13.9314 32.1352 13.5218L31.9542 13.2825ZM32.0593 15.9367C34.1868 15.7285 35.6248 17.1022 36.2608 17.5691L36.4383 17.3273C35.8404 16.8883 34.2975 15.4162 32.0301 15.6382L32.0593 15.9367ZM36.4545 17.5554C36.9309 17.089 37.3409 16.4559 37.4238 15.8065C37.4657 15.4788 37.4242 15.1458 37.264 14.8322C37.104 14.5191 36.8308 14.2354 36.4255 13.9974L36.2736 14.2561C36.6395 14.471 36.8676 14.7157 36.9969 14.9687C37.1259 15.2213 37.1615 15.4922 37.1263 15.7685C37.055 16.3268 36.6937 16.9015 36.2446 17.341L36.4545 17.5554ZM36.4255 13.9974C35.783 13.6201 35.0254 13.4476 34.3621 13.3872C33.7005 13.3271 33.115 13.3769 32.81 13.4583L32.8874 13.7482C33.148 13.6786 33.6959 13.6279 34.3349 13.686C34.9721 13.744 35.6822 13.9087 36.2736 14.2561L36.4255 13.9974ZM32.8851 13.4577L32.0811 13.2567L32.0083 13.5477L32.8123 13.7488L32.8851 13.4577Z" fill="#1D271A"/>
</svg>
