<svg width="64" height="64" viewBox="0 0 64 64" fill="none" xmlns="http://www.w3.org/2000/svg">
<path d="M22.8772 62.8853H27.0931C28.0173 62.8853 28.8211 62.2521 29.0375 61.3537L32.3523 47.5953C32.4638 47.1323 32.4194 46.6349 32.137 46.2514C30.3115 43.7716 25.9178 42.7475 24.8409 45.3144C24.4169 46.3253 23.3137 55.9234 22.8678 59.5101C22.7844 60.1805 22.0775 60.8175 21.6233 61.3177C20.9109 62.1022 21.8175 62.8853 22.8772 62.8853Z" fill="#A5E092"/>
<path d="M22.8772 62.8853H27.0931C28.0173 62.8853 28.8211 62.2521 29.0375 61.3537L32.3523 47.5953C32.4638 47.1323 32.4194 46.6349 32.137 46.2514C30.3115 43.7716 25.9178 42.7475 24.8409 45.3144C24.4169 46.3253 23.3137 55.9234 22.8678 59.5101C22.7844 60.1805 22.0775 60.8175 21.6233 61.3177C20.9109 62.1022 21.8175 62.8853 22.8772 62.8853Z" stroke="black" stroke-width="0.3" stroke-linecap="round" stroke-linejoin="round"/>
<path d="M15.3646 43.6141C17.8244 38.5316 27.4134 29.5747 29.1052 29.5862C30.7969 29.5978 31.3884 29.7951 30.7458 31.6192C30.1033 33.4434 22.91 45.054 21.9878 45.7701C21.0655 46.4862 19.3487 45.7701 19.7809 45.2184C19.0452 46.1574 13.5528 47.3577 15.3646 43.6141Z" fill="#A5E092"/>
<path d="M15.3646 43.6141C17.8244 38.5316 27.4134 29.5747 29.1052 29.5862C30.7969 29.5978 31.3884 29.7951 30.7458 31.6192C30.1033 33.4434 22.91 45.054 21.9878 45.7701C21.0655 46.4862 19.3487 45.7701 19.7809 45.2184C19.0452 46.1574 13.5528 47.3577 15.3646 43.6141Z" stroke="#1D271A" stroke-width="0.3" stroke-linecap="round" stroke-linejoin="round"/>
<path d="M28.8096 29.9541H35.8C36.8149 29.9541 37.6688 30.7142 37.7865 31.7222L39.318 44.8422C39.4046 45.5841 39.0726 46.3187 38.4381 46.7126C33.5159 49.7685 30.3118 49.6101 25.4789 47.6932C24.6142 47.3502 24.1291 46.4337 24.2965 45.5186L26.8422 31.5944C27.0159 30.6443 27.8438 29.9541 28.8096 29.9541Z" fill="#A5E092"/>
<path d="M28.8096 29.9541H35.8C36.8149 29.9541 37.6688 30.7142 37.7865 31.7222L39.318 44.8422C39.4046 45.5841 39.0726 46.3187 38.4381 46.7126C33.5159 49.7685 30.3118 49.6101 25.4789 47.6932C24.6142 47.3502 24.1291 46.4337 24.2965 45.5186L26.8422 31.5944C27.0159 30.6443 27.8438 29.9541 28.8096 29.9541Z" stroke="black" stroke-width="0.5" stroke-linecap="round" stroke-linejoin="round"/>
<path d="M36.1155 62.6091L39.7542 62.4088C40.9615 62.3423 41.8342 61.2281 41.6094 60.04L39.1055 46.8065C39.0111 46.3076 38.7382 45.8472 38.2826 45.6231C35.5309 44.2696 31.186 45.3194 31.373 48.0617C31.445 49.1174 33.7986 55.6636 34.8599 58.6719C35.1137 59.3912 34.8538 60.1707 34.6251 60.8984C34.5885 61.0148 34.561 61.1309 34.541 61.2453C34.3909 62.1042 35.2449 62.6571 36.1155 62.6091Z" fill="#A5E092"/>
<path d="M36.1155 62.6091L39.7542 62.4088C40.9615 62.3423 41.8342 61.2281 41.6094 60.04L39.1055 46.8065C39.0111 46.3076 38.7382 45.8472 38.2826 45.6231C35.5309 44.2696 31.186 45.3194 31.373 48.0617C31.445 49.1174 33.7986 55.6636 34.8599 58.6719C35.1137 59.3912 34.8538 60.1707 34.6251 60.8984C34.5885 61.0148 34.561 61.1309 34.541 61.2453C34.3909 62.1042 35.2449 62.6571 36.1155 62.6091Z" stroke="black" stroke-width="0.3" stroke-linecap="round" stroke-linejoin="round"/>
<path d="M40.1673 47.0358C40.4655 49.066 40.9159 51.9428 41.2661 53.665C41.4091 54.3686 40.9248 55.4163 40.2583 55.683L40.1645 55.7205C39.8441 55.8487 39.4801 55.8025 39.2018 55.5984L37.7725 54.5502C37.2136 54.1404 36.4173 54.4096 36.2217 55.0745L35.8263 56.419C35.7011 56.8446 35.3106 57.1368 34.8669 57.1368H34.5288C34.0944 57.1368 33.7097 56.8564 33.5768 56.4428L31.9845 51.489L30.9476 55.3775C30.7318 56.1864 29.65 56.3388 29.2193 55.6209L29.165 55.5304C28.8628 55.0268 28.1587 54.961 27.7685 55.4C27.3669 55.8518 26.6385 55.7666 26.352 55.2345L26.0629 54.6976C25.7972 54.2043 25.1312 54.1065 24.735 54.5027C24.1614 55.0763 23.189 54.5795 23.3178 53.7786L24.5767 45.9453C24.6594 45.4308 25.1233 45.0661 25.6427 45.1071L39.2547 46.1817C39.7212 46.2185 40.0994 46.5728 40.1673 47.0358Z" fill="#765C62"/>
<path d="M31.9845 51.489L30.9476 55.3775C30.7318 56.1864 29.65 56.3388 29.2193 55.6209L29.165 55.5304C28.8628 55.0268 28.1587 54.961 27.7685 55.4C27.3669 55.8518 26.6385 55.7666 26.352 55.2345L26.0629 54.6976C25.7972 54.2043 25.1312 54.1065 24.735 54.5027C24.1614 55.0763 23.189 54.5795 23.3178 53.7786L24.5767 45.9453C24.6594 45.4308 25.1233 45.0661 25.6427 45.1071L39.2547 46.1817C39.7212 46.2185 40.0994 46.5728 40.1673 47.0358C40.4655 49.066 40.9159 51.9428 41.2661 53.665C41.4091 54.3686 40.9248 55.4163 40.2583 55.683L40.1645 55.7205C39.8441 55.8487 39.4801 55.8025 39.2018 55.5984L37.7725 54.5502C37.2136 54.1404 36.4173 54.4096 36.2217 55.0745L35.8263 56.419C35.7011 56.8446 35.3106 57.1368 34.8669 57.1368H34.5288C34.0944 57.1368 33.7097 56.8564 33.5768 56.4428L31.9845 51.489ZM31.9845 51.489L29.9674 51.0856M31.9845 51.489H33.3964" stroke="#1D271A" stroke-width="0.3" stroke-linecap="round" stroke-linejoin="round"/>
<path d="M20.438 39.2172V39.1951C20.438 38.7622 20.1466 38.3835 19.7281 38.2727C19.0171 38.0843 18.7782 37.1985 19.3058 36.6859C21.8144 34.2488 25.5308 30.8415 26.5332 30.7024C27.5889 30.5559 28.1599 31.7124 28.3675 32.4926C28.4111 32.6563 28.3969 32.8285 28.3434 32.9893L25.3971 41.8615C25.1813 42.5114 23.5907 42.4122 23.5907 41.7274C23.5907 41.322 22.1522 40.6093 21.0603 40.1439C20.6873 39.985 20.438 39.6228 20.438 39.2172Z" fill="#FFFFE1"/>
<path d="M20.438 39.2172V39.1951C20.438 38.7622 20.1466 38.3835 19.7281 38.2727C19.0171 38.0843 18.7782 37.1985 19.3058 36.6859C21.8144 34.2488 25.5308 30.8415 26.5332 30.7024C27.5889 30.5559 28.1599 31.7124 28.3675 32.4926C28.4111 32.6563 28.3969 32.8285 28.3434 32.9893L25.3971 41.8615C25.1813 42.5114 23.5907 42.4122 23.5907 41.7274C23.5907 41.322 22.1522 40.6093 21.0603 40.1439C20.6873 39.985 20.438 39.6228 20.438 39.2172Z" stroke="black" stroke-width="0.3" stroke-linecap="round" stroke-linejoin="round"/>
<path d="M49.1864 44.504C46.7334 39.3711 37.9382 31.0576 36.5066 31.0576C35.075 31.0576 33.5086 32.6496 34.0524 34.3427C34.5963 36.0358 39.2782 42.905 42.4374 47.0725C43.3743 48.3084 43.873 50.3679 45.7121 49.3162C48.4707 50.9196 50.9119 48.1148 49.1864 44.504Z" fill="#A5E092"/>
<path d="M49.1864 44.504C46.7334 39.3711 37.9382 31.0576 36.5066 31.0576C35.075 31.0576 33.5086 32.6496 34.0524 34.3427C34.5963 36.0358 39.2782 42.905 42.4374 47.0725C43.3743 48.3084 43.873 50.3679 45.7121 49.3162C48.4707 50.9196 50.9119 48.1148 49.1864 44.504Z" stroke="black" stroke-width="0.3" stroke-linecap="round" stroke-linejoin="round"/>
<path d="M32.8578 48.6077L32.1632 34.7918C32.1262 34.0566 32.4961 33.3605 33.1261 32.9798L34.8133 31.9599L35.1008 31.7861C36.2827 31.0718 37.8131 31.7394 38.0823 33.0939C39.0945 38.1853 41.0704 48.4953 40.442 48.341C39.3712 48.0781 37.9144 48.5089 36.8596 48.8299C36.6447 48.8953 36.4314 49.0182 36.2314 49.2215C35.7525 49.7081 35.198 50.1839 34.5152 50.1839C33.6311 50.1839 32.9022 49.4907 32.8578 48.6077Z" fill="#FFFFE1"/>
<path d="M32.8578 48.6077L32.1632 34.7918C32.1262 34.0566 32.4961 33.3605 33.1261 32.9798L34.8133 31.9599L35.1008 31.7861C36.2827 31.0718 37.8131 31.7394 38.0823 33.0939C39.0945 38.1853 41.0704 48.4953 40.442 48.341C39.3712 48.0781 37.9144 48.5089 36.8596 48.8299C36.6447 48.8953 36.4314 49.0182 36.2314 49.2215C35.7525 49.7081 35.198 50.1839 34.5152 50.1839C33.6311 50.1839 32.9022 49.4907 32.8578 48.6077Z" stroke="#1D271A" stroke-width="0.3" stroke-linecap="round" stroke-linejoin="round"/>
<path d="M45.7119 38.9074C42.3696 35.6022 40.2807 33.743 37.565 31.0576C33.6399 33.5168 33.4974 35.5667 35.8939 39.3206C37.008 40.9043 39.4033 43.9892 40.0718 44.485C40.9074 45.1047 40.6985 44.0718 41.1162 42.4192C41.4367 41.1517 41.9518 40.9732 42.3696 40.56C42.7038 40.2295 44.3889 40.0092 45.0852 39.9403L45.7119 38.9074Z" fill="#FFFFE1"/>
<path d="M37.365 30.6897L45.075 38.2546C45.5796 38.7496 45.472 39.5896 44.8589 39.9415C44.7286 40.0163 44.5842 40.0621 44.435 40.0801C43.7073 40.1679 42.5206 40.373 42.2291 40.6658C41.8238 41.0729 41.6211 41.0729 41.2158 42.2945C40.8104 43.5161 41.0131 45.1448 40.2024 44.534C39.5538 44.0454 37.2298 40.8015 36.1489 39.2406" stroke="#1D271A" stroke-width="0.3" stroke-linecap="round" stroke-linejoin="round"/>
<path d="M28.4249 48.4476V33.8565C28.4249 33.7624 28.4112 33.6675 28.385 33.5771C28.0935 32.5703 26.6354 32.5952 26.4324 33.6235L24.1107 45.3841C23.9403 46.2471 25.4959 46.8832 25.6356 47.7517C25.7335 48.3603 26.4377 48.8962 27.1665 49.2829C27.7646 49.6002 28.4249 49.1246 28.4249 48.4476Z" fill="#FFFFE1" stroke="#1D271A" stroke-width="0.2" stroke-linecap="round" stroke-linejoin="round"/>
<path d="M20.4978 8.36843C24.0112 2.45784 37.4365 3.19347 42.605 8.36843C47.7736 13.5434 47.0355 23.2668 40.9307 28.9406C34.826 34.6144 24.7659 32.0925 21.2526 28.205C17.7392 24.3175 16.9844 14.279 20.4978 8.36843Z" fill="#A5E092"/>
<path d="M20.6266 8.44523C21.4823 7.0057 22.9473 5.96141 24.7596 5.28793C26.5715 4.61458 28.721 4.31579 30.9275 4.36147C35.347 4.45296 39.9518 5.92437 42.4988 8.47458C47.5953 13.5774 46.8842 23.2026 40.8285 28.8308C37.8166 31.6302 33.8232 32.4132 30.1361 32.0093C26.4448 31.6049 23.0895 30.014 21.3638 28.1045C19.6404 26.1976 18.5778 22.7567 18.3899 19.0379C18.2021 15.323 18.8895 11.3677 20.6266 8.44523Z" stroke="#1D271A" stroke-width="0.3"/>
<path d="M31.3671 43.1954C31.3671 43.3985 31.1201 43.5632 30.8154 43.5632C30.5107 43.5632 30.2637 43.3985 30.2637 43.1954C30.2637 42.9923 30.5107 42.8276 30.8154 42.8276C31.1201 42.8276 31.3671 42.9923 31.3671 43.1954Z" fill="#1D271A"/>
<path d="M28.3985 24.1928C28.6161 24.1928 28.7926 24.0087 28.7926 23.7816C28.7926 23.5545 28.6161 23.3704 28.3985 23.3704C28.1808 23.3704 28.0044 23.5545 28.0044 23.7816C28.0044 24.0087 28.1808 24.1928 28.3985 24.1928Z" fill="#39582F"/>
<path d="M27.3477 24.1757C27.5653 24.1757 27.7418 23.9916 27.7418 23.7645C27.7418 23.5374 27.5653 23.3533 27.3477 23.3533C27.1301 23.3533 26.9536 23.5374 26.9536 23.7645C26.9536 23.9916 27.1301 24.1757 27.3477 24.1757Z" fill="#39582F"/>
<path d="M28.4248 30.388C29.6201 30.388 30.6329 30.1619 31.3563 29.7465C32.0849 29.3283 32.5368 28.7042 32.5368 27.9311C32.5368 27.1641 32.0916 26.4957 31.367 26.0302C30.6437 25.5656 29.6281 25.2903 28.4248 25.2903C27.2276 25.2903 26.4895 25.5636 26.0674 26.0829C25.6547 26.5906 25.6001 27.2717 25.6001 27.9311C25.6001 28.5881 25.6535 29.2329 26.0764 29.6979C26.5024 30.1663 27.24 30.388 28.4248 30.388Z" fill="#1D271A" stroke="#44633A" stroke-width="0.5"/>
<path d="M26.2178 28.6667L26.5856 27.0116C27.0091 25.7011 27.5001 25.9704 28.4247 26.6438L28.0569 28.6667H26.2178Z" fill="white"/>
<path d="M26.2178 28.6667L26.5856 27.0116C27.0091 25.7011 27.5001 25.9704 28.4247 26.6438L28.0569 28.6667H26.2178Z" stroke="black"/>
<path d="M28.9764 28.4829L28.7925 26.6438C29.1603 26.4599 29.5281 25.7242 30.3787 26.1856L30.8155 28.115L28.9764 28.4829Z" fill="white"/>
<path d="M28.9764 28.4829L28.7925 26.6438C29.1603 26.4599 29.5281 25.7242 30.3787 26.1856L30.8155 28.115L28.9764 28.4829Z" stroke="black"/>
<path d="M26.0976 27.4338C26.0503 27.4991 26.0032 27.5642 25.9556 27.6287C25.976 27.098 26.063 26.6432 26.3392 26.3034C26.6627 25.9055 27.2686 25.6401 28.425 25.6401C29.5789 25.6401 30.5244 25.9046 31.178 26.3245C31.7454 26.689 32.0885 27.1666 32.1688 27.6906C31.7959 27.3579 31.4919 27.0981 31.2256 26.9021C30.9161 26.6743 30.6518 26.5286 30.3823 26.4551C29.8537 26.311 29.328 26.4527 28.4481 26.7162C28.1343 26.4564 27.8526 26.3269 27.5912 26.3054C27.3156 26.2827 27.079 26.3813 26.87 26.5411C26.6631 26.6994 26.4781 26.9214 26.302 27.1553C26.2324 27.2476 26.1649 27.3409 26.0976 27.4338Z" fill="#E275A0" stroke="#1D271A" stroke-width="0.2"/>
<path d="M30.0659 32.4614C30.0432 33.1371 32.1626 35.6912 33.5547 33.2119C34.2445 30.4687 32.0383 28.2058 30.1942 28.7115C29.5971 28.8753 29.038 29.3293 28.6274 30.1513C29.6955 30.1742 30.0659 32.4614 30.0659 32.4614Z" fill="#EFA9C4"/>
<path d="M30.1942 28.7115C29.5971 28.8753 29.038 29.3293 28.6274 30.1513C29.6955 30.1742 30.0659 32.4614 30.0659 32.4614C30.0432 33.1371 32.1626 35.6912 33.5547 33.2119C34.2445 30.4687 32.0383 28.2058 30.1942 28.7115ZM30.1942 28.7115C30.7363 29.0846 31.847 30.086 31.9532 31.1078" stroke="#1D271A" stroke-width="0.3" stroke-linecap="round" stroke-linejoin="round"/>
<path d="M27.3214 14.5057C28.9466 14.5057 30.264 13.7646 30.264 12.8505C30.264 11.9364 28.9466 11.1953 27.3214 11.1953C25.6963 11.1953 24.3789 11.9364 24.3789 12.8505C24.3789 13.7646 25.6963 14.5057 27.3214 14.5057Z" fill="#78B166"/>
<path d="M30.0797 10.8276C30.5875 10.8276 30.9992 10.5806 30.9992 10.2758C30.9992 9.97114 30.5875 9.72412 30.0797 9.72412C29.5718 9.72412 29.1602 9.97114 29.1602 10.2758C29.1602 10.5806 29.5718 10.8276 30.0797 10.8276Z" fill="#78B166"/>
<path d="M27.1373 10.8276C27.6452 10.8276 28.0569 10.5806 28.0569 10.2758C28.0569 9.97114 27.6452 9.72412 27.1373 9.72412C26.6295 9.72412 26.2178 9.97114 26.2178 10.2758C26.2178 10.5806 26.6295 10.8276 27.1373 10.8276Z" fill="#D0F9C3"/>
<path d="M39.6668 6.0417C30.4232 -4.18339 20.1787 8.96317 17.3463 2.91156C14.8254 7.08508 19.8673 11.8846 21.7581 7.08508C23.2287 11.4673 27.8505 11.2586 29.9513 10.2152C32.0521 9.17182 32.1038 6.45908 38.6164 8.33716C38.6164 12.928 39.4567 14.8061 41.5575 16.4755V20.023L45.9693 17.7276C46.5653 11.7373 44.7088 8.1285 41.5575 7.08508C45.9693 5.62439 39.2466 -1.26191 39.6668 6.0417Z" fill="#31412C"/>
<path d="M39.6668 6.0417C30.4232 -4.18339 20.1787 8.96317 17.3463 2.91156C14.8254 7.08508 19.8673 11.8846 21.7581 7.08508C23.2287 11.4673 27.8505 11.2586 29.9513 10.2152C32.0521 9.17182 32.1038 6.45908 38.6164 8.33716C38.6164 12.928 39.4567 14.8061 41.5575 16.4755V20.023L45.9693 17.7276C46.5653 11.7373 44.7088 8.1285 41.5575 7.08508C45.9693 5.62439 39.2466 -1.26191 39.6668 6.0417Z" stroke="#1D271A" stroke-width="0.3"/>
<path d="M41.1974 18.5942C42.1724 16.9667 45.4334 15.8395 46.8678 17.2645C48.3021 18.6894 47.7739 22.494 46.0798 24.0563C44.3856 25.6186 42.3819 25.1267 41.4069 24.0563C40.4319 22.9858 40.2224 20.2217 41.1974 18.5942Z" fill="#A5E092"/>
<path d="M41.3265 18.6711C41.7882 17.9005 42.8083 17.2296 43.9005 16.9291C44.9959 16.6278 46.1017 16.7142 46.7625 17.3707C47.4301 18.034 47.661 19.2821 47.4985 20.5902C47.3367 21.8926 46.7912 23.1964 45.9785 23.9458C44.3517 25.446 42.443 24.9704 41.5182 23.9551C41.0643 23.4567 40.7727 22.5388 40.7211 21.5263C40.6697 20.5178 40.8587 19.4519 41.3265 18.6711Z" stroke="#1D271A" stroke-width="0.3"/>
<path d="M42.4019 20.5746C43.3828 19.3486 45.4916 17.6321 46.0801 20.5746" stroke="black" stroke-width="0.3" stroke-linecap="round" stroke-linejoin="round"/>
<path d="M33.0395 22.9999C34.7756 22.9999 36.183 21.5925 36.183 19.8564C36.183 18.1203 34.7756 16.7129 33.0395 16.7129C31.3034 16.7129 29.896 18.1203 29.896 19.8564C29.896 21.5925 31.3034 22.9999 33.0395 22.9999Z" fill="#F3D16D"/>
<path d="M36.0328 19.8563C36.0328 21.5095 34.6926 22.8498 33.0394 22.8498C31.3861 22.8498 30.0459 21.5095 30.0459 19.8563C30.0459 18.203 31.3861 16.8628 33.0394 16.8628C34.6926 16.8628 36.0328 18.203 36.0328 19.8563Z" stroke="#1D271A" stroke-width="0.3"/>
<path d="M34.6719 21.5765C35.4531 21.5765 36.0865 20.9431 36.0865 20.1619C36.0865 19.3806 35.4531 18.7473 34.6719 18.7473C33.8906 18.7473 33.2573 19.3806 33.2573 20.1619C33.2573 20.9431 33.8906 21.5765 34.6719 21.5765Z" fill="#1D271A"/>
<path d="M35.6151 20.0048C35.8755 20.0048 36.0866 19.7937 36.0866 19.5333C36.0866 19.2729 35.8755 19.0618 35.6151 19.0618C35.3547 19.0618 35.1436 19.2729 35.1436 19.5333C35.1436 19.7937 35.3547 20.0048 35.6151 20.0048Z" fill="white"/>
<path d="M35.3007 20.005C35.3875 20.005 35.4579 19.9347 35.4579 19.8478C35.4579 19.761 35.3875 19.6907 35.3007 19.6907C35.2139 19.6907 35.1436 19.761 35.1436 19.8478C35.1436 19.9347 35.2139 20.005 35.3007 20.005Z" fill="white"/>
<path d="M35.9996 19.3874C34.6206 18.0579 31.503 17.9588 30.1548 19.643C30.5139 16.0395 35.3567 15.5913 35.9996 19.3874Z" fill="#A5E092"/>
<path d="M35.9996 19.3874C34.6206 18.0579 31.503 17.9588 30.1548 19.643C30.5139 16.0395 35.3567 15.5913 35.9996 19.3874Z" stroke="#1D271A" stroke-width="0.3" stroke-linejoin="round"/>
<path d="M23.1083 22.9999C24.8444 22.9999 26.2518 21.5925 26.2518 19.8564C26.2518 18.1203 24.8444 16.7129 23.1083 16.7129C21.3722 16.7129 19.9648 18.1203 19.9648 19.8564C19.9648 21.5925 21.3722 22.9999 23.1083 22.9999Z" fill="#F3D16D"/>
<path d="M26.1017 19.8563C26.1017 21.5095 24.7615 22.8498 23.1082 22.8498C21.455 22.8498 20.1147 21.5095 20.1147 19.8563C20.1147 18.203 21.455 16.8628 23.1082 16.8628C24.7615 16.8628 26.1017 18.203 26.1017 19.8563Z" stroke="#1D271A" stroke-width="0.3"/>
<path d="M21.7984 21.2088C22.5796 21.2088 23.2129 20.5755 23.2129 19.7942C23.2129 19.013 22.5796 18.3796 21.7984 18.3796C21.0171 18.3796 20.3838 19.013 20.3838 19.7942C20.3838 20.5755 21.0171 21.2088 21.7984 21.2088Z" fill="#1D271A"/>
<path d="M22.7415 19.6371C23.002 19.6371 23.2131 19.426 23.2131 19.1656C23.2131 18.9052 23.002 18.6941 22.7415 18.6941C22.4811 18.6941 22.27 18.9052 22.27 19.1656C22.27 19.426 22.4811 19.6371 22.7415 19.6371Z" fill="white"/>
<path d="M22.4272 19.6371C22.514 19.6371 22.5844 19.5667 22.5844 19.4799C22.5844 19.3931 22.514 19.3228 22.4272 19.3228C22.3404 19.3228 22.27 19.3931 22.27 19.4799C22.27 19.5667 22.3404 19.6371 22.4272 19.6371Z" fill="white"/>
<path d="M26.0685 19.3874C24.6895 18.0579 21.5718 17.9588 20.2236 19.643C20.5827 16.0395 25.4256 15.5913 26.0685 19.3874Z" fill="#A5E092"/>
<path d="M26.0685 19.3874C24.6895 18.0579 21.5718 17.9588 20.2236 19.643C20.5827 16.0395 25.4256 15.5913 26.0685 19.3874Z" stroke="#1D271A" stroke-width="0.3" stroke-linejoin="round"/>
<path d="M23.5515 15.9147C25.3577 15.8966 24.7978 14.4577 23.8432 13.3511L23.343 14.1123C22.808 13.8423 20.7075 13.6226 19.3202 14.1123C17.5861 14.7245 17.923 15.894 18.6611 17.0101C19.3737 16.6725 21.2938 15.9373 23.5515 15.9147Z" fill="#31412C"/>
<path d="M23.8433 13.3511L23.7179 13.2688C23.7438 13.2294 23.7865 13.2045 23.8335 13.2015C23.8804 13.1984 23.9261 13.2175 23.9568 13.2532L23.8433 13.3511ZM18.6612 17.0101L18.7254 17.1457L18.6079 17.2014L18.5361 17.0928L18.6612 17.0101ZM23.3431 14.1123L23.4685 14.1947L23.395 14.3065L23.2755 14.2462L23.3431 14.1123ZM23.9568 13.2532C24.2008 13.5359 24.4214 13.842 24.5861 14.1442C24.7498 14.4444 24.8636 14.7505 24.8824 15.031C24.9016 15.3169 24.8214 15.585 24.5891 15.7776C24.3644 15.9639 24.0201 16.06 23.5531 16.0647L23.5501 15.7647C23.9861 15.7603 24.2492 15.6697 24.3976 15.5466C24.5385 15.4298 24.5974 15.2655 24.5831 15.0511C24.5683 14.8313 24.4761 14.5691 24.3227 14.2878C24.1704 14.0083 23.9631 13.7196 23.7297 13.4491L23.9568 13.2532ZM23.5531 16.0647C21.3239 16.087 19.4256 16.8139 18.7254 17.1457L18.597 16.8745C19.3219 16.5311 21.2638 15.7876 23.5501 15.7647L23.5531 16.0647ZM18.5361 17.0928C18.1651 16.5319 17.8695 15.9232 17.9141 15.3604C17.9369 15.0727 18.0482 14.802 18.2727 14.5636C18.4949 14.3276 18.8225 14.129 19.2704 13.9709L19.3702 14.2538C18.9511 14.4017 18.6704 14.5789 18.4911 14.7692C18.3142 14.9572 18.2307 15.1634 18.2132 15.3841C18.1772 15.8382 18.4192 16.3722 18.7863 16.9273L18.5361 17.0928ZM19.2704 13.9709C19.9889 13.7172 20.882 13.6497 21.6567 13.6775C22.0454 13.6915 22.4083 13.7296 22.7095 13.7817C23.0066 13.8332 23.2563 13.9005 23.4107 13.9784L23.2755 14.2462C23.1624 14.1891 22.9489 14.1277 22.6583 14.0773C22.3718 14.0277 22.0226 13.9908 21.6459 13.9773C20.8898 13.9502 20.0389 14.0177 19.3702 14.2538L19.2704 13.9709ZM23.2178 14.0299L23.7179 13.2688L23.9686 13.4335L23.4685 14.1947L23.2178 14.0299Z" fill="#1D271A"/>
<path d="M32.008 15.7876C30.4655 15.9385 30.8768 14.2578 32.008 13.4023L32.812 13.6034C33.3775 13.4524 35.0789 13.4022 36.3129 14.1268C37.8553 15.0327 37.2383 16.5424 36.3129 17.4483C35.6959 16.9954 34.2055 15.5725 32.008 15.7876Z" fill="#31412C"/>
<path d="M32.0081 13.4022L32.0445 13.2567C32.0004 13.2456 31.9538 13.2552 31.9176 13.2825L32.0081 13.4022ZM36.313 17.4482L36.2242 17.5691L36.3269 17.6445L36.4179 17.5554L36.313 17.4482ZM32.8121 13.6033L32.7757 13.7488L32.8133 13.7582L32.8508 13.7482L32.8121 13.6033ZM31.9176 13.2825C31.328 13.7285 30.9129 14.3972 30.8562 14.9572C30.8276 15.2406 30.89 15.5165 31.096 15.7085C31.3004 15.8989 31.6142 15.9767 32.0227 15.9367L31.9935 15.6382C31.6307 15.6737 31.4175 15.598 31.3005 15.489C31.1852 15.3816 31.132 15.2122 31.1547 14.9873C31.2009 14.5308 31.5571 13.9314 32.0986 13.5218L31.9176 13.2825ZM32.0227 15.9367C34.1502 15.7285 35.5882 17.1022 36.2242 17.5691L36.4017 17.3273C35.8038 16.8883 34.2609 15.4162 31.9935 15.6382L32.0227 15.9367ZM36.4179 17.5554C36.8943 17.089 37.3043 16.4559 37.3872 15.8065C37.4291 15.4788 37.3876 15.1458 37.2274 14.8322C37.0674 14.5191 36.7942 14.2354 36.3889 13.9974L36.237 14.2561C36.6029 14.471 36.831 14.7157 36.9603 14.9687C37.0893 15.2213 37.1249 15.4922 37.0897 15.7685C37.0184 16.3268 36.6571 16.9015 36.208 17.341L36.4179 17.5554ZM36.3889 13.9974C35.7464 13.6201 34.9888 13.4476 34.3255 13.3872C33.6639 13.3271 33.0784 13.3769 32.7734 13.4583L32.8508 13.7482C33.1114 13.6786 33.6593 13.6279 34.2983 13.686C34.9355 13.744 35.6456 13.9087 36.237 14.2561L36.3889 13.9974ZM32.8485 13.4577L32.0445 13.2567L31.9717 13.5477L32.7757 13.7488L32.8485 13.4577Z" fill="#1D271A"/>
</svg>
