<svg width="64" height="64" viewBox="0 0 64 64" fill="none" xmlns="http://www.w3.org/2000/svg">
<ellipse cx="17.4471" cy="60.093" rx="14.6977" ry="3.90698" fill="black" fill-opacity="0.24"/>
<g filter="url(#filter0_i_1_219)">
<path d="M8.02153 61.8853L12.2374 61.8853C13.1616 61.8853 13.9654 61.2521 14.1818 60.3537L17.4966 46.5953C17.6081 46.1323 17.5637 45.6349 17.2813 45.2514C15.4558 42.7716 11.0621 41.7475 9.98524 44.3144C9.56119 45.3253 8.45804 54.9234 8.01213 58.5101C7.92878 59.1805 7.22179 59.8175 6.76762 60.3177C6.05524 61.1022 6.96182 61.8853 8.02153 61.8853Z" fill="#A5E092"/>
</g>
<path d="M8.02153 61.8853L12.2374 61.8853C13.1616 61.8853 13.9654 61.2521 14.1818 60.3537L17.4966 46.5953C17.6081 46.1323 17.5637 45.6349 17.2813 45.2514C15.4558 42.7716 11.0621 41.7475 9.98524 44.3144C9.56119 45.3253 8.45804 54.9234 8.01213 58.5101C7.92878 59.1805 7.22179 59.8175 6.76762 60.3177C6.05524 61.1022 6.96182 61.8853 8.02153 61.8853Z" stroke="black" stroke-width="0.3" stroke-linecap="round" stroke-linejoin="round"/>
<g filter="url(#filter1_i_1_219)">
<path d="M0.509322 42.6141C2.96914 37.5316 12.5582 28.5747 14.25 28.5862C15.9417 28.5978 16.5332 28.7951 15.8906 30.6192C15.2481 32.4434 8.05475 44.054 7.13252 44.7701C6.21029 45.4862 4.49342 44.7701 4.92562 44.2184C4.19001 45.1574 -1.30247 46.3577 0.509322 42.6141Z" fill="#A5E092"/>
</g>
<path d="M0.509322 42.6141C2.96914 37.5316 12.5582 28.5747 14.25 28.5862C15.9417 28.5978 16.5332 28.7951 15.8906 30.6192C15.2481 32.4434 8.05475 44.054 7.13252 44.7701C6.21029 45.4862 4.49342 44.7701 4.92562 44.2184C4.19001 45.1574 -1.30247 46.3577 0.509322 42.6141Z" stroke="#1D271A" stroke-width="0.3" stroke-linecap="round" stroke-linejoin="round"/>
<g filter="url(#filter2_i_1_219)">
<path d="M13.9544 28.954H20.9448C21.9597 28.954 22.8136 29.7141 22.9313 30.7221L24.4628 43.8421C24.5494 44.584 24.2174 45.3186 23.5829 45.7125C18.6607 48.7684 15.4566 48.61 10.6237 46.6931C9.75898 46.3501 9.27391 45.4336 9.44122 44.5185L11.987 30.5943C12.1607 29.6442 12.9886 28.954 13.9544 28.954Z" fill="#A5E092"/>
</g>
<path d="M13.9544 28.954H20.9448C21.9597 28.954 22.8136 29.7141 22.9313 30.7221L24.4628 43.8421C24.5494 44.584 24.2174 45.3186 23.5829 45.7125C18.6607 48.7684 15.4566 48.61 10.6237 46.6931C9.75898 46.3501 9.27391 45.4336 9.44122 44.5185L11.987 30.5943C12.1607 29.6442 12.9886 28.954 13.9544 28.954Z" stroke="black" stroke-width="0.5" stroke-linecap="round" stroke-linejoin="round"/>
<g filter="url(#filter3_ii_1_219)">
<path d="M21.2601 61.6091L24.8988 61.4088C26.1061 61.3423 26.9788 60.2281 26.754 59.04L24.2501 45.8065C24.1557 45.3076 23.8828 44.8472 23.4272 44.6231C20.6755 43.2696 16.3306 44.3194 16.5176 47.0617C16.5896 48.1174 18.9432 54.6636 20.0045 57.6719C20.2583 58.3912 19.9984 59.1707 19.7697 59.8984C19.7331 60.0148 19.7056 60.1309 19.6856 60.2453C19.5355 61.1042 20.3895 61.6571 21.2601 61.6091Z" fill="#A5E092"/>
</g>
<path d="M21.2601 61.6091L24.8988 61.4088C26.1061 61.3423 26.9788 60.2281 26.754 59.04L24.2501 45.8065C24.1557 45.3076 23.8828 44.8472 23.4272 44.6231C20.6755 43.2696 16.3306 44.3194 16.5176 47.0617C16.5896 48.1174 18.9432 54.6636 20.0045 57.6719C20.2583 58.3912 19.9984 59.1707 19.7697 59.8984C19.7331 60.0148 19.7056 60.1309 19.6856 60.2453C19.5355 61.1042 20.3895 61.6571 21.2601 61.6091Z" stroke="black" stroke-width="0.3" stroke-linecap="round" stroke-linejoin="round"/>
<g filter="url(#filter4_i_1_219)">
<path d="M25.3116 46.0358C25.6098 48.066 26.0602 50.9428 26.4104 52.665C26.5534 53.3686 26.0691 54.4163 25.4026 54.683L25.3088 54.7205C24.9884 54.8487 24.6244 54.8025 24.3461 54.5984L22.9168 53.5502C22.3579 53.1404 21.5616 53.4096 21.366 54.0745L20.9706 55.419C20.8454 55.8446 20.4549 56.1368 20.0112 56.1368H19.6731C19.2387 56.1368 18.854 55.8564 18.7211 55.4428L17.1288 50.489L16.0919 54.3775C15.8761 55.1864 14.7943 55.3388 14.3636 54.6209L14.3093 54.5304C14.0071 54.0268 13.303 53.961 12.9128 54.4C12.5112 54.8518 11.7828 54.7666 11.4963 54.2345L11.2072 53.6976C10.9415 53.2043 10.2755 53.1065 9.87931 53.5027C9.3057 54.0763 8.33336 53.5795 8.46208 52.7786L9.721 44.9453C9.80368 44.4308 10.2676 44.0661 10.787 44.1071L24.399 45.1817C24.8655 45.2185 25.2437 45.5728 25.3116 46.0358Z" fill="#765C62"/>
</g>
<path d="M17.1288 50.489L16.0919 54.3775C15.8761 55.1864 14.7943 55.3388 14.3636 54.6209L14.3093 54.5304C14.0071 54.0268 13.303 53.961 12.9128 54.4V54.4C12.5112 54.8518 11.7828 54.7666 11.4963 54.2345L11.2072 53.6976C10.9415 53.2043 10.2755 53.1065 9.87931 53.5027V53.5027C9.3057 54.0763 8.33336 53.5795 8.46208 52.7786L9.721 44.9453C9.80368 44.4308 10.2676 44.0661 10.787 44.1071L24.399 45.1817C24.8655 45.2185 25.2437 45.5728 25.3116 46.0358C25.6098 48.066 26.0602 50.9428 26.4104 52.665C26.5534 53.3686 26.0691 54.4163 25.4026 54.683L25.3088 54.7205C24.9884 54.8487 24.6244 54.8025 24.3461 54.5984L22.9168 53.5502C22.3579 53.1404 21.5616 53.4096 21.366 54.0745L20.9706 55.419C20.8454 55.8446 20.4549 56.1368 20.0112 56.1368H19.6731C19.2387 56.1368 18.854 55.8564 18.7211 55.4428L17.1288 50.489ZM17.1288 50.489L15.1117 50.0856M17.1288 50.489H18.5407" stroke="#1D271A" stroke-width="0.3" stroke-linecap="round" stroke-linejoin="round"/>
<g filter="url(#filter5_i_1_219)">
<path d="M5.58241 38.2171V38.195C5.58241 37.7621 5.291 37.3834 4.87255 37.2726C4.16149 37.0842 3.92258 36.1984 4.45019 35.6858C6.95879 33.2487 10.6752 29.8414 11.6776 29.7023C12.7333 29.5558 13.3043 30.7123 13.5119 31.4925C13.5555 31.6562 13.5413 31.8284 13.4878 31.9892L10.5415 40.8614C10.3257 41.5113 8.73512 41.4121 8.73512 40.7273C8.73512 40.3219 7.29665 39.6092 6.20475 39.1438C5.83169 38.9849 5.58241 38.6227 5.58241 38.2171Z" fill="#FFFFE1"/>
</g>
<path d="M5.58241 38.2171V38.195C5.58241 37.7621 5.291 37.3834 4.87255 37.2726C4.16149 37.0842 3.92258 36.1984 4.45019 35.6858C6.95879 33.2487 10.6752 29.8414 11.6776 29.7023C12.7333 29.5558 13.3043 30.7123 13.5119 31.4925C13.5555 31.6562 13.5413 31.8284 13.4878 31.9892L10.5415 40.8614C10.3257 41.5113 8.73512 41.4121 8.73512 40.7273C8.73512 40.3219 7.29665 39.6092 6.20475 39.1438C5.83169 38.9849 5.58241 38.6227 5.58241 38.2171Z" stroke="black" stroke-width="0.3" stroke-linecap="round" stroke-linejoin="round"/>
<g filter="url(#filter6_i_1_219)">
<path d="M34.331 43.5039C31.878 38.371 23.0828 30.0575 21.6512 30.0575C20.2196 30.0575 18.6532 31.6495 19.197 33.3426C19.7409 35.0357 24.4228 41.9049 27.582 46.0724C28.5189 47.3083 29.0176 49.3678 30.8567 48.3161C33.6153 49.9195 36.0565 47.1147 34.331 43.5039Z" fill="#A5E092"/>
</g>
<path d="M34.331 43.5039C31.878 38.371 23.0828 30.0575 21.6512 30.0575C20.2196 30.0575 18.6532 31.6495 19.197 33.3426C19.7409 35.0357 24.4228 41.9049 27.582 46.0724C28.5189 47.3083 29.0176 49.3678 30.8567 48.3161C33.6153 49.9195 36.0565 47.1147 34.331 43.5039Z" stroke="black" stroke-width="0.3" stroke-linecap="round" stroke-linejoin="round"/>
<g filter="url(#filter7_i_1_219)">
<path d="M18.0021 47.6077L17.3075 33.7918C17.2705 33.0566 17.6404 32.3605 18.2704 31.9798L19.9576 30.9599L20.2451 30.7861C21.427 30.0718 22.9574 30.7394 23.2266 32.0939C24.2388 37.1853 26.2147 47.4953 25.5863 47.341C24.5155 47.0781 23.0587 47.5089 22.0039 47.8299C21.789 47.8953 21.5757 48.0182 21.3757 48.2215C20.8968 48.7081 20.3423 49.1839 19.6595 49.1839C18.7754 49.1839 18.0465 48.4907 18.0021 47.6077Z" fill="#FFFFE1"/>
</g>
<path d="M18.0021 47.6077L17.3075 33.7918C17.2705 33.0566 17.6404 32.3605 18.2704 31.9798L19.9576 30.9599L20.2451 30.7861C21.427 30.0718 22.9574 30.7394 23.2266 32.0939C24.2388 37.1853 26.2147 47.4953 25.5863 47.341C24.5155 47.0781 23.0587 47.5089 22.0039 47.8299C21.789 47.8953 21.5757 48.0182 21.3757 48.2215C20.8968 48.7081 20.3423 49.1839 19.6595 49.1839C18.7754 49.1839 18.0465 48.4907 18.0021 47.6077Z" stroke="#1D271A" stroke-width="0.3" stroke-linecap="round" stroke-linejoin="round"/>
<g filter="url(#filter8_i_1_219)">
<path d="M30.8566 37.9073C27.5143 34.6021 25.4254 32.7429 22.7097 30.0575C18.7846 32.5167 18.6421 34.5666 21.0386 38.3205C22.1527 39.9042 24.548 42.9891 25.2165 43.4849C26.0521 44.1046 25.8432 43.0717 26.2609 41.4191C26.5814 40.1516 27.0965 39.9731 27.5143 39.5599C27.8485 39.2294 29.5336 39.0091 30.2299 38.9402L30.8566 37.9073Z" fill="#FFFFE1"/>
</g>
<path d="M22.5095 29.6897L30.2195 37.2546C30.7241 37.7496 30.6165 38.5896 30.0034 38.9415V38.9415C29.8731 39.0163 29.7287 39.0621 29.5795 39.0801C28.8518 39.1679 27.6651 39.373 27.3736 39.6658C26.9683 40.0729 26.7656 40.0729 26.3603 41.2945C25.9549 42.5161 26.1576 44.1448 25.3469 43.534C24.6983 43.0454 22.3743 39.8015 21.2934 38.2406" stroke="#1D271A" stroke-width="0.3" stroke-linecap="round" stroke-linejoin="round"/>
<path d="M13.5693 47.4477V32.8566C13.5693 32.7625 13.5556 32.6676 13.5294 32.5772C13.2379 31.5704 11.7798 31.5953 11.5768 32.6236L9.25508 44.3842C9.08471 45.2472 10.6403 45.8833 10.78 46.7518C10.8779 47.3604 11.5821 47.8963 12.3109 48.283C12.909 48.6003 13.5693 48.1247 13.5693 47.4477Z" fill="#FFFFE1" stroke="#1D271A" stroke-width="0.2" stroke-linecap="round" stroke-linejoin="round"/>
<g filter="url(#filter9_ii_1_219)">
<path d="M5.64211 7.36854C9.15549 1.45795 22.5808 2.19358 27.7493 7.36854C32.9179 12.5435 32.1798 22.2669 26.075 27.9407C19.9703 33.6145 9.91026 31.0926 6.39688 27.2051C2.88349 23.3176 2.12872 13.2791 5.64211 7.36854Z" fill="#A5E092"/>
</g>
<path d="M5.77105 7.44519C6.62673 6.00566 8.09172 4.96137 9.90399 4.28789C11.7159 3.61454 13.8654 3.31575 16.0719 3.36143C20.4914 3.45292 25.0962 4.92433 27.6432 7.47454C32.7397 12.5774 32.0286 22.2026 25.9729 27.8308C22.961 30.6302 18.9676 31.4132 15.2805 31.0093C11.5892 30.6049 8.23389 29.014 6.50816 27.1045C4.7848 25.1976 3.72217 21.7567 3.53426 18.0379C3.34655 14.323 4.03386 10.3677 5.77105 7.44519Z" stroke="#1D271A" stroke-width="0.3"/>
<path d="M16.5118 42.1954C16.5118 42.3985 16.2648 42.5632 15.9601 42.5632C15.6554 42.5632 15.4084 42.3985 15.4084 42.1954C15.4084 41.9923 15.6554 41.8276 15.9601 41.8276C16.2648 41.8276 16.5118 41.9923 16.5118 42.1954Z" fill="#1D271A"/>
<ellipse cx="13.543" cy="22.7816" rx="0.394089" ry="0.411222" fill="#39582F"/>
<ellipse cx="12.4921" cy="22.7645" rx="0.394088" ry="0.411223" fill="#39582F"/>
<path d="M13.5693 29.3879C14.7646 29.3879 15.7774 29.1618 16.5008 28.7464C17.2294 28.3282 17.6813 27.7041 17.6813 26.931C17.6813 26.164 17.2361 25.4956 16.5115 25.0301C15.7882 24.5655 14.7726 24.2902 13.5693 24.2902C12.3721 24.2902 11.634 24.5635 11.2119 25.0828C10.7992 25.5905 10.7446 26.2716 10.7446 26.931C10.7446 27.588 10.798 28.2328 11.2209 28.6978C11.6469 29.1662 12.3845 29.3879 13.5693 29.3879Z" fill="#1D271A" stroke="#44633A" stroke-width="0.5"/>
<g filter="url(#filter10_i_1_219)">
<path d="M11.3624 27.6666L11.7302 26.0115C12.1537 24.701 12.6447 24.9703 13.5693 25.6437L13.2015 27.6666H11.3624Z" fill="white"/>
<path d="M11.3624 27.6666L11.7302 26.0115C12.1537 24.701 12.6447 24.9703 13.5693 25.6437L13.2015 27.6666H11.3624Z" stroke="#BFBFBF"/>
</g>
<g filter="url(#filter11_i_1_219)">
<path d="M14.121 27.4828L13.9371 25.6437C14.3049 25.4598 14.6727 24.7241 15.5233 25.1855L15.9601 27.1149L14.121 27.4828Z" fill="white"/>
<path d="M14.121 27.4828L13.9371 25.6437C14.3049 25.4598 14.6727 24.7241 15.5233 25.1855L15.9601 27.1149L14.121 27.4828Z" stroke="#BFBFBF"/>
</g>
<path d="M11.2419 26.4339C11.1946 26.4992 11.1475 26.5643 11.0999 26.6288C11.1203 26.0981 11.2073 25.6433 11.4835 25.3035C11.807 24.9056 12.4129 24.6402 13.5693 24.6402C14.7232 24.6402 15.6687 24.9047 16.3223 25.3246C16.8897 25.6891 17.2328 26.1667 17.3131 26.6907C16.9402 26.358 16.6362 26.0982 16.3699 25.9022C16.0604 25.6744 15.7961 25.5287 15.5266 25.4552C14.998 25.3111 14.4723 25.4528 13.5924 25.7163C13.2786 25.4565 12.9969 25.327 12.7355 25.3055C12.4599 25.2828 12.2233 25.3814 12.0143 25.5412C11.8074 25.6995 11.6224 25.9215 11.4463 26.1554C11.3767 26.2477 11.3092 26.341 11.2419 26.4339Z" fill="#E275A0" stroke="#1D271A" stroke-width="0.2"/>
<g filter="url(#filter12_i_1_219)">
<path d="M15.2105 31.4613C15.1878 32.137 17.3072 34.6911 18.6993 32.2118C19.3891 29.4686 17.1829 27.2057 15.3388 27.7114C14.7417 27.8752 14.1826 28.3292 13.772 29.1512C14.8401 29.1741 15.2105 31.4613 15.2105 31.4613Z" fill="#EFA9C4"/>
</g>
<path d="M15.3388 27.7114C14.7417 27.8752 14.1826 28.3292 13.772 29.1512C14.8401 29.1741 15.2105 31.4613 15.2105 31.4613C15.1878 32.137 17.3072 34.6911 18.6993 32.2118C19.3891 29.4686 17.1829 27.2057 15.3388 27.7114ZM15.3388 27.7114C15.8809 28.0845 16.9916 29.0859 17.0978 30.1077" stroke="#1D271A" stroke-width="0.3" stroke-linecap="round" stroke-linejoin="round"/>
<ellipse cx="12.4658" cy="11.8506" rx="2.94253" ry="1.65517" fill="#78B166"/>
<ellipse cx="15.2244" cy="9.27586" rx="0.91954" ry="0.551724" fill="#78B166"/>
<ellipse cx="12.2819" cy="9.27586" rx="0.91954" ry="0.551724" fill="#D0F9C3"/>
<g filter="url(#filter13_ii_1_219)">
<path d="M24.8112 5.0417C15.5676 -5.18339 5.3231 7.96317 2.49071 1.91156C-0.0302255 6.08508 5.01173 10.8846 6.90246 6.08508C8.37306 10.4673 12.9949 10.2586 15.0957 9.21522C17.1965 8.17182 17.2482 5.45908 23.7608 7.33716C23.7608 11.928 24.6011 13.8061 26.7019 15.4755V19.023L31.1137 16.7276C31.7097 10.7373 29.8532 7.1285 26.7019 6.08508C31.1137 4.62439 24.391 -2.26191 24.8112 5.0417Z" fill="#31412C"/>
</g>
<path d="M24.8112 5.0417C15.5676 -5.18339 5.3231 7.96317 2.49071 1.91156C-0.0302255 6.08508 5.01173 10.8846 6.90246 6.08508C8.37306 10.4673 12.9949 10.2586 15.0957 9.21522C17.1965 8.17182 17.2482 5.45908 23.7608 7.33716C23.7608 11.928 24.6011 13.8061 26.7019 15.4755V19.023L31.1137 16.7276C31.7097 10.7373 29.8532 7.1285 26.7019 6.08508C31.1137 4.62439 24.391 -2.26191 24.8112 5.0417Z" stroke="#1D271A" stroke-width="0.3"/>
<g filter="url(#filter14_i_1_219)">
<path d="M26.3421 17.5941C27.3171 15.9666 30.5781 14.8394 32.0125 16.2644C33.4468 17.6893 32.9186 21.4939 31.2245 23.0562C29.5303 24.6185 27.5266 24.1266 26.5516 23.0562C25.5766 21.9857 25.3671 19.2216 26.3421 17.5941Z" fill="#A5E092"/>
</g>
<path d="M26.4708 17.6712C26.9325 16.9006 27.9526 16.2297 29.0448 15.9292C30.1402 15.6279 31.246 15.7143 31.9068 16.3708C32.5744 17.0341 32.8053 18.2822 32.6428 19.5903C32.481 20.8927 31.9355 22.1965 31.1228 22.9459C29.496 24.4461 27.5873 23.9705 26.6625 22.9552C26.2086 22.4568 25.917 21.5389 25.8654 20.5264C25.814 19.5179 26.003 18.452 26.4708 17.6712Z" stroke="#1D271A" stroke-width="0.3"/>
<path d="M27.5463 19.5747C28.5272 18.3487 30.636 16.6322 31.2245 19.5747" stroke="black" stroke-width="0.3" stroke-linecap="round" stroke-linejoin="round"/>
<g filter="url(#filter15_d_1_219)">
<ellipse cx="18.1841" cy="18.8565" rx="3.14349" ry="3.14349" fill="#F3D16D"/>
<path d="M21.1775 18.8565C21.1775 20.5097 19.8373 21.85 18.1841 21.85C16.5308 21.85 15.1906 20.5097 15.1906 18.8565C15.1906 17.2032 16.5308 15.863 18.1841 15.863C19.8373 15.863 21.1775 17.2032 21.1775 18.8565Z" stroke="#1D271A" stroke-width="0.3"/>
</g>
<circle cx="19.8165" cy="19.162" r="1.41457" fill="#1D271A"/>
<ellipse cx="20.7596" cy="18.5334" rx="0.471524" ry="0.471523" fill="white"/>
<ellipse cx="20.4452" cy="18.8478" rx="0.157175" ry="0.157174" fill="white"/>
<g filter="url(#filter16_i_1_219)">
<path d="M21.1442 18.3875C19.7652 17.058 16.6476 16.9589 15.2994 18.6431C15.6585 15.0396 20.5013 14.5914 21.1442 18.3875Z" fill="#A5E092"/>
</g>
<path d="M21.1442 18.3875C19.7652 17.058 16.6476 16.9589 15.2994 18.6431C15.6585 15.0396 20.5013 14.5914 21.1442 18.3875Z" stroke="#1D271A" stroke-width="0.3" stroke-linejoin="round"/>
<g filter="url(#filter17_d_1_219)">
<ellipse cx="8.25303" cy="18.8565" rx="3.14349" ry="3.14349" fill="#F3D16D"/>
<path d="M11.2465 18.8565C11.2465 20.5097 9.90629 21.85 8.25303 21.85C6.59977 21.85 5.25954 20.5097 5.25954 18.8565C5.25954 17.2032 6.59977 15.863 8.25303 15.863C9.90629 15.863 11.2465 17.2032 11.2465 18.8565Z" stroke="#1D271A" stroke-width="0.3"/>
</g>
<circle cx="6.94298" cy="18.7941" r="1.41457" fill="#1D271A"/>
<ellipse cx="7.88601" cy="18.1656" rx="0.471524" ry="0.471524" fill="white"/>
<ellipse cx="7.57166" cy="18.4799" rx="0.157175" ry="0.157175" fill="white"/>
<g filter="url(#filter18_i_1_219)">
<path d="M11.2132 18.3875C9.83421 17.058 6.71653 16.9589 5.36833 18.6431C5.72743 15.0396 10.5703 14.5914 11.2132 18.3875Z" fill="#A5E092"/>
</g>
<path d="M11.2132 18.3875C9.83421 17.058 6.71653 16.9589 5.36833 18.6431C5.72743 15.0396 10.5703 14.5914 11.2132 18.3875Z" stroke="#1D271A" stroke-width="0.3" stroke-linejoin="round"/>
<g filter="url(#filter19_i_1_219)">
<path d="M8.696 14.9146C10.5022 14.8965 9.94236 13.4576 8.98771 12.351L8.48755 13.1122C7.95249 12.8422 5.85201 12.6225 4.46472 13.1122C2.73061 13.7244 3.06751 14.8939 3.80565 16.01C4.51819 15.6724 6.4383 14.9372 8.696 14.9146Z" fill="#31412C"/>
</g>
<path d="M8.98771 12.351L8.86235 12.2687C8.88819 12.2293 8.93098 12.2044 8.97793 12.2014C9.02488 12.1983 9.07055 12.2174 9.10128 12.2531L8.98771 12.351ZM8.696 14.9146L8.69449 14.7646L8.69449 14.7646L8.696 14.9146ZM3.80565 16.01L3.86987 16.1456L3.7523 16.2013L3.68053 16.0927L3.80565 16.01ZM4.46472 13.1122L4.51465 13.2537L4.46472 13.1122ZM8.48755 13.1122L8.61291 13.1946L8.53943 13.3064L8.41998 13.2461L8.48755 13.1122ZM9.10128 12.2531C9.34525 12.5358 9.56588 12.8419 9.73057 13.1441C9.89423 13.4443 10.008 13.7504 10.0268 14.0309C10.046 14.3168 9.9658 14.5849 9.73355 14.7775C9.50882 14.9638 9.16455 15.0599 8.6975 15.0646L8.69449 14.7646C9.13053 14.7602 9.39359 14.6696 9.54205 14.5465C9.68298 14.4297 9.74185 14.2654 9.72749 14.051C9.71277 13.8312 9.62052 13.569 9.46716 13.2877C9.31483 13.0082 9.1075 12.7195 8.87414 12.449L9.10128 12.2531ZM8.6975 15.0646C6.46834 15.0869 4.57007 15.8138 3.86987 16.1456L3.74142 15.8744C4.4663 15.531 6.40827 14.7875 8.69449 14.7646L8.6975 15.0646ZM3.68053 16.0927C3.30957 15.5318 3.01398 14.9231 3.05856 14.3603C3.08135 14.0726 3.19264 13.8019 3.41716 13.5635C3.63936 13.3275 3.96689 13.1289 4.41479 12.9708L4.51465 13.2537C4.09549 13.4016 3.81484 13.5788 3.63556 13.7691C3.4586 13.9571 3.3751 14.1633 3.35762 14.384C3.32166 14.8381 3.56359 15.3721 3.93076 15.9272L3.68053 16.0927ZM4.41479 12.9708C5.13337 12.7171 6.02641 12.6496 6.8011 12.6774C7.18986 12.6914 7.55274 12.7295 7.85395 12.7816C8.15107 12.8331 8.40076 12.9004 8.55512 12.9783L8.41998 13.2461C8.3068 13.189 8.09329 13.1276 7.80273 13.0772C7.51626 13.0276 7.16699 12.9907 6.79034 12.9772C6.0342 12.9501 5.18336 13.0176 4.51465 13.2537L4.41479 12.9708ZM8.36219 13.0298L8.86235 12.2687L9.11307 12.4334L8.61291 13.1946L8.36219 13.0298Z" fill="#1D271A"/>
<g filter="url(#filter20_i_1_219)">
<path d="M17.1525 14.7876C15.61 14.9385 16.0213 13.2578 17.1525 12.4023L17.9565 12.6034C18.522 12.4524 20.2234 12.4022 21.4574 13.1268C22.9998 14.0327 22.3828 15.5424 21.4574 16.4483C20.8404 15.9954 19.35 14.5725 17.1525 14.7876Z" fill="#31412C"/>
</g>
<path d="M17.1525 12.4023L17.1889 12.2568C17.1448 12.2457 17.0982 12.2553 17.062 12.2826L17.1525 12.4023ZM17.1525 14.7876L17.1671 14.9368H17.1671L17.1525 14.7876ZM21.4574 16.4483L21.3686 16.5692L21.4713 16.6446L21.5623 16.5555L21.4574 16.4483ZM21.4574 13.1268L21.3814 13.2562V13.2562L21.4574 13.1268ZM17.9565 12.6034L17.9201 12.7489L17.9577 12.7583L17.9952 12.7483L17.9565 12.6034ZM17.062 12.2826C16.4724 12.7286 16.0573 13.3973 16.0006 13.9573C15.972 14.2407 16.0344 14.5166 16.2404 14.7086C16.4448 14.899 16.7586 14.9768 17.1671 14.9368L17.1379 14.6383C16.7751 14.6738 16.5619 14.5981 16.4449 14.4891C16.3296 14.3817 16.2764 14.2123 16.2991 13.9874C16.3453 13.5309 16.7015 12.9315 17.243 12.5219L17.062 12.2826ZM17.1671 14.9368C19.2946 14.7286 20.7326 16.1023 21.3686 16.5692L21.5461 16.3274C20.9482 15.8884 19.4053 14.4163 17.1379 14.6383L17.1671 14.9368ZM21.5623 16.5555C22.0387 16.0891 22.4487 15.456 22.5316 14.8066C22.5735 14.4789 22.532 14.1459 22.3718 13.8323C22.2118 13.5192 21.9386 13.2355 21.5333 12.9975L21.3814 13.2562C21.7473 13.4711 21.9754 13.7158 22.1047 13.9688C22.2337 14.2214 22.2693 14.4923 22.2341 14.7686C22.1628 15.3269 21.8015 15.9016 21.3524 16.3411L21.5623 16.5555ZM21.5333 12.9975C20.8908 12.6202 20.1332 12.4477 19.4699 12.3873C18.8083 12.3272 18.2228 12.377 17.9178 12.4584L17.9952 12.7483C18.2558 12.6787 18.8037 12.628 19.4427 12.6861C20.0799 12.7441 20.79 12.9088 21.3814 13.2562L21.5333 12.9975ZM17.9929 12.4578L17.1889 12.2568L17.1161 12.5478L17.9201 12.7489L17.9929 12.4578Z" fill="#1D271A"/>
<defs>
<filter id="filter0_i_1_219" x="6.36397" y="42.6712" width="11.3391" height="19.3641" filterUnits="userSpaceOnUse" color-interpolation-filters="sRGB">
<feFlood flood-opacity="0" result="BackgroundImageFix"/>
<feBlend mode="normal" in="SourceGraphic" in2="BackgroundImageFix" result="shape"/>
<feColorMatrix in="SourceAlpha" type="matrix" values="0 0 0 0 0 0 0 0 0 0 0 0 0 0 0 0 0 0 127 0" result="hardAlpha"/>
<feOffset dx="-4" dy="-3"/>
<feComposite in2="hardAlpha" operator="arithmetic" k2="-1" k3="1"/>
<feColorMatrix type="matrix" values="0 0 0 0 0.470588 0 0 0 0 0.701961 0 0 0 0 0.392157 0 0 0 1 0"/>
<feBlend mode="normal" in2="shape" result="effect1_innerShadow_1_219"/>
</filter>
<filter id="filter1_i_1_219" x="-0.00534058" y="28.4362" width="16.2993" height="16.8894" filterUnits="userSpaceOnUse" color-interpolation-filters="sRGB">
<feFlood flood-opacity="0" result="BackgroundImageFix"/>
<feBlend mode="normal" in="SourceGraphic" in2="BackgroundImageFix" result="shape"/>
<feColorMatrix in="SourceAlpha" type="matrix" values="0 0 0 0 0 0 0 0 0 0 0 0 0 0 0 0 0 0 127 0" result="hardAlpha"/>
<feOffset dx="-4" dy="-3"/>
<feComposite in2="hardAlpha" operator="arithmetic" k2="-1" k3="1"/>
<feColorMatrix type="matrix" values="0 0 0 0 0.470588 0 0 0 0 0.701961 0 0 0 0 0.392157 0 0 0 1 0"/>
<feBlend mode="normal" in2="shape" result="effect1_innerShadow_1_219"/>
</filter>
<filter id="filter2_i_1_219" x="9.15848" y="28.704" width="15.5679" height="19.6264" filterUnits="userSpaceOnUse" color-interpolation-filters="sRGB">
<feFlood flood-opacity="0" result="BackgroundImageFix"/>
<feBlend mode="normal" in="SourceGraphic" in2="BackgroundImageFix" result="shape"/>
<feColorMatrix in="SourceAlpha" type="matrix" values="0 0 0 0 0 0 0 0 0 0 0 0 0 0 0 0 0 0 127 0" result="hardAlpha"/>
<feOffset dx="2" dy="4"/>
<feComposite in2="hardAlpha" operator="arithmetic" k2="-1" k3="1"/>
<feColorMatrix type="matrix" values="0 0 0 0 0 0 0 0 0 0 0 0 0 0 0 0 0 0 0.25 0"/>
<feBlend mode="normal" in2="shape" result="effect1_innerShadow_1_219"/>
</filter>
<filter id="filter3_ii_1_219" x="16.3617" y="43.8845" width="10.5777" height="17.8775" filterUnits="userSpaceOnUse" color-interpolation-filters="sRGB">
<feFlood flood-opacity="0" result="BackgroundImageFix"/>
<feBlend mode="normal" in="SourceGraphic" in2="BackgroundImageFix" result="shape"/>
<feColorMatrix in="SourceAlpha" type="matrix" values="0 0 0 0 0 0 0 0 0 0 0 0 0 0 0 0 0 0 127 0" result="hardAlpha"/>
<feOffset dx="-4" dy="-1"/>
<feComposite in2="hardAlpha" operator="arithmetic" k2="-1" k3="1"/>
<feColorMatrix type="matrix" values="0 0 0 0 0.470588 0 0 0 0 0.701961 0 0 0 0 0.392157 0 0 0 1 0"/>
<feBlend mode="normal" in2="shape" result="effect1_innerShadow_1_219"/>
<feColorMatrix in="SourceAlpha" type="matrix" values="0 0 0 0 0 0 0 0 0 0 0 0 0 0 0 0 0 0 127 0" result="hardAlpha"/>
<feOffset dx="2" dy="2"/>
<feComposite in2="hardAlpha" operator="arithmetic" k2="-1" k3="1"/>
<feColorMatrix type="matrix" values="0 0 0 0 1 0 0 0 0 1 0 0 0 0 1 0 0 0 0.6 0"/>
<feBlend mode="normal" in2="effect1_innerShadow_1_219" result="effect2_innerShadow_1_219"/>
</filter>
<filter id="filter4_i_1_219" x="8.30029" y="43.9539" width="18.2853" height="12.3329" filterUnits="userSpaceOnUse" color-interpolation-filters="sRGB">
<feFlood flood-opacity="0" result="BackgroundImageFix"/>
<feBlend mode="normal" in="SourceGraphic" in2="BackgroundImageFix" result="shape"/>
<feColorMatrix in="SourceAlpha" type="matrix" values="0 0 0 0 0 0 0 0 0 0 0 0 0 0 0 0 0 0 127 0" result="hardAlpha"/>
<feOffset dx="-4" dy="4"/>
<feComposite in2="hardAlpha" operator="arithmetic" k2="-1" k3="1"/>
<feColorMatrix type="matrix" values="0 0 0 0 0 0 0 0 0 0 0 0 0 0 0 0 0 0 0.25 0"/>
<feBlend mode="normal" in2="shape" result="effect1_innerShadow_1_219"/>
</filter>
<filter id="filter5_i_1_219" x="4.01421" y="29.5396" width="9.67345" height="11.9091" filterUnits="userSpaceOnUse" color-interpolation-filters="sRGB">
<feFlood flood-opacity="0" result="BackgroundImageFix"/>
<feBlend mode="normal" in="SourceGraphic" in2="BackgroundImageFix" result="shape"/>
<feColorMatrix in="SourceAlpha" type="matrix" values="0 0 0 0 0 0 0 0 0 0 0 0 0 0 0 0 0 0 127 0" result="hardAlpha"/>
<feOffset dx="-5" dy="-2"/>
<feComposite in2="hardAlpha" operator="arithmetic" k2="-1" k3="1"/>
<feColorMatrix type="matrix" values="0 0 0 0 0.857959 0 0 0 0 0.857959 0 0 0 0 0.747586 0 0 0 1 0"/>
<feBlend mode="normal" in2="shape" result="effect1_innerShadow_1_219"/>
</filter>
<filter id="filter6_i_1_219" x="18.9364" y="29.9075" width="16.1207" height="19.0206" filterUnits="userSpaceOnUse" color-interpolation-filters="sRGB">
<feFlood flood-opacity="0" result="BackgroundImageFix"/>
<feBlend mode="normal" in="SourceGraphic" in2="BackgroundImageFix" result="shape"/>
<feColorMatrix in="SourceAlpha" type="matrix" values="0 0 0 0 0 0 0 0 0 0 0 0 0 0 0 0 0 0 127 0" result="hardAlpha"/>
<feOffset dx="-4" dy="-3"/>
<feComposite in2="hardAlpha" operator="arithmetic" k2="-1" k3="1"/>
<feColorMatrix type="matrix" values="0 0 0 0 0.470588 0 0 0 0 0.701961 0 0 0 0 0.392157 0 0 0 1 0"/>
<feBlend mode="normal" in2="shape" result="effect1_innerShadow_1_219"/>
</filter>
<filter id="filter7_i_1_219" x="17.1549" y="30.3458" width="8.70228" height="18.9881" filterUnits="userSpaceOnUse" color-interpolation-filters="sRGB">
<feFlood flood-opacity="0" result="BackgroundImageFix"/>
<feBlend mode="normal" in="SourceGraphic" in2="BackgroundImageFix" result="shape"/>
<feColorMatrix in="SourceAlpha" type="matrix" values="0 0 0 0 0 0 0 0 0 0 0 0 0 0 0 0 0 0 127 0" result="hardAlpha"/>
<feOffset dx="-4" dy="2"/>
<feComposite in2="hardAlpha" operator="arithmetic" k2="-1" k3="1"/>
<feColorMatrix type="matrix" values="0 0 0 0 0.857959 0 0 0 0 0.857959 0 0 0 0 0.747586 0 0 0 1 0"/>
<feBlend mode="normal" in2="shape" result="effect1_innerShadow_1_219"/>
</filter>
<filter id="filter8_i_1_219" x="19.4543" y="30.0575" width="11.4023" height="13.6092" filterUnits="userSpaceOnUse" color-interpolation-filters="sRGB">
<feFlood flood-opacity="0" result="BackgroundImageFix"/>
<feBlend mode="normal" in="SourceGraphic" in2="BackgroundImageFix" result="shape"/>
<feColorMatrix in="SourceAlpha" type="matrix" values="0 0 0 0 0 0 0 0 0 0 0 0 0 0 0 0 0 0 127 0" result="hardAlpha"/>
<feOffset dx="-6"/>
<feComposite in2="hardAlpha" operator="arithmetic" k2="-1" k3="1"/>
<feColorMatrix type="matrix" values="0 0 0 0 0.857959 0 0 0 0 0.857959 0 0 0 0 0.747586 0 0 0 1 0"/>
<feBlend mode="normal" in2="shape" result="effect1_innerShadow_1_219"/>
</filter>
<filter id="filter9_ii_1_219" x="3.35428" y="3.20689" width="27.8337" height="28.0517" filterUnits="userSpaceOnUse" color-interpolation-filters="sRGB">
<feFlood flood-opacity="0" result="BackgroundImageFix"/>
<feBlend mode="normal" in="SourceGraphic" in2="BackgroundImageFix" result="shape"/>
<feColorMatrix in="SourceAlpha" type="matrix" values="0 0 0 0 0 0 0 0 0 0 0 0 0 0 0 0 0 0 127 0" result="hardAlpha"/>
<feOffset dx="-2" dy="1"/>
<feComposite in2="hardAlpha" operator="arithmetic" k2="-1" k3="1"/>
<feColorMatrix type="matrix" values="0 0 0 0 0.470588 0 0 0 0 0.701961 0 0 0 0 0.392157 0 0 0 1 0"/>
<feBlend mode="normal" in2="shape" result="effect1_innerShadow_1_219"/>
<feColorMatrix in="SourceAlpha" type="matrix" values="0 0 0 0 0 0 0 0 0 0 0 0 0 0 0 0 0 0 127 0" result="hardAlpha"/>
<feOffset dx="1" dy="-1"/>
<feComposite in2="hardAlpha" operator="arithmetic" k2="-1" k3="1"/>
<feColorMatrix type="matrix" values="0 0 0 0 1 0 0 0 0 1 0 0 0 0 1 0 0 0 0.6 0"/>
<feBlend mode="normal" in2="effect1_innerShadow_1_219" result="effect2_innerShadow_1_219"/>
</filter>
<filter id="filter10_i_1_219" x="11.3624" y="25.0831" width="2.20689" height="2.58351" filterUnits="userSpaceOnUse" color-interpolation-filters="sRGB">
<feFlood flood-opacity="0" result="BackgroundImageFix"/>
<feBlend mode="normal" in="SourceGraphic" in2="BackgroundImageFix" result="shape"/>
<feColorMatrix in="SourceAlpha" type="matrix" values="0 0 0 0 0 0 0 0 0 0 0 0 0 0 0 0 0 0 127 0" result="hardAlpha"/>
<feOffset dy="2"/>
<feComposite in2="hardAlpha" operator="arithmetic" k2="-1" k3="1"/>
<feColorMatrix type="matrix" values="0 0 0 0 0 0 0 0 0 0 0 0 0 0 0 0 0 0 0.25 0"/>
<feBlend mode="normal" in2="shape" result="effect1_innerShadow_1_219"/>
</filter>
<filter id="filter11_i_1_219" x="13.9371" y="25.0358" width="2.02299" height="2.44693" filterUnits="userSpaceOnUse" color-interpolation-filters="sRGB">
<feFlood flood-opacity="0" result="BackgroundImageFix"/>
<feBlend mode="normal" in="SourceGraphic" in2="BackgroundImageFix" result="shape"/>
<feColorMatrix in="SourceAlpha" type="matrix" values="0 0 0 0 0 0 0 0 0 0 0 0 0 0 0 0 0 0 127 0" result="hardAlpha"/>
<feOffset dy="2"/>
<feComposite in2="hardAlpha" operator="arithmetic" k2="-1" k3="1"/>
<feColorMatrix type="matrix" values="0 0 0 0 0 0 0 0 0 0 0 0 0 0 0 0 0 0 0.25 0"/>
<feBlend mode="normal" in2="shape" result="effect1_innerShadow_1_219"/>
</filter>
<filter id="filter12_i_1_219" x="13.622" y="27.4901" width="5.35664" height="5.93246" filterUnits="userSpaceOnUse" color-interpolation-filters="sRGB">
<feFlood flood-opacity="0" result="BackgroundImageFix"/>
<feBlend mode="normal" in="SourceGraphic" in2="BackgroundImageFix" result="shape"/>
<feColorMatrix in="SourceAlpha" type="matrix" values="0 0 0 0 0 0 0 0 0 0 0 0 0 0 0 0 0 0 127 0" result="hardAlpha"/>
<feOffset dx="1" dy="2"/>
<feComposite in2="hardAlpha" operator="arithmetic" k2="-1" k3="1"/>
<feColorMatrix type="matrix" values="0 0 0 0 0 0 0 0 0 0 0 0 0 0 0 0 0 0 0.25 0"/>
<feBlend mode="normal" in2="shape" result="effect1_innerShadow_1_219"/>
</filter>
<filter id="filter13_ii_1_219" x="1.64911" y="0.850006" width="29.7251" height="18.4201" filterUnits="userSpaceOnUse" color-interpolation-filters="sRGB">
<feFlood flood-opacity="0" result="BackgroundImageFix"/>
<feBlend mode="normal" in="SourceGraphic" in2="BackgroundImageFix" result="shape"/>
<feColorMatrix in="SourceAlpha" type="matrix" values="0 0 0 0 0 0 0 0 0 0 0 0 0 0 0 0 0 0 127 0" result="hardAlpha"/>
<feOffset dy="-3"/>
<feComposite in2="hardAlpha" operator="arithmetic" k2="-1" k3="1"/>
<feColorMatrix type="matrix" values="0 0 0 0 0 0 0 0 0 0 0 0 0 0 0 0 0 0 0.25 0"/>
<feBlend mode="normal" in2="shape" result="effect1_innerShadow_1_219"/>
<feColorMatrix in="SourceAlpha" type="matrix" values="0 0 0 0 0 0 0 0 0 0 0 0 0 0 0 0 0 0 127 0" result="hardAlpha"/>
<feOffset dx="2" dy="2"/>
<feComposite in2="hardAlpha" operator="arithmetic" k2="-1" k3="1"/>
<feColorMatrix type="matrix" values="0 0 0 0 1 0 0 0 0 1 0 0 0 0 1 0 0 0 0.25 0"/>
<feBlend mode="normal" in2="effect1_innerShadow_1_219" result="effect2_innerShadow_1_219"/>
</filter>
<filter id="filter14_i_1_219" x="25.7072" y="15.6132" width="7.13543" height="8.43875" filterUnits="userSpaceOnUse" color-interpolation-filters="sRGB">
<feFlood flood-opacity="0" result="BackgroundImageFix"/>
<feBlend mode="normal" in="SourceGraphic" in2="BackgroundImageFix" result="shape"/>
<feColorMatrix in="SourceAlpha" type="matrix" values="0 0 0 0 0 0 0 0 0 0 0 0 0 0 0 0 0 0 127 0" result="hardAlpha"/>
<feOffset dx="-2" dy="3"/>
<feComposite in2="hardAlpha" operator="arithmetic" k2="-1" k3="1"/>
<feColorMatrix type="matrix" values="0 0 0 0 0.470588 0 0 0 0 0.701961 0 0 0 0 0.392157 0 0 0 1 0"/>
<feBlend mode="normal" in2="shape" result="effect1_innerShadow_1_219"/>
</filter>
<filter id="filter15_d_1_219" x="14.5406" y="14.713" width="8.28698" height="8.28699" filterUnits="userSpaceOnUse" color-interpolation-filters="sRGB">
<feFlood flood-opacity="0" result="BackgroundImageFix"/>
<feColorMatrix in="SourceAlpha" type="matrix" values="0 0 0 0 0 0 0 0 0 0 0 0 0 0 0 0 0 0 127 0" result="hardAlpha"/>
<feMorphology radius="1" operator="dilate" in="SourceAlpha" result="effect1_dropShadow_1_219"/>
<feOffset dx="0.5"/>
<feComposite in2="hardAlpha" operator="out"/>
<feColorMatrix type="matrix" values="0 0 0 0 0.470588 0 0 0 0 0.701961 0 0 0 0 0.392157 0 0 0 1 0"/>
<feBlend mode="normal" in2="BackgroundImageFix" result="effect1_dropShadow_1_219"/>
<feBlend mode="normal" in="SourceGraphic" in2="effect1_dropShadow_1_219" result="shape"/>
</filter>
<filter id="filter16_i_1_219" x="15.1494" y="15.5842" width="6.14486" height="3.20898" filterUnits="userSpaceOnUse" color-interpolation-filters="sRGB">
<feFlood flood-opacity="0" result="BackgroundImageFix"/>
<feBlend mode="normal" in="SourceGraphic" in2="BackgroundImageFix" result="shape"/>
<feColorMatrix in="SourceAlpha" type="matrix" values="0 0 0 0 0 0 0 0 0 0 0 0 0 0 0 0 0 0 127 0" result="hardAlpha"/>
<feOffset dx="-4" dy="1"/>
<feComposite in2="hardAlpha" operator="arithmetic" k2="-1" k3="1"/>
<feColorMatrix type="matrix" values="0 0 0 0 0.52301 0 0 0 0 0.717529 0 0 0 0 0.460368 0 0 0 1 0"/>
<feBlend mode="normal" in2="shape" result="effect1_innerShadow_1_219"/>
</filter>
<filter id="filter17_d_1_219" x="5.10954" y="14.713" width="7.28698" height="7.28699" filterUnits="userSpaceOnUse" color-interpolation-filters="sRGB">
<feFlood flood-opacity="0" result="BackgroundImageFix"/>
<feColorMatrix in="SourceAlpha" type="matrix" values="0 0 0 0 0 0 0 0 0 0 0 0 0 0 0 0 0 0 127 0" result="hardAlpha"/>
<feMorphology radius="0.5" operator="dilate" in="SourceAlpha" result="effect1_dropShadow_1_219"/>
<feOffset dx="0.5" dy="-0.5"/>
<feComposite in2="hardAlpha" operator="out"/>
<feColorMatrix type="matrix" values="0 0 0 0 0.470588 0 0 0 0 0.701961 0 0 0 0 0.392157 0 0 0 1 0"/>
<feBlend mode="normal" in2="BackgroundImageFix" result="effect1_dropShadow_1_219"/>
<feBlend mode="normal" in="SourceGraphic" in2="effect1_dropShadow_1_219" result="shape"/>
</filter>
<filter id="filter18_i_1_219" x="5.21832" y="15.5842" width="6.14486" height="3.20898" filterUnits="userSpaceOnUse" color-interpolation-filters="sRGB">
<feFlood flood-opacity="0" result="BackgroundImageFix"/>
<feBlend mode="normal" in="SourceGraphic" in2="BackgroundImageFix" result="shape"/>
<feColorMatrix in="SourceAlpha" type="matrix" values="0 0 0 0 0 0 0 0 0 0 0 0 0 0 0 0 0 0 127 0" result="hardAlpha"/>
<feOffset dx="-4" dy="1"/>
<feComposite in2="hardAlpha" operator="arithmetic" k2="-1" k3="1"/>
<feColorMatrix type="matrix" values="0 0 0 0 0.52301 0 0 0 0 0.717529 0 0 0 0 0.460368 0 0 0 1 0"/>
<feBlend mode="normal" in2="shape" result="effect1_innerShadow_1_219"/>
</filter>
<filter id="filter19_i_1_219" x="3.0541" y="12.201" width="6.97545" height="4.00021" filterUnits="userSpaceOnUse" color-interpolation-filters="sRGB">
<feFlood flood-opacity="0" result="BackgroundImageFix"/>
<feBlend mode="normal" in="SourceGraphic" in2="BackgroundImageFix" result="shape"/>
<feColorMatrix in="SourceAlpha" type="matrix" values="0 0 0 0 0 0 0 0 0 0 0 0 0 0 0 0 0 0 127 0" result="hardAlpha"/>
<feOffset dx="-2" dy="2"/>
<feComposite in2="hardAlpha" operator="arithmetic" k2="-1" k3="1"/>
<feColorMatrix type="matrix" values="0 0 0 0 0.280032 0 0 0 0 0.445199 0 0 0 0 0.228418 0 0 0 1 0"/>
<feBlend mode="normal" in2="shape" result="effect1_innerShadow_1_219"/>
</filter>
<filter id="filter20_i_1_219" x="15.9941" y="12.2523" width="6.55281" height="4.39229" filterUnits="userSpaceOnUse" color-interpolation-filters="sRGB">
<feFlood flood-opacity="0" result="BackgroundImageFix"/>
<feBlend mode="normal" in="SourceGraphic" in2="BackgroundImageFix" result="shape"/>
<feColorMatrix in="SourceAlpha" type="matrix" values="0 0 0 0 0 0 0 0 0 0 0 0 0 0 0 0 0 0 127 0" result="hardAlpha"/>
<feOffset dx="-2" dy="2"/>
<feComposite in2="hardAlpha" operator="arithmetic" k2="-1" k3="1"/>
<feColorMatrix type="matrix" values="0 0 0 0 0.280032 0 0 0 0 0.445199 0 0 0 0 0.228418 0 0 0 1 0"/>
<feBlend mode="normal" in2="shape" result="effect1_innerShadow_1_219"/>
</filter>
</defs>
</svg>
