<svg width="64" height="64" viewBox="0 0 64 64" fill="none" xmlns="http://www.w3.org/2000/svg">
<ellipse cx="31.5595" cy="58.1931" rx="27" ry="4" fill="black" fill-opacity="0.24"/>
<g filter="url(#filter0_i_1_322)">
<path d="M2.02392 46.5151L3.02273 50.611C3.24166 51.5088 4.0472 52.1397 4.97132 52.1372L19.1233 52.098C19.5996 52.0967 20.0723 51.9357 20.378 51.5705C22.3547 49.2095 22.3088 44.6982 19.5598 44.2601C18.4773 44.0876 8.89099 45.2898 5.30082 45.7063C4.62972 45.7842 3.84336 45.2483 3.24984 44.9255C2.31887 44.4193 1.77286 45.4856 2.02392 46.5151Z" fill="#A5E092"/>
</g>
<path d="M2.02392 46.5151L3.02273 50.611C3.24166 51.5088 4.0472 52.1397 4.97132 52.1372L19.1233 52.098C19.5996 52.0967 20.0723 51.9357 20.378 51.5705C22.3547 49.2095 22.3088 44.6982 19.5598 44.2601C18.4773 44.0876 8.89099 45.2898 5.30082 45.7063C4.62972 45.7842 3.84336 45.2483 3.24984 44.9255C2.31887 44.4193 1.77286 45.4856 2.02392 46.5151Z" stroke="black" stroke-width="0.3" stroke-linecap="round" stroke-linejoin="round"/>
<g filter="url(#filter1_i_1_322)">
<path d="M35.4086 47.4734L34.8026 52.747C34.6884 53.7407 33.8576 54.4973 32.8576 54.5182L20.5936 54.7755C19.7906 54.7923 19.0484 54.3295 18.7516 53.5831C16.6545 48.3092 17.3442 45.1988 19.9982 40.8482C20.51 40.0092 21.5734 39.7056 22.4693 40.1098L34.2441 45.422C35.0371 45.7798 35.5079 46.6091 35.4086 47.4734Z" fill="#A5E092"/>
</g>
<path d="M35.4086 47.4734L34.8026 52.747C34.6884 53.7407 33.8576 54.4973 32.8576 54.5182L20.5936 54.7755C19.7906 54.7923 19.0484 54.3295 18.7516 53.5831C16.6545 48.3092 17.3442 45.1988 19.9982 40.8482C20.51 40.0092 21.5734 39.7056 22.4693 40.1098L34.2441 45.422C35.0371 45.7798 35.5079 46.6091 35.4086 47.4734Z" stroke="black" stroke-width="0.5" stroke-linecap="round" stroke-linejoin="round"/>
<g filter="url(#filter2_ii_1_322)">
<path d="M2.95035 50.6106L3.15068 54.2493C3.21715 55.4566 4.33142 56.3293 5.51948 56.1045L18.753 53.6006C19.2519 53.5062 19.7123 53.2332 19.9363 52.7777C21.2899 50.026 20.24 45.6811 17.4978 45.8681C16.4421 45.9401 9.89591 48.2936 6.88761 49.355C6.16829 49.6088 5.3888 49.3489 4.66109 49.1202C4.54466 49.0836 4.42855 49.056 4.31418 49.0361C3.45529 48.886 2.90242 49.74 2.95035 50.6106Z" fill="#A5E092"/>
</g>
<path d="M2.95035 50.6106L3.15068 54.2493C3.21715 55.4566 4.33142 56.3293 5.51948 56.1045L18.753 53.6006C19.2519 53.5062 19.7123 53.2332 19.9363 52.7777C21.2899 50.026 20.24 45.6811 17.4978 45.8681C16.4421 45.9401 9.89591 48.2936 6.88761 49.355C6.16829 49.6088 5.3888 49.3489 4.66109 49.1202C4.54466 49.0836 4.42855 49.056 4.31418 49.0361C3.45529 48.886 2.90242 49.74 2.95035 50.6106Z" stroke="black" stroke-width="0.3" stroke-linecap="round" stroke-linejoin="round"/>
<g filter="url(#filter3_i_1_322)">
<path d="M18.8735 54.761C16.703 55.0556 13.6288 55.5011 11.8729 55.8385C11.1965 55.9685 10.2297 55.5321 9.95581 54.9001L9.91583 54.8078C9.76907 54.4691 9.8208 54.0772 10.0504 53.7882L11.0391 52.5436C11.4861 51.981 11.2116 51.1447 10.5182 50.9565L9.15735 50.587C8.72174 50.4688 8.41935 50.0734 8.41936 49.622L8.41936 49.3911C8.41936 48.9484 8.71047 48.5584 9.13491 48.4324L11.2928 47.7922C10.4088 48.0545 9.67105 47.0822 10.1617 46.3014L10.7604 45.3486C10.8752 45.166 10.7692 44.9251 10.557 44.8863C10.2547 44.8311 10.2146 44.414 10.5009 44.3022L18.3781 41.2258C19.0339 40.9697 19.7419 41.4533 19.7419 42.1572L19.7419 53.768C19.7419 54.2697 19.3707 54.6935 18.8735 54.761Z" fill="#765C62"/>
</g>
<path d="M14.2903 46.9028L11.2928 47.7922C10.4088 48.0545 9.67105 47.0822 10.1617 46.3014L10.7604 45.3486C10.8752 45.166 10.7692 44.9251 10.557 44.8863V44.8863C10.2547 44.8311 10.2146 44.414 10.5009 44.3022L18.3781 41.2258C19.0339 40.9697 19.7419 41.4533 19.7419 42.1572L19.7419 53.768C19.7419 54.2697 19.3707 54.6935 18.8735 54.761C16.703 55.0556 13.6288 55.5011 11.8729 55.8385C11.1965 55.9685 10.2297 55.5321 9.95581 54.9001L9.91583 54.8078C9.76907 54.4691 9.8208 54.0772 10.0504 53.7882L11.0391 52.5436C11.4861 51.981 11.2116 51.1447 10.5182 50.9565L9.15735 50.587C8.72174 50.4688 8.41935 50.0734 8.41936 49.622L8.41936 49.3911C8.41936 48.9484 8.71047 48.5584 9.13491 48.4324L14.2903 46.9028ZM14.2903 46.9028L14.7097 44.9673M14.2903 46.9028L14.2903 48.2576" stroke="#1D271A" stroke-width="0.3" stroke-linecap="round" stroke-linejoin="round"/>
<g filter="url(#filter4_i_1_322)">
<path d="M16.9868 47.4318L32.3356 47.4318C33.0553 47.4318 33.7195 47.8185 34.0749 48.4444L34.3885 48.9967C34.4626 49.1272 34.5218 49.2657 34.5649 49.4095L35.2909 51.8296C35.6562 53.0472 34.8126 54.2904 33.5451 54.3878C28.4185 54.7816 17.0598 55.5828 17.2185 54.9368C17.4814 53.866 17.0506 52.4092 16.7296 51.3543C16.6617 51.1311 16.5316 50.9095 16.3139 50.7028C15.8332 50.2464 15.3756 49.7059 15.3756 49.043C15.3756 48.1532 16.097 47.4318 16.9868 47.4318Z" fill="#FFFFE1"/>
</g>
<path d="M16.9868 47.4318L32.3356 47.4318C33.0553 47.4318 33.7195 47.8185 34.0749 48.4444L34.3885 48.9967C34.4626 49.1272 34.5218 49.2657 34.5649 49.4095L35.2909 51.8296C35.6562 53.0472 34.8126 54.2904 33.5451 54.3878C28.4185 54.7816 17.0598 55.5828 17.2185 54.9368C17.4814 53.866 17.0506 52.4092 16.7296 51.3543C16.6617 51.1311 16.5316 50.9095 16.3139 50.7028C15.8332 50.2464 15.3756 49.7059 15.3756 49.043C15.3756 48.1532 16.097 47.4318 16.9868 47.4318Z" stroke="#1D271A" stroke-width="0.3" stroke-linecap="round" stroke-linejoin="round"/>
<path d="M33.0674 45.8553L33.9373 45.6034C34.8754 45.3318 34.9078 44.0145 33.9842 43.6971L20.09 38.9225C19.3657 38.6736 18.5638 40.0089 17.8077 40.1305C17.1437 40.2373 16.5663 41.0657 16.1748 41.8604C15.907 42.4038 16.2745 43.0129 16.8711 43.1176L32.6165 45.8797C32.7667 45.9061 32.9209 45.8977 33.0674 45.8553Z" fill="#FFFFE1" stroke="#1D271A" stroke-width="0.2" stroke-linecap="round" stroke-linejoin="round"/>
<g filter="url(#filter5_ii_1_322)">
<path d="M56.191 31.9926C62.1015 35.506 61.3659 48.9313 56.191 54.0998C51.016 59.2684 41.2926 58.5303 35.6188 52.4255C29.945 46.3208 32.4669 36.2607 36.3544 32.7474C40.2419 29.234 50.2804 28.4792 56.191 31.9926Z" fill="#A5E092"/>
</g>
<path d="M56.1143 32.1215C57.5538 32.9772 58.5981 34.4422 59.2716 36.2545C59.945 38.0664 60.2437 40.2159 60.1981 42.4224C60.1066 46.8419 58.6352 51.4466 56.085 53.9937C50.9821 59.0902 41.3569 58.3791 35.7287 52.3234C32.9293 49.3115 32.1463 45.3181 32.5502 41.631C32.9546 37.9396 34.5455 34.5844 36.455 32.8586C38.3619 31.1353 41.8028 30.0727 45.5216 29.8847C49.2364 29.697 53.1918 30.3843 56.1143 32.1215Z" stroke="#1D271A" stroke-width="0.3"/>
<path d="M48 45.1931L43 48.6931M44 45.1931L47.5 48.6931" stroke="#1D271A" stroke-linecap="round" stroke-linejoin="round"/>
<path d="M48 36.1931L43 39.6931M44 36.1931L47.5 39.6931" stroke="#1D271A" stroke-linecap="round" stroke-linejoin="round"/>
<path d="M22.3641 45.8623C22.161 45.8623 21.9963 45.6153 21.9963 45.3106C21.9963 45.0059 22.161 44.7588 22.3641 44.7588C22.5672 44.7588 22.7319 45.0059 22.7319 45.3106C22.7319 45.6153 22.5672 45.8623 22.3641 45.8623Z" fill="#1D271A"/>
<ellipse cx="41.7779" cy="42.8935" rx="0.394089" ry="0.411222" transform="rotate(90 41.7779 42.8935)" fill="#39582F"/>
<ellipse cx="41.795" cy="41.8426" rx="0.394088" ry="0.411223" transform="rotate(90 41.795 41.8426)" fill="#39582F"/>
<ellipse cx="52.7089" cy="41.8163" rx="2.94253" ry="1.65517" transform="rotate(90 52.7089 41.8163)" fill="#78B166"/>
<ellipse cx="55.2836" cy="44.5749" rx="0.91954" ry="0.551724" transform="rotate(90 55.2836 44.5749)" fill="#78B166"/>
<ellipse cx="55.2836" cy="41.6324" rx="0.91954" ry="0.551724" transform="rotate(90 55.2836 41.6324)" fill="#D0F9C3"/>
<path d="M35.1716 42.9198C35.1716 44.115 35.3977 45.1278 35.8131 45.8513C36.2313 46.5799 36.8554 47.0318 37.6285 47.0318C38.3955 47.0318 39.0639 46.5866 39.5294 45.862C39.994 45.1387 40.2693 44.1231 40.2693 42.9198C40.2693 41.7226 39.996 40.9845 39.4767 40.5624C38.969 40.1497 38.2878 40.095 37.6285 40.095C36.9715 40.095 36.3267 40.1485 35.8617 40.5714C35.3933 40.9974 35.1716 41.735 35.1716 42.9198Z" fill="#1D271A" stroke="#44633A" stroke-width="0.5"/>
<g filter="url(#filter6_i_1_322)">
<path d="M36.8928 40.7129L38.548 41.0807C39.8585 41.5042 39.5892 41.9952 38.9158 42.9198L36.8928 42.5519L36.8928 40.7129Z" fill="white"/>
<path d="M36.8928 40.7129L38.548 41.0807C39.8585 41.5042 39.5892 41.9952 38.9158 42.9198L36.8928 42.5519L36.8928 40.7129Z" stroke="black"/>
</g>
<g filter="url(#filter7_i_1_322)">
<path d="M37.0767 43.4715L38.9158 43.2876C39.0997 43.6554 39.8354 44.0232 39.374 44.8738L37.4446 45.3106L37.0767 43.4715Z" fill="white"/>
<path d="M37.0767 43.4715L38.9158 43.2876C39.0997 43.6554 39.8354 44.0232 39.374 44.8738L37.4446 45.3106L37.0767 43.4715Z" stroke="black"/>
</g>
<path d="M38.1256 40.5924C38.0603 40.5451 37.9952 40.498 37.9307 40.4503C38.4614 40.4708 38.9162 40.5578 39.2559 40.834C39.6539 41.1575 39.9193 41.7633 39.9193 42.9198C39.9193 44.0737 39.6547 45.0192 39.2349 45.6728C38.8704 46.2402 38.3927 46.5833 37.8688 46.6636C38.2015 46.2906 38.4613 45.9867 38.6573 45.7204C38.8851 45.4109 39.0307 45.1466 39.1043 44.8771C39.2484 44.3485 39.1067 43.8228 38.8432 42.9428C39.103 42.6291 39.2325 42.3474 39.254 42.086C39.2767 41.8104 39.1781 41.5738 39.0182 41.3648C38.86 41.1579 38.638 40.9729 38.4041 40.7968C38.3118 40.7272 38.2185 40.6597 38.1256 40.5924Z" fill="#E275A0" stroke="#1D271A" stroke-width="0.2"/>
<g filter="url(#filter8_i_1_322)">
<path d="M33.0982 44.561C32.4225 44.5383 29.8684 46.6577 32.3477 48.0498C35.0908 48.7395 37.3538 46.5334 36.848 44.6893C36.6843 44.0922 36.2303 43.5331 35.4083 43.1225C35.3853 44.1906 33.0982 44.561 33.0982 44.561Z" fill="#EFA9C4"/>
</g>
<path d="M36.848 44.6893C36.6843 44.0922 36.2303 43.5331 35.4083 43.1225C35.3853 44.1906 33.0982 44.561 33.0982 44.561C32.4225 44.5383 29.8684 46.6577 32.3477 48.0498C35.0908 48.7395 37.3538 46.5334 36.848 44.6893ZM36.848 44.6893C36.475 45.2314 35.4735 46.3421 34.4518 46.4483" stroke="#1D271A" stroke-width="0.3" stroke-linecap="round" stroke-linejoin="round"/>
<g filter="url(#filter9_i_1_322)">
<path d="M16.5556 54.2457C21.9849 55.9449 34.0623 55.1656 35.0372 54.1172C36.012 53.0689 35.9129 50.8376 34.3027 50.0829C32.6925 49.3282 24.4739 48.079 19.2706 47.5544C17.7276 47.3988 15.8798 46.3615 15.3976 48.4245C12.3448 49.3527 12.7364 53.0504 16.5556 54.2457Z" fill="#A5E092"/>
</g>
<path d="M16.5556 54.2457C21.9849 55.9449 34.0623 55.1656 35.0372 54.1172C36.012 53.0689 35.9129 50.8376 34.3027 50.0829C32.6925 49.3282 24.4739 48.079 19.2706 47.5544C17.7276 47.3988 15.8798 46.3615 15.3976 48.4245C12.3448 49.3527 12.7364 53.0504 16.5556 54.2457Z" stroke="black" stroke-width="0.3" stroke-linecap="round" stroke-linejoin="round"/>
<g filter="url(#filter10_i_1_322)">
<path d="M23.0199 55.5127C27.7164 55.316 30.5004 55.0523 34.3163 54.8924C37.8838 52.9263 36.6458 49.0332 29.4033 48.0417C27.4849 47.779 23.5947 47.4323 22.7764 47.5842C21.7535 47.7741 22.6522 48.3245 23.5779 49.7558C24.2878 50.8536 24.0678 51.3525 24.0858 51.9398C24.1002 52.4096 23.1141 53.7936 22.6903 54.3504L23.0199 55.5127Z" fill="#FFFFE1"/>
</g>
<path d="M23.0199 55.5127C27.7164 55.316 30.5004 55.0523 34.3163 54.8924C37.8838 52.9263 36.6458 49.0332 29.4033 48.0417C27.4849 47.779 23.5947 47.4323 22.7764 47.5842C21.7535 47.7741 22.6522 48.3245 23.5779 49.7558C24.2878 50.8536 24.0678 51.3525 24.0858 51.9398C24.1002 52.4096 23.1141 53.7936 22.6903 54.3504L23.0199 55.5127Z" stroke="#1D271A" stroke-width="0.3" stroke-linecap="round" stroke-linejoin="round"/>
<g filter="url(#filter11_ii_1_322)">
<path d="M59.0102 50.9816C69.2353 41.738 56.0888 31.4936 62.1404 28.6612C57.9669 26.1402 53.1673 31.1822 57.9669 33.0729C53.5847 34.5435 53.7933 39.1653 54.8367 41.2662C55.8801 43.367 58.5929 43.4187 56.7148 49.9313C52.1239 49.9313 50.2458 50.7716 48.5764 52.8724L45.029 52.8724L47.3244 57.2841C53.3146 57.8801 56.9234 56.0237 57.9669 52.8724C59.4275 57.2841 66.3139 50.5615 59.0102 50.9816Z" fill="#31412C"/>
</g>
<path d="M59.0102 50.9816C69.2353 41.738 56.0888 31.4936 62.1404 28.6612C57.9669 26.1402 53.1673 31.1822 57.9669 33.0729C53.5847 34.5435 53.7933 39.1653 54.8367 41.2662C55.8801 43.367 58.5929 43.4187 56.7148 49.9313C52.1239 49.9313 50.2458 50.7716 48.5764 52.8724L45.029 52.8724L47.3244 57.2841C53.3146 57.8801 56.9234 56.0237 57.9669 52.8724C59.4275 57.2841 66.3139 50.5615 59.0102 50.9816Z" stroke="#1D271A" stroke-width="0.3"/>
<g filter="url(#filter12_i_1_322)">
<path d="M46.4578 51.6349C48.0853 52.6099 49.2125 55.8709 47.7876 57.3052C46.3626 58.7396 42.5581 58.2114 40.9957 56.5172C39.4334 54.8231 39.9253 52.8194 40.9958 51.8444C42.0662 50.8694 44.8303 50.6599 46.4578 51.6349Z" fill="#A5E092"/>
</g>
<path d="M46.3807 51.7636C47.1513 52.2252 47.8223 53.2453 48.1227 54.3376C48.4241 55.433 48.3376 56.5387 47.6812 57.1995C47.0179 57.8672 45.7698 58.098 44.4617 57.9356C43.1592 57.7738 41.8555 57.2282 41.106 56.4156C39.6058 54.7888 40.0814 52.88 41.0968 51.9552C41.5951 51.5013 42.513 51.2097 43.5255 51.1582C44.5341 51.1068 45.5999 51.2958 46.3807 51.7636Z" stroke="#1D271A" stroke-width="0.3"/>
<path d="M44.4772 52.7168C45.7033 53.6976 47.4198 55.8064 44.4772 56.3949" stroke="black" stroke-width="0.3" stroke-linecap="round" stroke-linejoin="round"/>
<g filter="url(#filter13_i_1_322)">
<path d="M49.1374 38.8665C49.1555 40.6726 50.5944 40.1128 51.7009 39.1582L50.9397 38.658C51.2097 38.123 51.4295 36.0225 50.9397 34.6352C50.3276 32.9011 49.158 33.238 48.042 33.9761C48.3795 34.6887 49.1147 36.6088 49.1374 38.8665Z" fill="#31412C"/>
</g>
<path d="M51.7009 39.1582L51.7833 39.0328C51.8226 39.0587 51.8475 39.1014 51.8506 39.1484C51.8537 39.1953 51.8345 39.241 51.7989 39.2717L51.7009 39.1582ZM49.1374 38.8665L48.9874 38.868L49.1374 38.8665ZM48.042 33.9761L47.9064 34.0403L47.8507 33.9228L47.9592 33.851L48.042 33.9761ZM50.9397 34.6352L50.7983 34.6851L50.9397 34.6352ZM50.9397 38.658L50.8574 38.7834L50.7455 38.7099L50.8058 38.5904L50.9397 38.658ZM51.7989 39.2717C51.5161 39.5157 51.21 39.7363 50.9079 39.901C50.6076 40.0647 50.3016 40.1785 50.021 40.1973C49.7351 40.2164 49.4671 40.1363 49.2745 39.904C49.0881 39.6793 48.9921 39.335 48.9874 38.868L49.2874 38.865C49.2917 39.301 49.3823 39.5641 49.5054 39.7125C49.6223 39.8535 49.7865 39.9123 50.001 39.898C50.2207 39.8832 50.483 39.791 50.7643 39.6376C51.0437 39.4853 51.3324 39.278 51.6029 39.0446L51.7989 39.2717ZM48.9874 38.868C48.965 36.6388 48.2381 34.7405 47.9064 34.0403L48.1775 33.9119C48.5209 34.6368 49.2644 36.5787 49.2874 38.865L48.9874 38.868ZM47.9592 33.851C48.5201 33.48 49.1289 33.1844 49.6917 33.229C49.9794 33.2518 50.2501 33.3631 50.4885 33.5876C50.7244 33.8098 50.9231 34.1374 51.0812 34.5853L50.7983 34.6851C50.6503 34.266 50.4732 33.9853 50.2828 33.806C50.0949 33.6291 49.8887 33.5456 49.668 33.5281C49.2139 33.4921 48.6799 33.7341 48.1247 34.1012L47.9592 33.851ZM51.0812 34.5853C51.3349 35.3038 51.4023 36.1969 51.3745 36.9716C51.3606 37.3603 51.3225 37.7232 51.2703 38.0244C51.2188 38.3215 51.1515 38.5712 51.0737 38.7256L50.8058 38.5904C50.8629 38.4773 50.9244 38.2638 50.9747 37.9732C51.0244 37.6867 51.0612 37.3375 51.0747 36.9608C51.1019 36.2047 51.0344 35.3538 50.7983 34.6851L51.0812 34.5853ZM51.0221 38.5327L51.7833 39.0328L51.6185 39.2835L50.8574 38.7834L51.0221 38.5327Z" fill="#1D271A"/>
<g filter="url(#filter14_i_1_322)">
<path d="M49.2644 44.323C49.1134 42.7805 50.7941 43.1918 51.6497 44.323L51.4486 45.127C51.5995 45.6925 51.6498 47.3939 50.9251 48.6278C50.0192 50.1703 48.5095 49.5533 47.6037 48.6278C48.0566 48.0109 49.4795 46.5205 49.2644 44.323Z" fill="#31412C"/>
</g>
<path d="M51.6497 44.323L51.7952 44.3594C51.8062 44.3153 51.7967 44.2687 51.7693 44.2325L51.6497 44.323ZM49.2644 44.323L49.1151 44.3376L49.1151 44.3376L49.2644 44.323ZM47.6037 48.6278L47.4827 48.5391L47.4074 48.6418L47.4965 48.7328L47.6037 48.6278ZM50.9251 48.6278L50.7957 48.5519H50.7957L50.9251 48.6278ZM51.4486 45.127L51.3031 45.0906L51.2936 45.1282L51.3036 45.1656L51.4486 45.127ZM51.7693 44.2325C51.3233 43.6428 50.6547 43.2278 50.0947 43.1711C49.8113 43.1424 49.5353 43.2049 49.3433 43.4109C49.1529 43.6153 49.0751 43.9291 49.1151 44.3376L49.4137 44.3083C49.3781 43.9456 49.4538 43.7324 49.5628 43.6154C49.6703 43.5001 49.8396 43.4469 50.0645 43.4696C50.521 43.5158 51.1205 43.8719 51.53 44.4135L51.7693 44.2325ZM49.1151 44.3376C49.3233 46.4651 47.9497 47.903 47.4827 48.5391L47.7246 48.7166C48.1635 48.1187 49.6356 46.5758 49.4137 44.3083L49.1151 44.3376ZM47.4965 48.7328C47.9628 49.2092 48.5959 49.6192 49.2454 49.7021C49.573 49.744 49.9061 49.7025 50.2196 49.5423C50.5328 49.3823 50.8164 49.1091 51.0544 48.7038L50.7957 48.5519C50.5809 48.9178 50.3361 49.1459 50.0831 49.2751C49.8305 49.4042 49.5596 49.4398 49.2834 49.4045C48.725 49.3332 48.1504 48.972 47.7108 48.5229L47.4965 48.7328ZM51.0544 48.7038C51.4318 48.0613 51.6042 47.3037 51.6646 46.6403C51.7248 45.9788 51.6749 45.3932 51.5935 45.0883L51.3036 45.1656C51.3732 45.4263 51.4239 45.9742 51.3658 46.6132C51.3078 47.2504 51.1431 47.9604 50.7957 48.5519L51.0544 48.7038ZM51.5941 45.1634L51.7952 44.3594L51.5041 44.2866L51.3031 45.0906L51.5941 45.1634Z" fill="#1D271A"/>
<defs>
<filter id="filter0_i_1_322" x="1.81294" y="44.0933" width="20.0929" height="8.19385" filterUnits="userSpaceOnUse" color-interpolation-filters="sRGB">
<feFlood flood-opacity="0" result="BackgroundImageFix"/>
<feBlend mode="normal" in="SourceGraphic" in2="BackgroundImageFix" result="shape"/>
<feColorMatrix in="SourceAlpha" type="matrix" values="0 0 0 0 0 0 0 0 0 0 0 0 0 0 0 0 0 0 127 0" result="hardAlpha"/>
<feOffset dx="-4" dy="-3"/>
<feComposite in2="hardAlpha" operator="arithmetic" k2="-1" k3="1"/>
<feColorMatrix type="matrix" values="0 0 0 0 0.470588 0 0 0 0 0.701961 0 0 0 0 0.392157 0 0 0 1 0"/>
<feBlend mode="normal" in2="shape" result="effect1_innerShadow_1_322"/>
</filter>
<filter id="filter1_i_1_322" x="17.2701" y="39.6826" width="18.4016" height="15.3434" filterUnits="userSpaceOnUse" color-interpolation-filters="sRGB">
<feFlood flood-opacity="0" result="BackgroundImageFix"/>
<feBlend mode="normal" in="SourceGraphic" in2="BackgroundImageFix" result="shape"/>
<feColorMatrix in="SourceAlpha" type="matrix" values="0 0 0 0 0 0 0 0 0 0 0 0 0 0 0 0 0 0 127 0" result="hardAlpha"/>
<feOffset dx="2" dy="4"/>
<feComposite in2="hardAlpha" operator="arithmetic" k2="-1" k3="1"/>
<feColorMatrix type="matrix" values="0 0 0 0 0 0 0 0 0 0 0 0 0 0 0 0 0 0 0.25 0"/>
<feBlend mode="normal" in2="shape" result="effect1_innerShadow_1_322"/>
</filter>
<filter id="filter2_ii_1_322" x="2.79747" y="45.7122" width="17.8775" height="10.5777" filterUnits="userSpaceOnUse" color-interpolation-filters="sRGB">
<feFlood flood-opacity="0" result="BackgroundImageFix"/>
<feBlend mode="normal" in="SourceGraphic" in2="BackgroundImageFix" result="shape"/>
<feColorMatrix in="SourceAlpha" type="matrix" values="0 0 0 0 0 0 0 0 0 0 0 0 0 0 0 0 0 0 127 0" result="hardAlpha"/>
<feOffset dx="-4" dy="-1"/>
<feComposite in2="hardAlpha" operator="arithmetic" k2="-1" k3="1"/>
<feColorMatrix type="matrix" values="0 0 0 0 0.470588 0 0 0 0 0.701961 0 0 0 0 0.392157 0 0 0 1 0"/>
<feBlend mode="normal" in2="shape" result="effect1_innerShadow_1_322"/>
<feColorMatrix in="SourceAlpha" type="matrix" values="0 0 0 0 0 0 0 0 0 0 0 0 0 0 0 0 0 0 127 0" result="hardAlpha"/>
<feOffset dx="2" dy="2"/>
<feComposite in2="hardAlpha" operator="arithmetic" k2="-1" k3="1"/>
<feColorMatrix type="matrix" values="0 0 0 0 1 0 0 0 0 1 0 0 0 0 1 0 0 0 0.6 0"/>
<feBlend mode="normal" in2="effect1_innerShadow_1_322" result="effect2_innerShadow_1_322"/>
</filter>
<filter id="filter3_i_1_322" x="8.26936" y="41.0061" width="11.6226" height="15.0054" filterUnits="userSpaceOnUse" color-interpolation-filters="sRGB">
<feFlood flood-opacity="0" result="BackgroundImageFix"/>
<feBlend mode="normal" in="SourceGraphic" in2="BackgroundImageFix" result="shape"/>
<feColorMatrix in="SourceAlpha" type="matrix" values="0 0 0 0 0 0 0 0 0 0 0 0 0 0 0 0 0 0 127 0" result="hardAlpha"/>
<feOffset dx="-4" dy="4"/>
<feComposite in2="hardAlpha" operator="arithmetic" k2="-1" k3="1"/>
<feColorMatrix type="matrix" values="0 0 0 0 0 0 0 0 0 0 0 0 0 0 0 0 0 0 0.25 0"/>
<feBlend mode="normal" in2="shape" result="effect1_innerShadow_1_322"/>
</filter>
<filter id="filter4_i_1_322" x="15.2256" y="47.2818" width="20.3011" height="8.04823" filterUnits="userSpaceOnUse" color-interpolation-filters="sRGB">
<feFlood flood-opacity="0" result="BackgroundImageFix"/>
<feBlend mode="normal" in="SourceGraphic" in2="BackgroundImageFix" result="shape"/>
<feColorMatrix in="SourceAlpha" type="matrix" values="0 0 0 0 0 0 0 0 0 0 0 0 0 0 0 0 0 0 127 0" result="hardAlpha"/>
<feOffset dx="-4" dy="2"/>
<feComposite in2="hardAlpha" operator="arithmetic" k2="-1" k3="1"/>
<feColorMatrix type="matrix" values="0 0 0 0 0.857959 0 0 0 0 0.857959 0 0 0 0 0.747586 0 0 0 1 0"/>
<feBlend mode="normal" in2="shape" result="effect1_innerShadow_1_322"/>
</filter>
<filter id="filter5_ii_1_322" x="32.3009" y="29.7048" width="28.0517" height="27.8337" filterUnits="userSpaceOnUse" color-interpolation-filters="sRGB">
<feFlood flood-opacity="0" result="BackgroundImageFix"/>
<feBlend mode="normal" in="SourceGraphic" in2="BackgroundImageFix" result="shape"/>
<feColorMatrix in="SourceAlpha" type="matrix" values="0 0 0 0 0 0 0 0 0 0 0 0 0 0 0 0 0 0 127 0" result="hardAlpha"/>
<feOffset dx="-2" dy="1"/>
<feComposite in2="hardAlpha" operator="arithmetic" k2="-1" k3="1"/>
<feColorMatrix type="matrix" values="0 0 0 0 0.470588 0 0 0 0 0.701961 0 0 0 0 0.392157 0 0 0 1 0"/>
<feBlend mode="normal" in2="shape" result="effect1_innerShadow_1_322"/>
<feColorMatrix in="SourceAlpha" type="matrix" values="0 0 0 0 0 0 0 0 0 0 0 0 0 0 0 0 0 0 127 0" result="hardAlpha"/>
<feOffset dx="1" dy="-1"/>
<feComposite in2="hardAlpha" operator="arithmetic" k2="-1" k3="1"/>
<feColorMatrix type="matrix" values="0 0 0 0 1 0 0 0 0 1 0 0 0 0 1 0 0 0 0.6 0"/>
<feBlend mode="normal" in2="effect1_innerShadow_1_322" result="effect2_innerShadow_1_322"/>
</filter>
<filter id="filter6_i_1_322" x="36.8928" y="40.7129" width="2.5835" height="2.2069" filterUnits="userSpaceOnUse" color-interpolation-filters="sRGB">
<feFlood flood-opacity="0" result="BackgroundImageFix"/>
<feBlend mode="normal" in="SourceGraphic" in2="BackgroundImageFix" result="shape"/>
<feColorMatrix in="SourceAlpha" type="matrix" values="0 0 0 0 0 0 0 0 0 0 0 0 0 0 0 0 0 0 127 0" result="hardAlpha"/>
<feOffset dy="2"/>
<feComposite in2="hardAlpha" operator="arithmetic" k2="-1" k3="1"/>
<feColorMatrix type="matrix" values="0 0 0 0 0 0 0 0 0 0 0 0 0 0 0 0 0 0 0.25 0"/>
<feBlend mode="normal" in2="shape" result="effect1_innerShadow_1_322"/>
</filter>
<filter id="filter7_i_1_322" x="37.0767" y="43.2876" width="2.44693" height="2.02299" filterUnits="userSpaceOnUse" color-interpolation-filters="sRGB">
<feFlood flood-opacity="0" result="BackgroundImageFix"/>
<feBlend mode="normal" in="SourceGraphic" in2="BackgroundImageFix" result="shape"/>
<feColorMatrix in="SourceAlpha" type="matrix" values="0 0 0 0 0 0 0 0 0 0 0 0 0 0 0 0 0 0 127 0" result="hardAlpha"/>
<feOffset dy="2"/>
<feComposite in2="hardAlpha" operator="arithmetic" k2="-1" k3="1"/>
<feColorMatrix type="matrix" values="0 0 0 0 0 0 0 0 0 0 0 0 0 0 0 0 0 0 0.25 0"/>
<feBlend mode="normal" in2="shape" result="effect1_innerShadow_1_322"/>
</filter>
<filter id="filter8_i_1_322" x="31.137" y="42.9725" width="5.93246" height="5.35664" filterUnits="userSpaceOnUse" color-interpolation-filters="sRGB">
<feFlood flood-opacity="0" result="BackgroundImageFix"/>
<feBlend mode="normal" in="SourceGraphic" in2="BackgroundImageFix" result="shape"/>
<feColorMatrix in="SourceAlpha" type="matrix" values="0 0 0 0 0 0 0 0 0 0 0 0 0 0 0 0 0 0 127 0" result="hardAlpha"/>
<feOffset dx="1" dy="2"/>
<feComposite in2="hardAlpha" operator="arithmetic" k2="-1" k3="1"/>
<feColorMatrix type="matrix" values="0 0 0 0 0 0 0 0 0 0 0 0 0 0 0 0 0 0 0.25 0"/>
<feBlend mode="normal" in2="shape" result="effect1_innerShadow_1_322"/>
</filter>
<filter id="filter9_i_1_322" x="13.2169" y="47.0064" width="22.5979" height="8.38245" filterUnits="userSpaceOnUse" color-interpolation-filters="sRGB">
<feFlood flood-opacity="0" result="BackgroundImageFix"/>
<feBlend mode="normal" in="SourceGraphic" in2="BackgroundImageFix" result="shape"/>
<feColorMatrix in="SourceAlpha" type="matrix" values="0 0 0 0 0 0 0 0 0 0 0 0 0 0 0 0 0 0 127 0" result="hardAlpha"/>
<feOffset dx="-4" dy="-3"/>
<feComposite in2="hardAlpha" operator="arithmetic" k2="-1" k3="1"/>
<feColorMatrix type="matrix" values="0 0 0 0 0.470588 0 0 0 0 0.701961 0 0 0 0 0.392157 0 0 0 1 0"/>
<feBlend mode="normal" in2="shape" result="effect1_innerShadow_1_322"/>
</filter>
<filter id="filter10_i_1_322" x="22.1726" y="47.3971" width="14.2226" height="8.26561" filterUnits="userSpaceOnUse" color-interpolation-filters="sRGB">
<feFlood flood-opacity="0" result="BackgroundImageFix"/>
<feBlend mode="normal" in="SourceGraphic" in2="BackgroundImageFix" result="shape"/>
<feColorMatrix in="SourceAlpha" type="matrix" values="0 0 0 0 0 0 0 0 0 0 0 0 0 0 0 0 0 0 127 0" result="hardAlpha"/>
<feOffset dx="-6"/>
<feComposite in2="hardAlpha" operator="arithmetic" k2="-1" k3="1"/>
<feColorMatrix type="matrix" values="0 0 0 0 0.857959 0 0 0 0 0.857959 0 0 0 0 0.747586 0 0 0 1 0"/>
<feBlend mode="normal" in2="shape" result="effect1_innerShadow_1_322"/>
</filter>
<filter id="filter11_ii_1_322" x="44.7818" y="27.8196" width="18.4201" height="29.7251" filterUnits="userSpaceOnUse" color-interpolation-filters="sRGB">
<feFlood flood-opacity="0" result="BackgroundImageFix"/>
<feBlend mode="normal" in="SourceGraphic" in2="BackgroundImageFix" result="shape"/>
<feColorMatrix in="SourceAlpha" type="matrix" values="0 0 0 0 0 0 0 0 0 0 0 0 0 0 0 0 0 0 127 0" result="hardAlpha"/>
<feOffset dy="-3"/>
<feComposite in2="hardAlpha" operator="arithmetic" k2="-1" k3="1"/>
<feColorMatrix type="matrix" values="0 0 0 0 0 0 0 0 0 0 0 0 0 0 0 0 0 0 0.25 0"/>
<feBlend mode="normal" in2="shape" result="effect1_innerShadow_1_322"/>
<feColorMatrix in="SourceAlpha" type="matrix" values="0 0 0 0 0 0 0 0 0 0 0 0 0 0 0 0 0 0 127 0" result="hardAlpha"/>
<feOffset dx="2" dy="2"/>
<feComposite in2="hardAlpha" operator="arithmetic" k2="-1" k3="1"/>
<feColorMatrix type="matrix" values="0 0 0 0 1 0 0 0 0 1 0 0 0 0 1 0 0 0 0.25 0"/>
<feBlend mode="normal" in2="effect1_innerShadow_1_322" result="effect2_innerShadow_1_322"/>
</filter>
<filter id="filter12_i_1_322" x="40" y="51" width="8.43876" height="7.13543" filterUnits="userSpaceOnUse" color-interpolation-filters="sRGB">
<feFlood flood-opacity="0" result="BackgroundImageFix"/>
<feBlend mode="normal" in="SourceGraphic" in2="BackgroundImageFix" result="shape"/>
<feColorMatrix in="SourceAlpha" type="matrix" values="0 0 0 0 0 0 0 0 0 0 0 0 0 0 0 0 0 0 127 0" result="hardAlpha"/>
<feOffset dx="-2" dy="3"/>
<feComposite in2="hardAlpha" operator="arithmetic" k2="-1" k3="1"/>
<feColorMatrix type="matrix" values="0 0 0 0 0.470588 0 0 0 0 0.701961 0 0 0 0 0.392157 0 0 0 1 0"/>
<feBlend mode="normal" in2="shape" result="effect1_innerShadow_1_322"/>
</filter>
<filter id="filter13_i_1_322" x="47.8507" y="33.2246" width="4.00021" height="6.97545" filterUnits="userSpaceOnUse" color-interpolation-filters="sRGB">
<feFlood flood-opacity="0" result="BackgroundImageFix"/>
<feBlend mode="normal" in="SourceGraphic" in2="BackgroundImageFix" result="shape"/>
<feColorMatrix in="SourceAlpha" type="matrix" values="0 0 0 0 0 0 0 0 0 0 0 0 0 0 0 0 0 0 127 0" result="hardAlpha"/>
<feOffset dx="-2" dy="2"/>
<feComposite in2="hardAlpha" operator="arithmetic" k2="-1" k3="1"/>
<feColorMatrix type="matrix" values="0 0 0 0 0.280032 0 0 0 0 0.445199 0 0 0 0 0.228418 0 0 0 1 0"/>
<feBlend mode="normal" in2="shape" result="effect1_innerShadow_1_322"/>
</filter>
<filter id="filter14_i_1_322" x="47.4074" y="43.1645" width="4.3923" height="6.55281" filterUnits="userSpaceOnUse" color-interpolation-filters="sRGB">
<feFlood flood-opacity="0" result="BackgroundImageFix"/>
<feBlend mode="normal" in="SourceGraphic" in2="BackgroundImageFix" result="shape"/>
<feColorMatrix in="SourceAlpha" type="matrix" values="0 0 0 0 0 0 0 0 0 0 0 0 0 0 0 0 0 0 127 0" result="hardAlpha"/>
<feOffset dx="-2" dy="2"/>
<feComposite in2="hardAlpha" operator="arithmetic" k2="-1" k3="1"/>
<feColorMatrix type="matrix" values="0 0 0 0 0.280032 0 0 0 0 0.445199 0 0 0 0 0.228418 0 0 0 1 0"/>
<feBlend mode="normal" in2="shape" result="effect1_innerShadow_1_322"/>
</filter>
</defs>
</svg>
